<?xml version="1.0" standalone="no"?>
<!DOCTYPE svg PUBLIC "-//W3C//DTD SVG 1.1//EN" "http://www.w3.org/Graphics/SVG/1.1/DTD/svg11.dtd" >
<svg xmlns="http://www.w3.org/2000/svg">
<metadata></metadata>
<defs>
<font id="300_trojansregular" horiz-adv-x="894" >
<font-face units-per-em="2048" ascent="1638" descent="-410" />
<missing-glyph horiz-adv-x="616" />
<glyph horiz-adv-x="0" />
<glyph unicode="&#xd;" horiz-adv-x="1024" />
<glyph unicode=" "  horiz-adv-x="616" />
<glyph unicode="&#x09;" horiz-adv-x="616" />
<glyph unicode="&#xa0;" horiz-adv-x="616" />
<glyph unicode="!" horiz-adv-x="380" d="M37 319q4 37 10 120t12.5 174.5t12.5 174t10 121.5v72q8 4 35.5 15.5t59.5 23.5t59.5 23.5t35.5 15.5l47 22q2 4 14.5 5t14.5 1q0 -72 -8 -141t-19.5 -138t-19.5 -139.5t-8 -140.5v-39q0 -14 1 -15t2 0l1 1q2 0 2 -14v-41q4 -2 12 -10.5t11 -12.5l1 -5t1 -7 q0 -23 -33 -39t-75 -27.5t-84 -17.5t-60 -6h-13l-12 12t-10 12zM47 76q0 16 3 28.5t22 20.5q14 37 44.5 60.5t64.5 30.5t63.5 -3t40.5 -41h10h12q6 -6 15.5 -12.5t9.5 -12.5q0 -72 -41 -119.5t-113 -47.5q-45 0 -88 20t-43 76z" />
<glyph unicode="&#x22;" horiz-adv-x="544" d="M18 684q0 39 1 95.5t10.5 109.5t27 91t52.5 38q20 0 46.5 2t49 -1t38 -15.5t15.5 -38.5q0 -8 -5 -53.5t-12.5 -96.5t-17.5 -93t-20 -44q2 -23 -19.5 -39t-50.5 -25.5t-55.5 -8.5t-32.5 16zM281 684q0 39 1 95.5t10 109.5t26.5 91t52.5 38q20 0 46.5 2t49 -1t38 -15.5 t15.5 -38.5q0 -8 -5 -53.5t-12 -96.5t-17.5 -93t-20.5 -44q2 -23 -19.5 -39t-50 -25.5t-55.5 -8.5t-33 16z" />
<glyph unicode="#" horiz-adv-x="831" d="M10 393q0 -8 23 -8t64.5 -6t70.5 6q-2 -29 -3 -57.5t-1 -57.5q0 -12 1 -20t17 -12l144 67q6 4 16 9t10 8v59q23 -2 49.5 -3t47.5 9q-4 -29 -5 -59v-58q0 -10 1 -18t18 -12l141 67q6 4 16 9l11 6v71h100l21 -1q22 -1 24 -1t5 1l3 1l23 139h-16q-53 0 -91 -1t-69 -3l4 78 h96h45h8l23 142h-16q-47 0 -85 -1.5t-67 -1.5v13q0 6 3 21.5t6 31.5t6 30.5t3 20.5q-2 20 -24.5 19.5t-34.5 -0.5q-47 0 -83 -4.5t-89 -14.5q0 -2 -1 -4l-1 -2q0 -12 17.5 -31.5t21.5 -29.5v-50q-31 -2 -57 -2h-46v15q0 6 2.5 20.5t5.5 30.5t6 30.5t5 20.5q-4 20 -27 21h-33 q-47 0 -82.5 -4.5t-89.5 -16.5l-1 -2q-1 -2 -1 -4q0 -12 16.5 -30.5t20.5 -30.5v-56q-31 0 -68 3.5t-100 7.5q0 -51 -1 -73t-1 -32t-1 -15t-1 -22q0 -8 23 -8q12 0 31.5 -2t40 -3t40 2t31.5 13h8q0 -23 -1 -45t-3 -45q-29 0 -66.5 3t-99.5 14q0 -51 -1 -74t-1 -33 q0 -8 -1 -13t-1 -22zM352 528l2 68q25 -2 51 -1t44 11h2l4 -1q4 -1 8 -1v-37q0 -18 -2 -37q-33 -2 -60 -2h-49z" />
<glyph unicode="$" horiz-adv-x="659" d="M6 193q0 -6 30 -12.5t68.5 -10.5t78.5 -6t59 -2q-2 -76 -3 -146t-1 -125q0 -16 1 -27t11 -18l92 95q4 4 11 12t7 10l-4 260q45 33 95.5 74t92.5 80t69.5 69.5t27.5 42.5v7q-4 6 -12 17t-11 13l-258 78v17q23 6 65 19t83 27.5t70.5 28t29.5 21.5q0 4 -2 5l-2 1l-221 80 q2 0 -18 -4v24q0 8 2 29.5t4 44.5t4 43.5t2 28.5q-2 29 -16.5 27.5t-22.5 -1.5q-31 0 -54.5 -5t-58.5 -21v-11q0 -16 10.5 -41.5t14.5 -42.5v-51v-71q-49 -18 -80 -37q-10 -6 -29.5 -16.5t-38 -22.5t-33 -22.5t-16.5 -12.5q-2 0 -4 -13.5t-2 -19.5q0 -25 18.5 -44t47 -34.5 t64.5 -26.5t71 -20v-2v-53q0 -27 -2 -55q-20 -18 -41 -36t-35 -28q-4 -4 -16.5 -12t-30 -18.5t-35.5 -21.5t-33 -21q-23 -12 -26.5 -15.5t-14.5 -15.5q-8 -8 -8 -12z" />
<glyph unicode="%" horiz-adv-x="1032" d="M10 651q0 16 1 30.5t1 18.5q0 39 11.5 68t33 50.5t52 38.5t69.5 34q-2 4 20.5 7t43.5 5h22q33 0 65.5 -18.5t59.5 -47t43.5 -62.5t16.5 -64q0 -39 -16.5 -79t-45.5 -73t-66.5 -53.5t-82.5 -20.5q-29 0 -65 10.5t-67.5 28t-56.5 40.5t-31 52q-2 4 -5 14.5t-3 20.5z M104 -41l547 934q29 29 49.5 28t49.5 -1h22q14 0 31.5 -1t32.5 -1h20q6 -14 7 -42t-5 -38l-479 -779q-6 -29 -40 -48t-79 -30.5t-88 -16.5t-68 -5zM135 707q0 -33 26.5 -66t74.5 -43q35 16 59 43t24 66q0 4 -9 25l-9 20q-4 10 -21.5 20t-27.5 14l-6 1q-6 1 -8 1 q-16 0 -34 -7t-33 -19t-25.5 -26.5t-10.5 -28.5zM573 190q0 16 1 31t1 19q0 39 11.5 67.5t33 50t52 39t69.5 33.5q-2 4 20.5 7t43.5 5h22q33 0 66 -18t59.5 -47t43 -62.5t16.5 -64.5q0 -39 -16.5 -79t-45 -72.5t-66.5 -53t-83 -20.5q-29 0 -65 10t-67.5 27.5t-56 41 t-30.5 52.5q-2 4 -5.5 14t-3.5 20zM698 246q0 -33 27 -66t74 -43q35 16 59.5 43t24.5 66q0 4 -9 24l-10 21q-4 10 -21.5 20.5t-27.5 14.5l-6 1t-8 1q-16 0 -33.5 -7.5t-33 -19.5t-26 -26.5t-10.5 -28.5z" />
<glyph unicode="&#x26;" horiz-adv-x="970" d="M12 360q0 109 44 203t120 169t179.5 129t222.5 85q6 6 33.5 13.5t35.5 11.5h12q12 0 27.5 -30t30 -66.5t25 -72.5t10.5 -48q0 -2 -30 -11.5t-76 -25t-101.5 -38t-104.5 -48.5q12 -2 24.5 -3t27.5 -3v2q12 -4 14 -4q29 -4 59.5 -9.5t65.5 -11.5q2 -2 8 -2q8 0 12 -2 q6 2 15.5 6t37 7t81 6.5t145.5 3.5h22l-28 -261l-4 -1q-5 -1 -7 -1l-15 1q-15 1 -30 1h-14l-20 2q-10 -29 -22.5 -59.5t-25.5 -60.5l9 -4v-5q0 -4 -2 -6l-7 -13q-8 -13 -14 -26l-6 -12l-18 -29q-16 -35 -34 -63.5t-34 -48.5q-10 -31 -20.5 -67t-20.5 -65.5t-20.5 -46 t-18.5 -8.5q-35 16 -58.5 26.5t-47 20t-55.5 21t-83 29.5q16 20 33 45.5t27 38.5q-72 18 -143.5 47.5t-130 71.5t-94.5 94.5t-36 117.5zM299 438q6 -53 31.5 -94t57.5 -66.5t65.5 -30.5t58.5 15q29 12 40 24.5t15 26t5 29.5t10 37q-23 35 -40.5 43t-52.5 12q-82 10 -190 4z " />
<glyph unicode="'" horiz-adv-x="282" d="M18 684q0 39 1 95.5t10.5 109.5t27 91t52.5 38q20 0 46.5 2t49 -1t38 -15.5t15.5 -38.5q0 -8 -5 -53.5t-12.5 -96.5t-17.5 -93t-20 -44q2 -23 -19.5 -39t-50.5 -25.5t-55.5 -8.5t-32.5 16z" />
<glyph unicode="(" horiz-adv-x="448" d="M0 500q0 39 15.5 90t42 106.5t62.5 107.5t76 94t81.5 67.5t80.5 25.5q6 0 13.5 -2t9.5 -2l47 -168q-51 -20 -81 -52t-46 -75t-21.5 -96t-5.5 -117q0 -109 26 -184.5t97 -118.5v-35q0 -12 -2 -41.5t-8 -60.5t-17.5 -54.5t-29.5 -23.5q-4 0 -7 1t-5 1q-68 39 -128.5 95.5 t-104.5 125t-69.5 148.5t-25.5 168z" />
<glyph unicode=")" horiz-adv-x="448" d="M-2 819q51 -20 81 -52t46 -75t21.5 -96t5.5 -117q0 -109 -26 -184.5t-97 -118.5v-35q0 -12 2 -41.5t8 -60.5t17.5 -54.5t29.5 -23.5q4 0 7 1t5 1q68 39 128.5 95.5t104.5 125t69.5 148.5t25.5 168q0 39 -15.5 90t-42 106.5t-62.5 107.5t-76 94t-82 67.5t-80 25.5 q-6 0 -13.5 -2t-9.5 -2z" />
<glyph unicode="*" horiz-adv-x="522" d="M25 848q-8 -8 18 -27q16 -16 45 -38.5t57 -45.5q-12 -14 -30.5 -37.5t-77.5 -64.5q27 -25 33 -33t4 -9t-4 -1t8 -8q16 -18 28.5 -29.5t28.5 -28.5q8 -8 31 13q6 8 11 15t12.5 16.5t18.5 23.5t30 39l26.5 -26.5t44 -43t41.5 -39.5l19 -18l6 -6l135 102l-18 16 q-35 29 -69 63t-63 71l95 108l4 8l-92 121l-17 -18q-29 -31 -45 -45.5t-28.5 -23.5t-21.5 -18.5t-22 -25.5q-12 12 -32.5 37t-61.5 72q-31 -35 -48 -53.5t-30 -30.5q-10 -10 -18 -17.5t-18 -17.5z" />
<glyph unicode="+" horiz-adv-x="696" d="M12 299q0 -12 29 -12q12 0 36.5 1t56.5 2t65.5 3t64.5 4q0 -10 -1 -46t-2 -62.5t-1 -30.5v-11l166 -28v22v84t-2 70l61 -6h15l143 4q2 0 6 1l4 1l29 260h-23q-84 0 -143 -3t-100 -7q2 16 5 49t13 92q-47 0 -72.5 1t-42.5 1q-16 0 -26 1t-25 1q-8 0 -8 -31q0 -23 2 -60.5 t6 -72.5q-10 0 -36.5 2t-62.5 7.5t-77 11.5t-76 14q0 -72 -1 -112.5t-1 -67.5q0 -25 -1 -42t-1 -40z" />
<glyph unicode="," horiz-adv-x="323" d="M-3 -126q5 40 15.5 78t15.5 52l17 43q4 72 30.5 121t96.5 45q45 -4 86 -28.5t37 -78.5q0 -8 -18.5 -52t-43 -95t-49 -92t-34.5 -43q-68 -41 -102 -40t-45 25.5t-6 64.5z" />
<glyph unicode="-" horiz-adv-x="505" d="M25 293q0 -12 28 -12q35 0 93.5 9t97.5 17l147 -18h15q14 0 30 -1l15 -1q2 0 6 1l4 1l28 260h-22q-109 0 -162 -3t-77.5 -8.5t-31 -8.5t-18.5 -3t-43.5 6.5t-105.5 22.5q0 -72 -1 -113t-1 -67q0 -25 -1 -42.5t-1 -39.5z" />
<glyph unicode="." horiz-adv-x="309" d="M12 47q0 72 41 121t113 49q20 0 43.5 -5t43 -16.5t32 -30t12.5 -44.5q0 -8 -6 -27.5t-15.5 -39t-19.5 -37t-20 -19.5q-23 -4 -44.5 -6t-37.5 -2q-43 0 -71 8t-43 19.5t-18 16.5z" />
<glyph unicode="/" horiz-adv-x="827" d="M-27 -53l547 946q14 14 33.5 19.5t41 7.5t42 1t35.5 -1h22q14 0 31.5 -1t32.5 -1h20q6 -14 7 -42t-5 -38l-479 -779q-6 -29 -49 -50t-96.5 -35.5t-105.5 -20.5t-77 -6z" />
<glyph unicode="0" d="M12 360q0 35 1 67t3 40q0 88 20.5 145.5t59.5 98.5t97.5 73.5t134.5 69.5q0 4 12 8t30.5 8t41 7.5t43.5 5.5h45q16 0 20 -2l43 98q8 10 19 10q6 0 12 -2t16 -2h70l59 -2q4 -10 5 -24.5t1 -28.5q0 -18 -4 -31l-34 -76q37 -33 68.5 -73.5t56 -86t38 -90.5t13.5 -86 q0 -86 -32 -173t-88 -157.5t-133 -114.5t-165 -44q-45 0 -115 16l-37 -77q-4 -23 -19 -36.5t-38 -20.5t-48.5 -9t-47.5 -2h-54l89 215q-61 37 -106.5 88t-59.5 111q-4 10 -10.5 32.5t-6.5 44.5zM225 477q0 -90 64 -168l151 365q-35 -4 -72.5 -22.5t-69.5 -46t-52.5 -61.5 t-20.5 -67zM436 209q12 -4 13 -4q76 37 133 104.5t57 161.5q0 6 -5 21.5t-11.5 33t-12.5 33.5t-8 25z" />
<glyph unicode="1" horiz-adv-x="376" d="M25 842q0 -16 20.5 -43t28.5 -41v-51q0 -35 1 -77t1 -79v-51q0 -123 -13.5 -236.5t-13.5 -236.5q0 -16 2 -27.5t23 -17.5l188 94q8 4 21.5 12t13.5 10v260l12 308q0 6 -1 21t-1 20q0 8 3 29.5t7.5 44t8.5 43t6 28.5q-2 14 -11.5 19.5t-21.5 7.5t-24.5 1t-20.5 -1 q-61 0 -109.5 -5.5t-117.5 -21.5q0 -2 -1 -5t-1 -5z" />
<glyph unicode="2" horiz-adv-x="747" d="M2 475q0 -18 30.5 -63t77 -102.5t103.5 -119t109.5 -112.5t93.5 -84t57 -33h64q47 0 95 2t86 8.5t38 16.5q0 8 -8 22q-10 20 -14.5 24.5t-26.5 24.5l-33 33l-36 36t-30.5 29.5t-15.5 18.5q-16 20 -59.5 55t-87.5 69t-78.5 60.5t-34.5 30.5v47q37 14 91 27.5t103 33 t84 50.5t35 80q0 12 -2 32.5t-4 22.5q-2 4 -23.5 25.5t-50 48t-55.5 50t-37 32.5q-23 18 -57.5 42.5t-68.5 47t-59.5 38t-27.5 13.5l-164 -166l-1 -3t-1 -7q0 -16 36 -41t82 -50.5t89 -47t55 -29.5l-331 -105q-2 -2 -10.5 -19t-12.5 -28v-10z" />
<glyph unicode="3" horiz-adv-x="800" d="M12 813v88q57 0 103.5 4t90.5 10.5t90 10.5t103 4q82 0 149.5 -20.5t117 -64.5t77 -112.5t27.5 -163.5q0 -143 -47 -244.5t-126 -170t-182.5 -107.5t-215.5 -57q-45 -6 -81 -20.5t-79 -14.5q0 2 1 13.5t1 13.5l-18 211l192 30q61 18 99 33.5t62.5 34t40 41t32.5 57.5 l-236 -18v18q0 8 1 19.5t-1 31t-6 51t-12 80.5q43 6 73.5 12.5t59 10.5t58.5 8t69 6q-4 47 -5 74t-12.5 39t-37 14t-78.5 2l-136 -14q-4 -2 -14 -2q-14 0 -45 -14.5t-104 -36.5q0 53 -5.5 87t-5.5 56z" />
<glyph unicode="4" horiz-adv-x="851" d="M6 840q0 -4 10.5 -23.5t14.5 -23.5q4 -8 12 -35t10 -35v-41q0 -29 1 -60.5t1 -60.5l2 -166h29t74 1t98 2t100.5 3t83 4.5t45.5 4.5h13q25 0 39 3t21 1t10 -10.5t3 -28.5q0 -49 -8 -98.5t-17 -98.5t-17.5 -98t-8.5 -98q4 0 24.5 4t24.5 6q12 4 40 16t58.5 27.5t56.5 30 t34 20.5q41 193 56 389.5t15 388.5q0 12 -9 46t-15 48h-21q-14 0 -31.5 1.5t-31.5 1.5h-23q-14 0 -34.5 1t-42 -1.5t-41 -7.5t-33.5 -19q20 -49 22 -91t2 -98q0 -12 -1 -46.5t-1 -47.5q-10 -29 -32.5 -46t-51 -27.5t-60.5 -13.5t-62 -3h-76v303h-258q-6 0 -15.5 -10 t-9.5 -14z" />
<glyph unicode="5" horiz-adv-x="747" d="M2 457v10q0 18 30.5 63t77 102.5t103.5 119t109.5 112.5t93.5 84t57 33h64q47 0 95 -2t86 -8.5t38 -16.5q0 -8 -8 -22q-10 -20 -14.5 -24.5t-26.5 -24.5q-14 -16 -33 -34t-36 -35t-30.5 -29.5t-15.5 -18.5q-16 -20 -59.5 -55t-87.5 -69t-78.5 -60.5t-34.5 -30.5v-47 q37 -14 91 -27.5t103 -33t84 -50.5t35 -80q0 -12 -2 -32.5t-4 -22.5q-2 -4 -23.5 -25.5t-50 -48t-55.5 -50t-37 -32.5q-23 -18 -57.5 -42.5t-68.5 -47t-59.5 -38t-27.5 -13.5l-164 166l-1 3t-1 7q0 16 36 41t82 50.5t89 46t55 30.5l-331 105q-2 2 -10.5 19t-12.5 28z" />
<glyph unicode="6" horiz-adv-x="905" d="M12 360q0 -59 32 -109t84 -91t117.5 -71t133 -50.5t131 -30.5t108.5 -10q27 0 53.5 28.5t51.5 73.5t47.5 99.5t41.5 107.5t35.5 97.5t29.5 68.5q-2 2 -16.5 13.5t-30.5 24.5l-17 13q0 18 -22.5 31.5t-53 23t-61.5 15.5t-45 8q-55 10 -102.5 17.5t-88.5 11.5 q49 27 104.5 49t101.5 37.5t76 25t30 11.5q0 12 -20.5 47t-46.5 71.5t-51.5 65.5t-37.5 29h-12q-4 -2 -14.5 -5.5t-21.5 -6.5t-21.5 -7t-12.5 -6q-86 -41 -176 -95t-162 -127t-118 -162t-46 -198zM299 438q141 8 212 -8t86 -43t-17 -57.5t-95 -48.5q-23 0 -52.5 14t-56 36.5 t-48 50.5t-29.5 56z" />
<glyph unicode="7" horiz-adv-x="903" d="M12 0q14 18 47 56t69 81t67.5 82t46.5 57l325 435q-78 0 -142.5 1t-126.5 -3t-124.5 -16.5t-132.5 -41.5l152 262h710l-264 -401l-180 -291q-14 -12 -21.5 -30.5t-10.5 -37t-4 -36t-1 -27.5q0 -29 10 -46t15.5 -27.5t-2 -13.5t-42.5 -3h-391z" />
<glyph unicode="8" horiz-adv-x="940" d="M14 393q0 -86 23.5 -152.5t66.5 -113.5t101.5 -74.5t128.5 -34.5l108 -18h23q12 0 22.5 2t18.5 3t12 1q6 0 7 -1t3 -1t5.5 2t29.5 12l82 56q127 57 207 178t80 311q0 86 -22.5 149.5t-63.5 107.5t-98.5 68.5t-126.5 31.5q-4 23 -26 21.5t-44 -1.5q-27 0 -33 5t-24 1 q-29 -4 -41.5 -6t-22.5 -4t-21.5 -6t-35.5 -15l-72 -32q-125 -66 -206 -184t-81 -306zM330 354q39 2 57.5 5t32.5 5.5t32.5 4.5t55.5 2h24l-4 16l82 -4q-16 -35 -12 -55.5t4 -34.5t-18.5 -26.5t-79.5 -30.5l-66 -11q-43 0 -63.5 3t-29.5 16.5t-10 39t-5 70.5zM336 573 q16 33 21 56.5t17.5 42t41 33t90.5 32.5l24 4q43 0 60.5 -5t21.5 -20.5t2 -42t2 -71.5l-137 -18z" />
<glyph unicode="9" horiz-adv-x="905" d="M14 496q2 -2 15.5 -14.5t30.5 -27.5l16 -16q0 -18 22.5 -31.5t53 -22.5t60.5 -15.5t46 -8.5q55 -10 102.5 -17t88.5 -11q-49 -29 -104.5 -55.5t-101.5 -49t-77 -37t-31 -16.5q0 -12 20.5 -41t47 -59.5t52.5 -54t38 -23.5h12q4 2 14.5 5t21.5 6t20.5 7t13.5 6 q86 39 176 94.5t161.5 128t118 161.5t46.5 198q0 59 -32 110.5t-84 93.5t-117.5 72.5t-133.5 51t-131.5 30t-108.5 5.5q-53 -4 -97 -60.5t-78 -132.5t-54.5 -153.5t-26.5 -122.5zM289.5 575.5q-15.5 26.5 17.5 57.5t96 49q23 0 52.5 -14.5t56.5 -37t48.5 -51t29.5 -55.5 q-141 -10 -213 7.5t-87.5 44z" />
<glyph unicode=":" horiz-adv-x="309" d="M12 47q0 72 41 121t113 49q20 0 43.5 -5t43 -16.5t32 -30t12.5 -44.5q0 -8 -6 -27.5t-15.5 -39t-19.5 -37t-20 -19.5q-70 -12 -113 -6t-67.5 18.5t-29.5 18.5zM14 565q0 72 41 121t113 49q20 0 44 -5t43 -16.5t31.5 -29.5t12.5 -45q0 -8 -6 -27.5t-15.5 -39t-19.5 -37 t-20 -19.5q-70 -12 -113 -6t-67.5 18.5t-29.5 18.5z" />
<glyph unicode=";" horiz-adv-x="309" d="M-3 -126q5 40 15.5 78t15.5 52l17 43q2 35 9 66.5t21.5 54t38 35t58.5 10.5q20 -2 44 -8t42 -19.5t28.5 -33t8.5 -46.5q0 -8 -18.5 -52t-43 -95t-49 -92t-34.5 -43q-68 -41 -102 -40t-45 25.5t-6 64.5zM14 565q0 72 41 121t113 49q20 0 44 -5t43 -16.5t31.5 -29.5 t12.5 -45q0 -8 -6 -27.5t-15.5 -39t-19.5 -37t-20 -19.5q-70 -12 -113 -6t-67.5 18.5t-29.5 18.5z" />
<glyph unicode="&#x3c;" horiz-adv-x="610" d="M20 430l259 363q10 14 9 28.5t-1 28.5q0 12 2 24.5t-10 22.5q25 -2 67 -2q43 0 88 1t86 3t64 4q-4 -6 -23.5 -36.5t-45.5 -73.5t-54.5 -94.5t-52 -95.5t-40 -76.5t-18.5 -39.5l-6 -34q0 -20 16.5 -60.5t41 -87.5t56 -97t61.5 -92t56.5 -72t40.5 -36q-6 0 -46 -3t-86 -6 t-85 -3q-37 0 -41 4z" />
<glyph unicode="=" horiz-adv-x="729" d="M25 199q0 23 1 30t2 20t2 43.5t1 102.5q76 -10 123 -15t84 -5t70.5 2t80.5 5t116.5 6t178.5 3h23l-31 -194l-4 -1q-4 -1 -6 -1l-16 1q-15 1 -29 1h-15l-356 2q-18 -14 -45 -17.5t-54.5 -2.5t-54 4t-43.5 3q-29 0 -28 13zM25 498q0 23 1 30t2 20t2 43.5t1 102.5 q76 -8 123 -11t84 -3t70.5 1t80.5 3t116.5 4t178.5 2h23l-31 -194l-4 -1t-6 -1l-16 1q-15 1 -29 1h-15l-362 4q-18 -14 -44 -18.5t-52.5 -3.5t-52 4t-42.5 3q-29 0 -28 13z" />
<glyph unicode="&#x3e;" horiz-adv-x="610" d="M18 8q6 0 46 -3t86.5 -6t82.5 -3q39 0 43 4l338 430l-258 363q-10 14 -9 28.5t1 28.5q0 12 -2 24.5t10 22.5q-25 -2 -67 -2q-43 0 -88 1t-86 3t-64 4q4 -6 23.5 -36.5t45 -73.5t54.5 -94.5t52.5 -95.5t40 -76.5t18.5 -39.5l6 -34q0 -20 -16.5 -60.5t-41 -87.5t-56.5 -97 t-61.5 -92t-56 -72t-41.5 -36z" />
<glyph unicode="?" horiz-adv-x="688" d="M10 821q0 4 1 7l1 3l164 166h2q6 0 48 -17t93.5 -42t100.5 -50.5t72 -41.5q10 -8 36.5 -31.5t55 -50.5t50 -48.5t23.5 -25.5q2 -2 4.5 -22.5t2.5 -32.5q0 -49 -35 -80t-84 -50.5t-103.5 -32.5t-91.5 -28q0 -27 -9 -32.5t-19 -5.5h-11q-4 0 -4 -3q0 -6 4 -19t6 -28.5 t1 -28t-11 -14.5l-131 -16h-8q-25 0 -51.5 18.5t-48 46t-35 60.5t-13.5 59v11q4 10 12.5 27.5t10.5 19.5l332 104q-8 6 -39 18.5t-71 29t-85 34.5t-83 35.5t-62.5 34t-24.5 26.5zM154 45q0 66 37.5 111t103.5 45q41 0 81 -19.5t40 -68.5q0 -8 -5 -25.5t-14.5 -36t-19.5 -34 t-19 -17.5q-63 -12 -103 -6t-62.5 16t-26.5 16z" />
<glyph unicode="@" horiz-adv-x="956" d="M4 604q0 70 32 129.5t84 107.5t118.5 84t134 59.5t130 35.5t109.5 12q27 0 72 -37t91 -93t87 -126.5t62.5 -137.5t15.5 -123t-53 -85l1 -6t1 -8q0 -23 -36 -40.5t-81 -30.5t-89 -20.5t-58 -7.5q-10 0 -41 18.5t-64 52.5t-57.5 80t-24.5 101q0 66 41 129q6 8 6 17 q0 16 -26 16q-23 0 -54.5 -11t-60.5 -33.5t-50.5 -54.5t-21.5 -73q0 -35 19 -74q37 -72 105.5 -146.5t137 -137t120 -103.5t51.5 -45q0 -14 -13.5 -41.5t-32 -55.5t-38 -48.5t-31.5 -20.5h-12q-8 6 -36 13.5t-34 15.5q-86 49 -176 114.5t-163 149.5t-119 189.5t-46 234.5z M596 520q0 -2 11 -13t46 -20.5t97 0.5q6 2 14 12.5t14 25t10.5 27.5t4.5 19q0 35 -30 49.5t-61 14.5q-49 0 -77.5 -33t-28.5 -82z" />
<glyph unicode="A" horiz-adv-x="1003" d="M-10 12q16 -4 38.5 -7t47 -6t47 -5t41.5 -2h16l596 26h47h78q43 0 79 1t46 4l-47 71q-18 27 -43 86.5t-52.5 135t-56 161.5t-54 168t-46 151.5t-33.5 114.5h-213q-14 -39 -36.5 -83t-46 -89t-45 -90t-31.5 -84zM346 270q2 4 10.5 20.5t12.5 20.5q4 8 29.5 50t56 91.5 t56.5 91.5t30 50q29 -10 36 -41t13 -64l59 -182q2 -16 -25.5 -23.5t-65.5 -11.5t-75 -4h-53h-37q-6 0 -24.5 1t-22.5 1z" />
<glyph unicode="B" horiz-adv-x="862" d="M12 899q86 6 149.5 10t119 7.5t112 4.5t129.5 1h144q68 -18 80 -47t12 -64v-8q0 -88 -51.5 -146.5t-143.5 -105.5v-21q59 -8 111.5 -24.5t91.5 -42t61.5 -62t22.5 -86.5q0 -78 -42 -126t-109.5 -77.5t-153.5 -45t-175 -24.5t-173 -17.5t-148 -24.5v20q0 111 15.5 219.5 t15.5 221.5q0 31 4 82t4 104q0 35 -4 73t-13.5 72.5t-23.5 62.5t-35 44zM285 705q0 -10 4 -17.5t8 -18t8 -25.5t4 -42q78 0 128 38t50 91q0 27 -17 34t-46 7q-23 0 -31 -4t-39 -4l-57 -6q-8 -20 -10 -33.5t-2 -19.5zM289 309q0 -29 5 -48t17 -23q31 -6 66 -7q35 0 68.5 6.5 t61.5 18.5t45 30.5t17 41.5l-2 12q-10 47 -28.5 59.5t-55.5 12.5q-23 0 -55 2h-12q-27 0 -60 -6l-49 -11q-4 -16 -11 -39.5t-7 -48.5z" />
<glyph unicode="C" horiz-adv-x="747" d="M6 489q0 -88 68.5 -165.5t166 -144t203 -121t181.5 -93.5q2 0 5 -1t7 -1q20 0 32.5 23.5t19.5 54.5t9 60.5t2 41.5v35q-37 20 -99 54t-120.5 76t-101.5 92.5t-43 103.5q0 63 32.5 107t83 76t112 54.5t116.5 42.5l-143 172q-2 0 -10.5 2.5t-14.5 2.5q-43 0 -97.5 -25 t-110.5 -63.5t-109.5 -89t-95.5 -102.5t-67.5 -102.5t-25.5 -89.5z" />
<glyph unicode="D" horiz-adv-x="925" d="M12 -49q0 2 1 12t1 12q0 6 3 34t8.5 59.5t8.5 60.5t3 37v80q0 66 -1 151.5t-3 168.5t-3 152.5t-1 100.5v90q123 0 243.5 15.5t243.5 15.5q88 0 162 -20.5t126 -64.5t81.5 -112.5t29.5 -162.5q0 -145 -62 -247t-161.5 -169.5t-222.5 -106.5t-244 -57q-47 -8 -106.5 -28.5 t-106.5 -20.5zM281 696l12 -430q172 0 263 67.5t91 231.5q0 68 -22.5 100.5t-61.5 45t-92 12.5h-117h-26q-29 0 -38 -5t-9 -22z" />
<glyph unicode="E" horiz-adv-x="782" d="M12 569q0 94 28 163t77 113t116.5 64.5t149.5 20.5q57 0 103 -4t90.5 -10.5t90.5 -10.5t103 -4v-88q0 -23 -5 -56.5t-5 -86.5q-74 23 -104.5 37t-45.5 14q-8 0 -14 2l-135 14q-53 0 -79 -2t-37 -14t-12 -39t-5 -74q39 -2 66.5 -6t54 -7t54 -6t64.5 -3h25 q-18 -98 -20.5 -139t-2.5 -58v-18l-235 18q16 -35 31.5 -57.5t40 -41t62.5 -33.5t99 -34l193 -30l-19 -211q0 -2 1 -13.5t1 -13.5q-43 0 -78.5 14.5t-80.5 20.5q-113 18 -216.5 57t-182.5 107.5t-126 170t-47 244.5z" />
<glyph unicode="F" horiz-adv-x="731" d="M12 987h117q23 2 70 5t105 8.5t121.5 10.5t121 9t103.5 8l69 6v-12q0 -10 -3 -40t-7 -67.5t-11.5 -79.5t-16.5 -79t-19.5 -63.5t-20.5 -33.5q-14 78 -58 99.5t-116 21.5q-16 0 -46 1t-58.5 -5t-47 -21.5t-14.5 -47.5q-4 -39 -11 -81t-7 -81q0 -6 1 -23.5t1 -21.5 q94 0 168.5 10t169.5 10h22l-35 -317l-4 -1t-6 -1t-8 1l-6 1q-4 4 -14.5 14t-21.5 20.5t-21.5 20.5t-12.5 14h-233l-13 -364l-237 -94v12q0 94 5 184t10 179.5t10 179.5t5 186v90q0 39 -1 82t-1 78t-1 59.5t-1 28.5z" />
<glyph unicode="G" horiz-adv-x="905" d="M12 360q0 109 46 198t118 162t162 127t176 95q2 2 12.5 6t21.5 7t21.5 6.5t14.5 5.5h12q12 0 37.5 -29t51.5 -65.5t46.5 -71.5t20.5 -47q0 -2 -34 -12.5t-84 -28t-109.5 -42t-109.5 -56t-84 -70.5t-34 -84q0 -29 19.5 -60.5t49 -58.5t62.5 -44t57 -17q49 0 72 50 t35 110.5t18 110.5t21 50q14 0 57 -6t89 -17.5t81 -25.5t35 -33q0 -2 -1 -7l-1 -5q-12 -25 -29.5 -72t-38 -103.5t-45 -115.5t-51.5 -108.5t-54.5 -80t-54.5 -30.5q-47 0 -109.5 10t-130 30.5t-133 50.5t-117.5 71t-84 91t-32 109z" />
<glyph unicode="H" horiz-adv-x="862" d="M12 -4q25 0 63 4t75.5 15.5t66.5 31t35 47.5l55 275q0 4 9.5 12t15.5 10q2 0 24.5 1t51 2t57.5 3t43 4h12q25 0 38 2.5t20.5 -1t9.5 -12.5t2 -30q0 -49 -9.5 -95t-19.5 -90t-19.5 -90t-9.5 -95q4 0 25 4t25 6q12 4 39.5 16.5t58.5 27.5t56.5 29.5t33.5 20.5 q41 193 56.5 389.5t15.5 388.5q0 12 -9.5 46t-15.5 49h-20q-14 0 -31.5 1t-32.5 1h-22q-14 0 -35 1h-14q-14 0 -28 -1q-22 -2 -41.5 -7.5t-33.5 -19.5q20 -49 22.5 -91t2.5 -97q0 -12 -1 -47t-1 -48q-10 -29 -33 -46t-51.5 -27.5t-60 -13.5t-62.5 -3h-76v303h-258 q-6 0 -15.5 -10t-9.5 -14t10.5 -23.5t14.5 -23.5q4 -8 12 -35t10 -35v-41q0 -29 1.5 -60.5t1.5 -60.5v-39q0 -68 -8.5 -135t-18.5 -134.5t-18.5 -134.5t-8.5 -130z" />
<glyph unicode="I" horiz-adv-x="387" d="M33 -59q2 0 14 1t14 5l48 22q8 4 35.5 15.5t59.5 23.5t59.5 23.5t35.5 15.5v72q2 27 6 80t8 120.5t9.5 141.5t9.5 141.5t8 120.5t6 78q-2 4 -10 12l-12 12h-13q-18 0 -60 -6t-84 -17t-75 -28.5t-33 -38.5q0 -2 1 -7l1 -5q2 -4 10.5 -12.5t12.5 -10.5v-41q0 -29 2 -60.5 t2 -59.5v-39q0 -72 -8 -141.5t-19.5 -138t-19.5 -138.5t-8 -141zM35 969q0 -6 9 -12.5t15 -12.5h13h10q12 2 43 9.5t64.5 14.5t63.5 14t42 9q18 8 21 20.5t3 28.5q0 55 -43 76t-88 21q-72 0 -112.5 -48t-40.5 -120z" />
<glyph unicode="J" horiz-adv-x="456" d="M-246 -238q0 23 12.5 50.5t29 54.5t33 50.5t26.5 37.5l10 2q8 0 23.5 1t33 3t31.5 1t22 -3h13q41 0 75.5 36t57.5 79q25 80 37 154.5t15 149.5q2 56 2 113v37q-1 76 -1 160q0 27 -7 43.5t-16.5 29.5t-16.5 25.5t-7 32.5q0 2 1 6t1 6q10 0 37 3.5t56.5 7.5t57 7t37.5 5 q2 0 14.5 2t27 4t25.5 4t13 2h13h12q4 -2 12 -10t10 -12q-27 -186 -34 -360.5t-7 -364.5q0 -80 -10 -122t-37.5 -67.5t-78 -43t-130.5 -48.5q-55 -20 -96 -34.5t-82 -23.5t-91 -13.5t-124 -4.5zM115 1036q0 174 172 174q45 0 74.5 -16t29.5 -68q0 -6 -1 -18t-1 -18 q-47 -33 -83 -45.5t-66 -14.5q-11 -1 -21 -1q-20 0 -39 3q-30 4 -65 4z" />
<glyph unicode="K" horiz-adv-x="849" d="M12 842q0 2 1 5t1 5q35 8 63.5 13t54.5 8.5t52.5 4.5t57.5 1q8 0 20 1t24.5 -1t21.5 -7.5t11 -19.5q-2 -8 -6 -28.5t-8 -43t-7 -44t-3 -29.5q0 -4 1 -19.5t1 -21.5q41 0 78 24.5t63 62.5t40 83q9 30 9 58q0 15 -2 30q57 12 119 18t121 6q0 -47 -28.5 -98t-67.5 -99.5 t-79 -89t-65 -67.5q0 -2 -1 -10.5t-1 -14.5q0 -20 21.5 -63t55.5 -97.5t75 -112.5t80 -106.5t71.5 -80t51.5 -33.5q-59 -35 -125 -65.5t-135 -30.5q-6 0 -14 1l-9 1l-270 376v-260q0 -2 -13.5 -10t-21.5 -12l-189 -94q-20 6 -22 17.5t-2 27.5q0 121 13 236.5t13 236.5v51 q0 37 -1 79t-1 77v51q-4 8 -11 18t-16 22.5t-15.5 24t-6.5 19.5z" />
<glyph unicode="L" horiz-adv-x="710" d="M12 848q76 20 153 25.5t152 5.5l7 -676q0 -18 30.5 -22.5t53.5 -4.5h18q33 0 64.5 7t62.5 16.5t61.5 17.5t61.5 8q6 0 15 -9t9 -13q0 -6 -9 -22.5t-15 -24.5q-6 -10 -19.5 -36t-26 -52.5t-21.5 -47.5l-9 -20h-520q0 141 13 279.5t13 279.5q0 31 2 77v15q0 38 -6 76 q-8 45 -27.5 80t-62.5 41z" />
<glyph unicode="M" horiz-adv-x="1351" d="M12 82q0 8 18.5 69.5t47 149.5t61.5 188.5t63.5 185.5t52 141t26.5 56l202 25l162 -485q2 -4 10.5 -12.5t14.5 -10.5l4 -1t6 -1q14 0 34.5 32t42 82t45 112.5t45 125t39 116.5t29.5 87q6 12 14.5 29.5t10.5 17.5h203q4 -115 4 -244t14.5 -258t54 -248.5t123.5 -213.5 q-2 -14 -15 -21q-14 -6 -30 -7q-8 0 -16 -1q-6 0 -14 1q-14 1 -19 1q-102 0 -145 21.5t-58.5 57.5t-16.5 82t-15 95q-8 31 -13.5 53.5t-12.5 42t-19 39.5t-35 47q-43 -82 -67.5 -156.5t-58.5 -131t-88 -90t-155 -33.5q-14 0 -26.5 1t-18.5 21q-6 23 -23.5 80t-36 121.5 t-34.5 121t-25 79.5q-4 18 -9 25t-26 22q-33 -150 -56 -239t-44.5 -137t-42 -61.5t-48.5 -10.5t-65.5 16.5t-93.5 17.5z" />
<glyph unicode="N" horiz-adv-x="946" d="M12 66q0 96 5.5 189t10.5 187.5t8 188.5q2 56 2 115q0 39 -1 79q18 4 47 15.5t59.5 24t59 21.5t47.5 9q2 0 10 -9t12 -14l119 -235l141 -213q6 -10 18.5 -26.5t23 -32t19.5 -25.5l9 -10h25q2 0 12 48t21.5 115.5t21.5 140.5t14 120q0 12 2 41.5t4.5 63.5t4.5 64.5t2 43.5 h200q4 0 11.5 -10.5t11.5 -14.5l2 -5t2 -7t-2 -5t-2 -5q-6 -29 -19.5 -87.5t-29 -133t-32.5 -156.5t-33.5 -157t-30 -133t-19.5 -87q-4 -10 -11 -33.5t-14.5 -49.5t-13.5 -50.5t-8 -32.5q-8 0 -29.5 -1t-29.5 -1q-61 0 -105.5 27.5t-80.5 70.5t-64.5 96.5t-57 106.5 t-59.5 99t-70 73q-10 -41 -12 -89t-1 -99v-99q0 -47 -3 -86q-6 -18 -31.5 -25t-56.5 -9.5t-61.5 0t-47.5 2.5z" />
<glyph unicode="O" d="M12 360q0 -23 6.5 -45t10.5 -32q14 -61 62 -112.5t111.5 -90.5t133.5 -60.5t129 -21.5q88 0 165 44t133 114.5t88 157.5t32 173q0 68 -34 141.5t-86 137t-117.5 104.5t-129.5 41h-45q-20 -2 -42.5 -5t-41 -7t-31 -8t-12.5 -8q-76 -37 -136.5 -74t-103.5 -84t-65.5 -108.5 t-22.5 -149.5q-2 -8 -3 -40t-1 -67zM225 477q0 35 22.5 71t57.5 64.5t75 46t75 17.5q4 0 17 -1t17 -1q10 -4 28 -14.5t34 -22.5t30.5 -25.5t18.5 -21.5q0 -2 6 -18.5t13.5 -37t13.5 -39t6 -24.5q0 -94 -57.5 -161.5t-132.5 -104.5q-63 12 -108.5 40.5t-73 66.5t-37.5 81 q-7 27 -7 54q0 15 2 30zM336 393l3 -10t19 -19q14 -10 46 -13q7 -1 16 -1q29 0 74 8q8 2 17 16.5t16.5 32t12.5 34t4 24.5q0 47 -36.5 65.5t-71.5 18.5q-59 0 -79.5 -47.5t-20.5 -108.5z" />
<glyph unicode="P" horiz-adv-x="663" d="M12 -4q0 80 8.5 157.5t18.5 156.5t18.5 158t8.5 159v32q0 31 -2.5 61t-2.5 34l-47 94q63 6 117.5 11t107 8t103.5 5t109 2q109 0 157 -40q46 -39 45 -141v-9q-2 -94 -27.5 -153.5t-64.5 -95.5t-86 -54.5t-90 -31.5t-76 -25.5t-45 -36.5q-24 -49 -26 -89q-1 -17 -1 -33 q0 -21 1 -39q2 -32 1 -56.5t-20.5 -41t-68 -24.5t-138.5 -8zM270 502q0 -4 9.5 -14.5t15.5 -10.5q25 0 50.5 16.5t47 41t34.5 52t13 52.5q0 12 -10 28.5t-24 32.5q-14 15 -32 24q-14 7 -25 7h-5q-10 -4 -27.5 -21.5t-19.5 -25.5z" />
<glyph unicode="Q" horiz-adv-x="985" d="M29 440q0 -82 24.5 -138t69.5 -97t105.5 -74t131.5 -65q25 -12 72 -47t95 -71t87 -64.5t48 -28.5h28q16 0 56 3t85.5 6t85 7t56.5 6q-51 61 -127 117.5t-133 118.5q100 78 157.5 167t57.5 212q0 86 -32 158.5t-86 126.5t-128 85t-158 31q-90 0 -178 -35t-158.5 -96.5 t-114.5 -144.5t-44 -177zM283 436q0 33 22.5 72t56 72.5t74.5 56t76 22.5q31 0 62.5 -18t58 -45t43 -59.5t16.5 -59.5q0 -35 -15 -73.5t-42 -72.5t-59.5 -56.5t-69.5 -22.5t-76 14.5t-71.5 39t-54 58t-21.5 72.5zM393 408l3 -10q3 -11 18.5 -20t47.5 -12q8 -1 17 -1 q29 0 72 8q8 2 17.5 16t16.5 31.5t12 34t5 24.5q0 47 -37 65.5t-71 18.5q-59 0 -80 -47t-21 -108z" />
<glyph unicode="R" horiz-adv-x="811" d="M23 872q49 -57 60 -112t11 -127q0 -74 -8 -146.5t-17.5 -145.5t-16.5 -143.5t-7 -138.5v-12q2 -4 10 -12t15 -10h12h10q12 2 45 14t68 29.5t61.5 37t26.5 35.5v189q49 -16 79.5 -70.5t59.5 -113t63.5 -103.5t92.5 -45q16 0 48 13.5t65.5 32.5t61.5 39.5t36 35.5 q-41 8 -87 48t-84 92t-62.5 106.5t-24.5 93.5q0 23 22.5 51.5t49 63t49 76.5t22.5 91q0 78 -37 120t-131 59q-6 0 -30.5 -4.5t-52 -8.5t-51.5 -8t-30 -4q-18 -2 -65 -6t-99.5 -7t-99.5 -6.5t-65 -3.5zM328 565v191q16 0 38.5 -4t44 -13.5t38 -23t20.5 -31.5v-6q0 -16 -8 -37 q-10 -25 -27.5 -46.5t-39 -36.5t-42.5 -15q-6 0 -15 9t-9 13z" />
<glyph unicode="S" horiz-adv-x="659" d="M2 -8q0 8 8 22q10 20 14.5 24.5t26.5 24.5q14 14 32.5 33t36 36.5t30 29.5t16.5 18q16 20 39.5 54t46 68t39 59.5t16.5 29.5v47q-37 14 -83 32.5t-86 45.5t-67.5 63.5t-27.5 86.5q0 12 2 32.5t4 22.5q2 4 16.5 20.5t33 35t38 36.5t29.5 27q23 18 57.5 42.5t68.5 47 t58 38.5q22 14 28 13h1l164 -166l1 -3t1 -7q0 -16 -29 -34.5t-65.5 -37t-71.5 -35t-47 -24.5l282 -142q2 -2 10.5 -19t12.5 -28v-10q0 -18 -24.5 -64t-63.5 -105.5t-86 -123t-91 -117t-80 -88t-52 -34.5q-18 0 -57.5 4t-79.5 10t-70.5 15.5t-30.5 19.5z" />
<glyph unicode="T" horiz-adv-x="739" d="M12 694h189l2 -24q2 -25 4 -61t3 -74.5t-1 -63.5q0 -10 -3 -41t-7 -72t-10.5 -88t-11.5 -88t-9 -71.5t-6 -38.5v-17q0 -12 -1 -24.5t-1 -24.5v-12q6 0 25.5 2t23.5 4q18 6 49 17.5t60.5 22.5t50 20.5t20.5 11.5l74 635h217q6 0 14 9t11 15q2 8 6 30.5t7 49.5t6 50.5 t3 33.5q-20 20 -32.5 22.5t-35.5 2.5h-26q-6 0 -30.5 -4.5t-52.5 -8.5t-51.5 -8t-29.5 -4q-23 0 -83 -1t-130 -1q-68 0 -128 1t-83 1q-6 -4 -15.5 -21.5t-9.5 -25.5q-2 -18 -3 -44t-2 -50.5t-2 -41.5z" />
<glyph unicode="U" horiz-adv-x="952" d="M25 700q8 14 23 16.5t30 2.5q16 0 30.5 2t22.5 20l156 9q2 -29 3 -73t7 -94.5t15.5 -101.5t27.5 -93t45 -69.5t68 -29.5q29 0 55.5 13t48 34.5t35.5 46.5t20 47q16 70 26.5 112t15.5 81t6.5 85t1.5 123q6 4 23 13.5t24 9.5q8 0 41.5 -1t71.5 -2t72 -2t44 -1q2 -40 1 -80 q-1 -135 -21 -262q-28 -164 -98 -284t-188 -182q-82 -44 -191 -44q-47 0 -99 8h-13q-64 0 -110 36q-51 40 -86 104.5t-54.5 146.5t-30.5 160.5t-16 145t-7 103.5z" />
<glyph unicode="V" horiz-adv-x="925" d="M14 764q0 -6 1 -14.5t1 -10.5q0 -4 6.5 -21.5t14.5 -38t16 -36.5l10 -20q6 -18 20.5 -62.5t30 -93.5t28 -92t16.5 -60q20 -80 30.5 -142t33 -103t71.5 -62.5t147 -21.5h25q37 113 89 232.5t114.5 238t131 232.5t136.5 216v51q-72 0 -143.5 -4t-139.5 -24 q-14 -63 -54 -155.5t-86 -181.5t-88 -157.5t-60 -85.5q-35 57 -52.5 124t-23.5 135.5t-7 138t-6 135.5q-72 -12 -131 -40t-129 -55q0 -2 -1 -10t-1 -12z" />
<glyph unicode="W" horiz-adv-x="1323" d="M-16 897q2 14 15 20.5t29 7.5q8 0 16 0.5t16 -0.5q14 -1 18 -1q100 0 145 -21.5t60.5 -57.5t15.5 -83t14 -96q8 -31 13.5 -53.5t12.5 -42t19 -40t35 -45.5q43 82 67.5 157t58.5 131t89.5 90t155.5 34q14 0 25.5 -2t17.5 -21q8 -23 24.5 -80t35 -121.5t36 -120.5t23.5 -79 q4 -18 15 -37.5t32 -32.5q35 137 58.5 223.5t43 135.5t39 66.5t46 19.5t62 -4t91.5 -6q0 -8 -18.5 -69.5t-47 -149t-62.5 -187.5t-63.5 -185t-52 -141.5t-27.5 -56.5l-200 -24l-168 450q-2 6 -10.5 14.5t-14.5 10.5l-4 1t-6 1q-14 0 -33.5 -30t-42 -77t-45 -105.5 t-43 -115.5t-38 -109.5t-29.5 -84.5q-4 -12 -12.5 -30t-12.5 -18h-201q-31 113 -45 243t-29.5 258t-41 248t-82.5 216z" />
<glyph unicode="X" horiz-adv-x="937" d="M-90 -102q16 27 44 37t46 32q31 39 77 97.5t90 119t74.5 112.5t30.5 83v51q0 2 -12 23.5t-30.5 51.5t-39 61.5t-34.5 49.5q-16 18 -30.5 23.5t-43.5 9.5l223 203l109 -246h16l12 24q11 25 27 61t36.5 76t39.5 69q10 14 9 28.5t-1 28.5q0 12 2 24.5t-10 22.5q25 -2 67 -2 q43 0 88 1t86 3t64 4q-6 -8 -31.5 -53t-55.5 -98.5t-55.5 -99.5t-31.5 -54q-31 -41 -42 -79t-11 -75q0 -20 17 -55t45 -75t61.5 -82t66.5 -77.5t60.5 -60t41.5 -31.5q-6 0 -36.5 -5t-64.5 -11t-63.5 -12t-35.5 -8l-19 -4q-18 -3 -39.5 -6t-39 -5t-19.5 -2q-4 0 -17.5 13.5 t-19.5 23.5q-10 12 -23.5 31.5t-26.5 40t-25.5 41t-20.5 35.5l-14 -7l-177 -266q-8 -16 -57 -27.5t-108.5 -18.5t-112.5 -12t-68 -9h-10h-8z" />
<glyph unicode="Y" horiz-adv-x="1128" d="M8 840q27 -23 58.5 -66t64.5 -97t64.5 -114.5t60.5 -115t53.5 -98.5t40.5 -66v-62l-18 -21q-19 -20 -45.5 -49.5t-55 -63.5t-49.5 -60q-12 -16 -48 -59.5t-77 -94.5q-12 -12 -17 -21.5t-8 -18.5t-7.5 -20.5t-12.5 -25.5q13 -6 30 -6q7 0 14 1q26 3 51.5 10t49 15.5 t36.5 10.5q20 4 39.5 6t37.5 2q59 0 102.5 10t67.5 55l332 488q45 57 91 128t91 148.5t86 157.5t76 158q-106 -25 -188 -37t-148 -33q-18 -4 -14 -19.5t-6 -31.5q-23 -35 -54.5 -91.5t-62.5 -110.5t-53 -94l-21 -40h-20l-197 381z" />
<glyph unicode="Z" horiz-adv-x="944" d="M12 0q14 18 47 56t69 81t67.5 82t46.5 57q33 37 65.5 61.5t32.5 29.5v22h-23h-204q0 14 14 43t32.5 56.5t34 49t19.5 23.5q12 -12 20.5 -15t30.5 -3l49 -2q12 0 47 1t48 1q25 18 53 33.5t52 34t39 42t15 58.5q-79 0 -143 1h-25q-51 0 -101 -3q-62 -4 -124.5 -16.5 t-132.5 -41.5l152 262h710q0 -53 -28.5 -96t-67.5 -83l-78 -80t-59 -85l229 -8l-74 -227q-14 27 -24 36t-23.5 10t-32 -4t-47.5 -5l-88 -2l-151 -148q0 -2 -1 -5t-1 -7q0 -2 1 -6l1 -4q2 -6 12 -15.5t12 -9.5l308 25q35 0 77.5 24.5t63.5 44.5q-6 -18 -23.5 -62t-38 -90 t-42 -81t-40.5 -35h-776z" />
<glyph unicode="[" horiz-adv-x="610" d="M20 467l338 430q4 4 41 4q27 0 63 -2t68.5 -4t57 -4t28.5 -2q-23 -10 -67.5 -68.5t-90.5 -131.5t-80 -142.5t-34 -102.5l6 -34q2 -8 18.5 -40t40 -76t52 -95.5t54.5 -94.5t45.5 -74.5t23.5 -35.5q-16 2 -44 3t-61 2t-67.5 2t-65.5 1h-39t-28 -2q12 10 10 22.5t-2 24.5 q0 14 1 28.5t-9 28.5z" />
<glyph unicode="\" horiz-adv-x="827" d="M-27 885l529 -826q6 -29 49 -50t96 -35.5t105.5 -20.5t76.5 -6l-546 946q-14 14 -35 19.5t-42.5 7.5t-41 1t-33.5 -1h-22q-14 0 -32 -1t-32 -1h-20q-4 -6 -13.5 -10.5t-18.5 -7.5t-16.5 -6t-3.5 -9z" />
<glyph unicode="]" horiz-adv-x="610" d="M18 889q23 -10 68 -68.5t91 -131.5t80 -142.5t34 -102.5l-6 -34q-2 -8 -18.5 -40t-41 -76t-52.5 -95.5t-53.5 -94.5t-45 -74.5t-23.5 -35.5q16 2 44 3t60.5 2t67.5 2t66 1h39t28 -2q-12 10 -10 22.5t2 24.5q0 14 -1 28.5t9 28.5l258 363l-338 430q-4 4 -43 4 q-25 0 -60.5 -2t-68 -4t-57 -4t-29.5 -2z" />
<glyph unicode="^" horiz-adv-x="909" d="M14 -14q72 0 143.5 4t139.5 24q14 63 54 155.5t86 181.5t88 158t61 85q35 -59 52 -125t23.5 -134.5t7.5 -138t5 -135.5q72 12 131 40t129 55q0 2 1 10t1 12q0 6 -1 14.5t-1 10.5q0 4 -6 21.5t-14.5 38t-16.5 36.5l-10 20q-6 18 -20.5 62.5t-30 93.5t-27.5 92t-16 60 q-20 80 -30.5 142t-33 103t-72 62.5t-147.5 21.5h-25q-37 -113 -89 -232.5t-114.5 -238t-131 -233.5t-136.5 -215v-51z" />
<glyph unicode="_" horiz-adv-x="716" d="M20 -10q0 23 1.5 30t2.5 20t2 43.5t1 102.5q76 -10 123 -15t83 -5q37 0 71 2t81 5t116.5 6t178.5 3h22l-30 -194l-4 -1t-6 -1l-16 1q-15 1 -30 1h-14l-356 2q-18 -14 -45 -17.5t-54.5 -2.5t-54 4t-43.5 3q-29 0 -29 13z" />
<glyph unicode="`" horiz-adv-x="296" d="M27 895q0 47 6 62.5t41 15.5q31 0 62.5 -15.5t59 -39t45 -54t17.5 -61.5l6 -9q6 -10 2 -17t-25.5 -10t-78.5 7q-8 2 -30.5 18.5t-45.5 37t-41 39t-18 26.5z" />
<glyph unicode="a" horiz-adv-x="1003" d="M-12 8l331 553q10 39 32 84t45.5 90t46 89t36.5 83h213q12 -45 31.5 -115.5t44.5 -152.5t52.5 -169t55 -163t54 -134t47.5 -83l55 -65q-10 -2 -47 -4.5t-80 -3.5t-81 -2t-50 -1h-14q-23 0 -37 24.5t-18 37.5q-14 29 -20.5 46t-20.5 48l-23 23h-235q-29 0 -41.5 -29 t-29 -66t-50 -69.5t-107.5 -40.5h-16q-35 0 -88.5 6t-85.5 14zM422 406q4 0 22.5 -1.5t24.5 -1.5h37q33 0 57.5 9.5t24.5 40.5v32q0 33 -10 64t-39 41q-4 -8 -17.5 -28.5t-30 -43t-29.5 -43t-18 -29.5q-4 -4 -12 -20z" />
<glyph unicode="b" horiz-adv-x="862" d="M12 899q86 6 149.5 10t119 7.5t112 4.5t129.5 1h144q68 -18 80 -47t12 -64v-8q0 -88 -51.5 -146.5t-143.5 -105.5v-21q59 -8 111.5 -24.5t91.5 -42t61.5 -62t22.5 -86.5q0 -78 -42 -126t-109.5 -77.5t-153.5 -45t-175 -24.5t-173 -17.5t-148 -24.5v20q0 111 15.5 219.5 t15.5 221.5q0 31 4 82t4 104q0 35 -4 73t-13.5 72.5t-23.5 62.5t-35 44zM285 705q0 -10 4 -17.5t8 -18t8 -25.5t4 -42q78 0 128 38t50 91q0 27 -17 34t-46 7q-23 0 -31 -4t-39 -4l-57 -6q-8 -20 -10 -33.5t-2 -19.5zM289 309q0 -29 5 -48t17 -23q31 -6 66 -7q35 0 68.5 6.5 t61.5 18.5t45 30.5t17 41.5l-2 12q-10 47 -28.5 59.5t-55.5 12.5q-23 0 -55 2h-12q-27 0 -60 -6l-49 -11q-4 -16 -11 -39.5t-7 -48.5z" />
<glyph unicode="c" horiz-adv-x="684" d="M23 481q0 39 23.5 89.5t61 102.5t86 102t99.5 89t101 63.5t89 24.5q6 0 13.5 -2t9.5 -2l127 -141q-51 -20 -105.5 -47t-99.5 -65t-74.5 -87t-29.5 -112q0 -53 38.5 -103.5t92 -92.5t110 -76t90.5 -54v-35q0 -12 -2 -42t-8 -60.5t-17.5 -54t-29.5 -23.5q-4 0 -7 1t-5 1 q-68 39 -165 93t-185.5 121t-150.5 144.5t-62 165.5z" />
<glyph unicode="d" horiz-adv-x="925" d="M12 -49q0 2 1 12t1 12q0 6 3 34t8.5 59.5t8.5 60.5t3 37v80q0 66 -1 151.5t-3 168.5t-3 152.5t-1 100.5v90q123 0 243.5 15.5t243.5 15.5q88 0 162 -20.5t126 -64.5t81.5 -112.5t29.5 -162.5q0 -145 -62 -247t-161.5 -169.5t-222.5 -106.5t-244 -57q-47 -8 -106.5 -28.5 t-106.5 -20.5zM281 696l12 -430q172 0 263 67.5t91 231.5q0 68 -22.5 100.5t-61.5 45t-92 12.5h-117h-26q-29 0 -38 -5t-9 -22z" />
<glyph unicode="e" horiz-adv-x="690" d="M27 485q-1 8 -1 16q0 69 46 143q51 83 129 152.5t166 114.5t153 45q6 0 13.5 -2t9.5 -2l94 -141q-41 -16 -87 -39.5t-89 -53.5t-78 -67t-53 -78q20 4 74.5 9.5t177.5 5.5h22l-2 -226l-4 -1t-6 -1l-16 1q-15 1 -29 1h-15l-170 9q29 -31 71 -60.5t84 -55.5t81 -46.5 t61 -34.5v-35q0 -12 -2 -41.5t-8 -60.5t-17 -54.5t-30 -23.5q-4 0 -7 1t-5 1q-68 39 -165 93.5t-185 121t-150.5 144t-62.5 165.5z" />
<glyph unicode="f" horiz-adv-x="731" d="M10 934h117q23 2 70 5t105 8t121.5 10.5t121 9.5t103.5 8l69 6v-12q0 -10 -3 -40t-7.5 -68t-11.5 -80t-16 -78.5t-19.5 -63.5t-20.5 -33q-14 78 -58 99.5t-116 21.5q-16 0 -46 1t-58.5 -5t-47 -21.5t-14.5 -48.5q-4 -39 -11 -81t-7 -80q0 -6 1 -23.5t1 -22.5 q94 0 168.5 10.5t169.5 10.5h22l-35 -317l-4 -2q-4 -1 -6 -1t-8 1l-6 2q-4 4 -14.5 14t-21.5 20.5t-21.5 20.5t-12.5 14h-233l-11 -311l-237 -94v12q0 94 4 176t10 161t10 161t4 178v90q0 39 -1 82t-1 78t-1 59.5t-1 28.5z" />
<glyph unicode="g" horiz-adv-x="905" d="M12 360q0 109 46 198t118 162t162 127t176 95q2 2 12.5 6t21.5 7t21.5 6.5t14.5 5.5h12q12 0 37.5 -29t51.5 -65.5t46.5 -71.5t20.5 -47q0 -2 -34 -12.5t-84 -28t-109.5 -42t-109.5 -56t-84 -70.5t-34 -84q0 -29 19.5 -60.5t49 -58.5t62.5 -44t57 -17q49 0 72 50 t35 110.5t18 110.5t21 50q14 0 57 -6t89 -17.5t81 -25.5t35 -33q0 -2 -1 -7l-1 -5q-12 -25 -29.5 -72t-38 -103.5t-45 -115.5t-51.5 -108.5t-54.5 -80t-54.5 -30.5q-47 0 -109.5 10t-130 30.5t-133 50.5t-117.5 71t-84 91t-32 109z" />
<glyph unicode="h" horiz-adv-x="862" d="M12 -4q25 0 63 4t75.5 15.5t66.5 31t35 47.5l55 275q0 4 9.5 12t15.5 10q2 0 24.5 1t51 2t57.5 3t43 4h12q25 0 38 2.5t20.5 -1t9.5 -12.5t2 -30q0 -49 -9.5 -95t-19.5 -90t-19.5 -90t-9.5 -95q4 0 25 4t25 6q12 4 39.5 16.5t58.5 27.5t56.5 29.5t33.5 20.5 q41 193 56.5 389.5t15.5 388.5q0 12 -9.5 46t-15.5 49h-20q-14 0 -31.5 1t-32.5 1h-22q-14 0 -35 1h-14q-14 0 -28 -1q-22 -2 -41.5 -7.5t-33.5 -19.5q20 -49 22.5 -91t2.5 -97q0 -12 -1 -47t-1 -48q-10 -29 -33 -46t-51.5 -27.5t-60 -13.5t-62.5 -3h-76v303h-258 q-6 0 -15.5 -10t-9.5 -14t10.5 -23.5t14.5 -23.5q4 -8 12 -35t10 -35v-41q0 -29 1.5 -60.5t1.5 -60.5v-39q0 -68 -8.5 -135t-18.5 -134.5t-18.5 -134.5t-8.5 -130z" />
<glyph unicode="i" horiz-adv-x="413" d="M33 -59q0 72 8 141.5t19.5 138t19.5 138t8 141.5v39q0 29 -2 60.5t-2 59.5v41q-4 2 -12.5 10.5t-10.5 12.5l-1 5t-1 7q0 20 33 38t75 29t84 17t60 6h13l12 -12t10 -12q-2 -25 -6 -78t-8 -120.5t-9.5 -141.5t-9.5 -141.5t-8 -121t-6 -79.5v-72q-8 -4 -35.5 -15.5 t-59.5 -23.5t-59.5 -23.5t-35.5 -15.5l-48 -22q-2 -4 -14 -5t-14 -1zM35 969q0 72 41 120t112 48q45 0 88 -20.5t43 -76.5q0 -16 -3 -28.5t-21 -20.5q-10 -10 -39 -20t-62.5 -17.5t-65.5 -10.5q-14 -1 -24 -1q-14 0 -22 2h-10h-13q-6 6 -15 12.5t-9 12.5z" />
<glyph unicode="j" horiz-adv-x="456" d="M-246 -238q0 23 12.5 50.5t29 54.5t33 50.5t26.5 37.5l10 2q8 0 23.5 1t33 3t31.5 1t22 -3h13q41 0 75.5 36t57.5 79q25 80 37 154.5t15 149.5q2 56 2 113v37q-1 76 -1 160q0 27 -7 43.5t-16.5 29.5t-16.5 25.5t-7 32.5q0 2 1 6t1 6q10 0 37 3.5t56.5 7.5t57 7t37.5 5 q2 0 14.5 2t27 4t25.5 4t13 2h13h12q4 -2 12 -10t10 -12q-27 -186 -34 -360.5t-7 -364.5q0 -80 -13 -120t-44 -64.5t-80 -43t-119 -53.5q-53 -27 -93 -42t-83 -22t-93 -9.5t-124 -2.5zM115 1036q0 174 172 174q45 0 74.5 -16t29.5 -68q0 -6 -1 -18t-1 -18q-47 -33 -83 -45.5 t-66 -14.5q-11 -1 -21 -1q-20 0 -39 3q-30 4 -65 4z" />
<glyph unicode="k" horiz-adv-x="849" d="M12 842q0 2 1 5t1 5q35 8 63.5 13t54.5 8.5t52.5 4.5t57.5 1q8 0 20 1t24.5 -1t21.5 -7.5t11 -19.5q-2 -8 -6 -28.5t-8 -43t-7 -44t-3 -29.5q0 -4 1 -19.5t1 -21.5q41 0 78 24.5t63 62.5t40 83q9 30 9 58q0 15 -2 30q57 12 119 18t121 6q0 -47 -28.5 -98t-67.5 -99.5 t-79 -89t-65 -67.5q0 -2 -1 -10.5t-1 -14.5q0 -20 21.5 -63t55.5 -97.5t75 -112.5t80 -106.5t71.5 -80t51.5 -33.5q-59 -35 -125 -65.5t-135 -30.5q-6 0 -14 1l-9 1l-270 376v-260q0 -2 -13.5 -10t-21.5 -12l-189 -94q-20 6 -22 17.5t-2 27.5q0 121 13 236.5t13 236.5v51 q0 37 -1 79t-1 77v51q-4 8 -11 18t-16 22.5t-15.5 24t-6.5 19.5z" />
<glyph unicode="l" horiz-adv-x="710" d="M12 848q76 20 153 25.5t152 5.5l7 -676q0 -18 30.5 -22.5t53.5 -4.5h18q33 0 64.5 7t62.5 16.5t61.5 17.5t61.5 8q6 0 15 -9t9 -13q0 -6 -9 -22.5t-15 -24.5q-6 -10 -19.5 -36t-26 -52.5t-21.5 -47.5l-9 -20h-520q0 141 13 279.5t13 279.5q0 31 2 77v15q0 38 -6 76 q-8 45 -27.5 80t-62.5 41z" />
<glyph unicode="m" horiz-adv-x="1351" d="M12 82q0 8 18.5 69.5t47 149.5t61.5 188.5t63.5 185.5t52 141t26.5 56l202 25l162 -485q2 -4 10.5 -12.5t14.5 -10.5l4 -1t6 -1q14 0 34.5 32t42 82t45 112.5t45 125t39 116.5t29.5 87q6 12 14.5 29.5t10.5 17.5h203q4 -115 4 -244t14.5 -258t54 -248.5t123.5 -213.5 q-2 -14 -15 -21q-14 -6 -30 -7q-8 0 -16 -1q-6 0 -14 1q-14 1 -19 1q-102 0 -145 21.5t-58.5 57.5t-16.5 82t-15 95q-8 31 -13.5 53.5t-12.5 42t-19 39.5t-35 47q-43 -82 -67.5 -156.5t-58.5 -131t-88 -90t-155 -33.5q-14 0 -26.5 1t-18.5 21q-6 23 -23.5 80t-36 121.5 t-34.5 121t-25 79.5q-4 18 -9 25t-26 22q-33 -150 -56 -239t-44.5 -137t-42 -61.5t-48.5 -10.5t-65.5 16.5t-93.5 17.5z" />
<glyph unicode="n" horiz-adv-x="948" d="M29 66q16 0 46.5 -2.5t61.5 0t56.5 9.5t31.5 25q2 20 2 41v45v99q0 51 2.5 99t12.5 89q39 -27 70.5 -73t59 -98t56.5 -106.5t63.5 -97.5t79.5 -70.5t107 -27.5q8 0 29.5 1t29.5 1q2 10 8.5 33.5t13.5 49.5t14 49.5t11 33.5q6 29 19.5 87t29 133t34 157t33.5 156.5 t28.5 133t19.5 87.5q0 2 2 5t2 5t-2 7l-2 5q-4 4 -11 14.5t-11 10.5h-201q0 -12 -2 -43t-4 -65t-4 -63.5t-2 -41.5q-4 -47 -14.5 -120t-21.5 -140.5t-21.5 -115.5t-12.5 -48h-25l-9 10t-19 25.5t-22.5 32t-18.5 26.5l-141 213l-119 235q-4 4 -12.5 13.5t-10.5 9.5 q-18 0 -47 -9t-59.5 -21.5t-59 -24t-47.5 -15.5q1 -44 1 -88q0 -152 -11 -295q-14 -184 -14 -376z" />
<glyph unicode="o" d="M12 360q0 35 1 67t3 40q0 88 22.5 149.5t65.5 108.5t103.5 84t136.5 74q0 4 12.5 8t31 8t41 7t42.5 5h45q63 0 129 -41t118 -104.5t86 -137t34 -141.5q0 -86 -32 -173t-88 -157.5t-133 -114.5t-165 -44q-57 0 -128 21.5t-134.5 60.5t-111.5 90.5t-62 112.5 q-4 10 -10.5 32.5t-6.5 44.5zM225 477q0 -41 15.5 -83t44 -80t69.5 -67.5t95 -41.5q76 37 133 104.5t57 161.5q0 6 -6 24.5t-13.5 39t-13.5 37t-6 18.5q-4 8 -18.5 21.5t-30.5 25.5t-33.5 22.5t-28.5 14.5q-4 0 -17 1t-17 1q-35 0 -75 -17.5t-75 -46t-57.5 -64.5t-22.5 -71z " />
<glyph unicode="p" horiz-adv-x="663" d="M12 -4q0 80 8.5 157.5t18.5 156.5t18.5 158t8.5 159v32q0 31 -2.5 61t-2.5 34l-47 94q63 6 117.5 11t107 8t103.5 5t109 2q109 0 157 -40q45 -39 45 -141v-9q-2 -94 -27.5 -153.5t-64.5 -95.5t-86 -54.5t-90 -31.5t-76 -25.5t-45 -36.5q-25 -49 -26 -89q-1 -17 -1 -33 q0 -21 1 -39q2 -32 1 -56.5t-20.5 -41t-68 -24.5t-138.5 -8zM270 502q0 -4 9.5 -14.5t15.5 -10.5q25 0 50.5 16.5t47 41t34.5 52t13 52.5q0 12 -10 28.5t-24.5 32t-31.5 24.5q-15 7 -25 7h-5q-10 -4 -27.5 -21.5t-19.5 -25.5z" />
<glyph unicode="q" horiz-adv-x="985" d="M29 440q0 -82 24.5 -138t69.5 -97t105.5 -74t131.5 -65q25 -12 72 -47t95 -71t87 -64.5t48 -28.5h28q16 0 56 3t85.5 6t85 7t56.5 6q-51 61 -127 117.5t-133 118.5q100 78 157.5 167t57.5 212q0 86 -32 158.5t-86 126.5t-128 85t-158 31q-90 0 -178 -35t-158.5 -96.5 t-114.5 -144.5t-44 -177zM283 436q0 33 22.5 72t56 72.5t74.5 56t76 22.5q31 0 62.5 -18t58 -45t43 -59.5t16.5 -59.5q0 -35 -15 -73.5t-42 -72.5t-59.5 -56.5t-69.5 -22.5t-76 14.5t-71.5 39t-54 58t-21.5 72.5z" />
<glyph unicode="r" horiz-adv-x="800" d="M12 872q18 0 65.5 3.5t99.5 6.5t99.5 7t65.5 6q6 0 29.5 4t51.5 8t52.5 8.5t30.5 4.5q94 -16 131 -58.5t37 -120.5q0 -49 -22.5 -91t-49.5 -76.5t-49.5 -63.5t-22.5 -51q0 -39 25 -93.5t62.5 -106.5t84 -92t86.5 -48q-8 -14 -35.5 -35t-61.5 -40t-65.5 -32.5t-47.5 -13.5 q-57 0 -92 45t-64 103.5t-59.5 113t-79.5 70.5v-189q0 -16 -27 -35.5t-61.5 -37t-67.5 -29.5t-45 -14h-10h-13q-6 2 -14 10t-10 12v12q0 68 7 138.5t16.5 143.5t17.5 145.5t8 146.5q0 72 -11.5 127t-60.5 112zM317 565q0 -4 9.5 -13t15.5 -9q18 0 41 15t40 36.5t27 46.5 q9 21 9 37v6q-4 18 -20.5 31.5t-38 23t-44.5 13.5t-39 4v-191z" />
<glyph unicode="s" horiz-adv-x="659" d="M2 -8q0 8 8 22q10 20 14.5 24.5t26.5 24.5q14 14 32.5 33t36 36.5t30 29.5t16.5 18q16 20 39.5 54t46 68t39 59.5t16.5 29.5v47q-37 14 -83 32.5t-86 45.5t-67.5 63.5t-27.5 86.5q0 12 2 32.5t4 22.5q2 4 16.5 20.5t33 35t38 36.5t29.5 27q23 18 57.5 42.5t68.5 47 t58 38.5q22 14 28 13h1l164 -166l1 -3t1 -7q0 -16 -29 -34.5t-65.5 -37t-71.5 -35t-47 -24.5l282 -142q2 -2 10.5 -19t12.5 -28v-10q0 -18 -24.5 -64t-63.5 -105.5t-86 -123t-91 -117t-80 -88t-52 -34.5q-18 0 -57.5 4t-79.5 10t-70.5 15.5t-30.5 19.5z" />
<glyph unicode="t" horiz-adv-x="739" d="M12 694h189l2 -24q2 -25 4 -61t3 -74.5t-1 -63.5q0 -10 -3 -41t-7 -72t-10.5 -88t-11.5 -88t-9 -71.5t-6 -38.5v-17q0 -12 -1 -24.5t-1 -24.5v-12q6 0 25.5 2t23.5 4q18 6 49 17.5t60.5 22.5t50 20.5t20.5 11.5l74 635h217q6 0 14 9t11 15q2 8 6 30.5t7 49.5t6 50.5 t3 33.5q-20 20 -32.5 22.5t-35.5 2.5h-26q-6 0 -30.5 -4.5t-52.5 -8.5t-51.5 -8t-29.5 -4q-23 0 -83 -1t-130 -1q-68 0 -128 1t-83 1q-6 -4 -15.5 -21.5t-9.5 -25.5q-2 -18 -3 -44t-2 -50.5t-2 -41.5z" />
<glyph unicode="u" horiz-adv-x="952" d="M25 700q8 14 23 16.5t30 2.5q16 0 30.5 2t22.5 20l156 9q2 -41 5 -119t17.5 -155t46 -136t90.5 -61q29 0 55.5 13t48 34.5t36 46t20.5 47.5q16 70 27.5 114t17.5 83.5t8.5 88t2.5 125.5q6 4 23 13.5t24 9.5q8 0 41.5 -1t71.5 -2t72 -2t44 -1q2 -40 2 -80q0 -135 -22 -262 q-28 -164 -98 -284t-188 -182q-82 -44 -191 -44q-47 0 -99 8h-13q-64 0 -110 36q-51 40 -86 104.5t-54.5 146.5t-30.5 160.5t-16 145t-7 103.5z" />
<glyph unicode="v" horiz-adv-x="909" d="M14 764q0 -6 1 -14.5t1 -10.5q0 -4 6.5 -21.5t14.5 -38t16 -36.5l10 -20q6 -18 20.5 -62.5t30 -93.5t28 -92t16.5 -60q20 -80 30.5 -142t33 -103t71.5 -62.5t147 -21.5h25q37 113 89 232.5t114.5 238t131 232.5t136.5 216v51q-72 0 -143.5 -4t-139.5 -24 q-14 -63 -54 -155.5t-86 -181.5t-88 -157.5t-60 -85.5q-35 57 -52.5 124t-23.5 135.5t-7 138t-6 135.5q-72 -12 -131 -40t-129 -55q0 -2 -1 -10t-1 -12z" />
<glyph unicode="w" horiz-adv-x="1323" d="M-16 897q2 14 15 20.5t29 7.5q8 0 16 0.5t16 -0.5q14 -1 18 -1q100 0 145 -21.5t60.5 -57.5t15.5 -83t14 -96q8 -31 13.5 -53.5t12.5 -42t19 -40t35 -45.5q43 82 67.5 157t58.5 131t89.5 90t155.5 34q14 0 25.5 -2t17.5 -21q8 -23 24.5 -80t35 -121.5t36 -120.5t23.5 -79 q4 -18 15 -37.5t32 -32.5q35 137 58.5 223.5t43 135.5t39 66.5t46 19.5t62 -4t91.5 -6q0 -8 -18.5 -69.5t-47 -149t-62.5 -187.5t-63.5 -185t-52 -141.5t-27.5 -56.5l-200 -24l-168 450q-2 6 -10.5 14.5t-14.5 10.5l-4 1t-6 1q-14 0 -33.5 -30t-42 -77t-45 -105.5 t-43 -115.5t-38 -109.5t-29.5 -84.5q-4 -12 -12.5 -30t-12.5 -18h-201q-31 113 -45 243t-29.5 258t-41 248t-82.5 216z" />
<glyph unicode="x" horiz-adv-x="937" d="M-90 -102q16 27 44 37t46 32q31 39 77 97.5t90 119t74.5 112.5t30.5 83v51q0 2 -22.5 29.5t-51 64.5t-59 75t-45.5 56q-16 18 -30.5 23.5t-43.5 9.5l285 164l109 -246h16l12 24q11 25 27 61t36.5 76t39.5 69q10 14 9 28.5t-1 28.5q0 12 2 24.5t-10 22.5q25 -2 67 -2 q43 0 88 1t86 3t64 4q-6 -8 -31.5 -53t-55.5 -98.5t-55.5 -99.5t-31.5 -54q-31 -41 -42 -79t-11 -75q0 -20 17 -55t45 -75t61.5 -82t66.5 -77.5t60.5 -60t41.5 -31.5q-6 0 -36.5 -5t-64.5 -11t-63.5 -12t-35.5 -8l-19 -4q-18 -3 -39.5 -6t-39 -5t-19.5 -2q-4 0 -17.5 13.5 t-19.5 23.5q-10 12 -23.5 31.5t-26.5 40t-25.5 41t-20.5 35.5l-14 -7l-177 -266q-8 -16 -57 -27.5t-108.5 -18.5t-112.5 -12t-68 -9h-10h-8z" />
<glyph unicode="y" horiz-adv-x="1128" d="M12 -213q13 -6 30 -6q7 0 14 1q26 3 51.5 10t49 15.5t36.5 10.5q20 4 39.5 6t37.5 2q59 0 102.5 10t67.5 55l332 488q92 117 178 257t156 294q-59 -10 -105.5 -15.5t-84 -8.5t-71.5 -7t-67 -14q-18 -4 -14 -19.5t-6 -31.5q-23 -35 -54.5 -89.5t-61.5 -104.5t-52 -88 l-21 -38h-20l-191 299l-344 -55q41 -33 89.5 -98.5t95.5 -138t87 -139.5t64 -99v-62l-18 -21q-19 -20 -45.5 -49.5t-55 -63.5t-49.5 -60q-12 -16 -48 -59.5t-77 -94.5q-12 -12 -17 -21.5t-8 -18.5t-7.5 -20.5t-12.5 -25.5z" />
<glyph unicode="z" horiz-adv-x="985" d="M12 0h776q16 0 43 38t52.5 88t47 97t27.5 66q-10 -10 -26.5 -22.5t-35.5 -23t-39.5 -17.5t-39.5 -7l-307 -24q-2 0 -12.5 9t-12.5 15l-1 4t-1 6q0 4 1 7.5t1 5.5l125 127l88 2q29 0 41.5 5t17.5 6t10 -7t19 -35l68 221l-184 8q20 45 59 85l78 80t67.5 83t28.5 96h-710 l-175 -286q70 29 132 41q64 12 126 16q50 3 101 3h27q66 -1 141 -1q-16 -35 -26.5 -52.5t-21 -27.5t-25.5 -18t-40 -27q-43 6 -76 6q-31 0 -53 -2t-37.5 -4t-27.5 2q-4 -2 -19.5 -23.5t-34 -49t-33 -56t-14.5 -43.5l180 -2h23v-22q0 -4 -33 -29t-65 -62q-14 -18 -47 -57 t-69 -81t-67.5 -81t-46.5 -57z" />
<glyph unicode="{" horiz-adv-x="448" d="M-2 477q14 -164 41 -264t67.5 -161.5t95 -99.5t122.5 -77q2 0 5 -1t7 -1q18 0 29.5 23.5t17.5 54.5t8 60.5t2 41.5v35q-53 6 -80.5 39t-40 84t-13.5 114.5t-1 133.5q0 113 8 184.5t27.5 115.5t52.5 68.5t84 44.5l-47 168q-2 0 -9 2t-14 2q-59 0 -122.5 -29.5t-115.5 -96 t-87 -175t-37 -266.5z" />
<glyph unicode="|" horiz-adv-x="364" d="M16 977q0 2 1 5t1 5q35 8 64 13.5t54.5 8.5t52 4t57.5 1q8 0 20.5 1t24.5 -1t21.5 -7.5t11.5 -19.5q-2 -8 -6.5 -28.5t-8.5 -43t-7 -44t-3 -29.5q0 -4 1 -19.5t1 -21.5l-16 -443l6 -376q0 -2 -13.5 -10.5t-21.5 -12.5l-188 -94q-20 6 -22.5 17.5t-2.5 27.5q0 59 3 137 t7 158t7 157.5t3 137.5v51v59t1.5 87t1.5 85v60v51q-4 8 -11.5 18.5t-16.5 22.5t-15.5 23.5t-6.5 19.5z" />
<glyph unicode="}" horiz-adv-x="448" d="M-4 872l47 168q2 0 9 2t14 2q59 0 122.5 -29.5t115.5 -96t87 -175t37 -266.5q-14 -164 -41 -264t-67.5 -161.5t-95 -99.5t-122.5 -77q-2 0 -5 -1t-7 -1q-18 0 -29.5 23.5t-17.5 54.5t-8 60.5t-2 41.5v35q53 6 80.5 39t40 84t13.5 114.5t1 133.5q0 113 -8 184.5 t-27.5 115.5t-52.5 68.5t-84 44.5z" />
<glyph unicode="~" horiz-adv-x="634" d="M10 330q47 0 81 -7.5t79 1.5q8 20 14 31.5t10.5 18.5t11.5 11t19 10q12 -16 34 -14t38 -10l35 -43q29 4 49 2t49 -2h16q23 23 60 73t119 121v17h-99q-49 0 -94 -7q-18 -37 -18 -61q0 -25 -25 -33q-14 16 -26.5 31.5t-26.5 28.5l-33 43q-31 -6 -57.5 0t-44.5 -9l-33 -28 l-158 -158v-16z" />
<glyph horiz-adv-x="370" />
<glyph unicode="&#xa1;" horiz-adv-x="380" d="M37 -23q0 70 8 140.5t19.5 139.5t19.5 138.5t8 141.5v38q0 14 -1 15.5t-2 0.5t-3 -1v14v41q-4 2 -12 10.5t-11 12.5l-1 5t-1 7q0 23 33 39t75 27.5t84 17.5t60 6h13l12 -12t10 -13q-4 -37 -10 -119.5t-12.5 -174t-12.5 -174t-10 -121.5v-72q-8 -4 -35.5 -15.5 t-59.5 -23.5t-59.5 -23.5t-35.5 -15.5l-47 -22q-2 -4 -14.5 -5.5t-14.5 -1.5zM53 918q0 72 41 119.5t113 47.5q45 0 88 -20.5t43 -75.5q0 -16 -3 -28.5t-22 -20.5q-14 -37 -44.5 -60.5t-64.5 -30.5t-63.5 3t-40.5 41h-10h-12q-6 6 -15.5 12.5t-9.5 12.5z" />
<glyph unicode="&#xa2;" horiz-adv-x="698" d="M-2 471q0 -35 24.5 -70.5t64.5 -70.5t89 -67t96 -58q-4 -90 -8 -176t-4 -154q0 -16 2 -27.5t23 -17.5l98 82q8 4 21.5 12t13.5 10l-4 199q66 -29 104.5 -43t85.5 -35q2 0 5 -1t7 -1q18 0 30.5 18.5t20 43t9.5 48t2 34.5v26q-29 12 -73 30.5t-92 41t-93 48.5t-74 54 l-6 185q25 25 63.5 47t82.5 40.5t88 34t81 25.5l-137 111q-2 0 -10 2t-14 2q-49 0 -115 -27q0 10 3 31.5t7 43t8 41t6 28.5q-2 14 -11 19t-21.5 7t-24.5 1t-20 -1q-31 0 -43.5 1t-21.5 0t-23.5 -4t-49.5 -11q0 -2 -1 -5t-1 -5q0 -8 6.5 -19.5t15.5 -24t16 -22.5t12 -18v-52 v-86q-47 -31 -90.5 -67.5t-76 -72.5t-52 -69.5t-19.5 -60.5z" />
<glyph unicode="&#xa3;" horiz-adv-x="876" d="M14 461q0 -12 29 -12t73 6t85 12v-123v-160l-4 -88l-47 -94h116q23 -2 70 -6t105.5 -8t122 -9.5t120.5 -9.5t103.5 -8t68.5 -6v12q0 16 -6 70.5t-16.5 116t-24.5 113.5t-31 63q-14 -78 -58 -99.5t-116 -21.5h-45q-20 0 -41.5 2t-39 8t-29 18.5t-11.5 34.5v11 q-4 39 -11 81t-7 80v13q8 -2 14 -2h6q2 0 6 1l5 1l4 32q82 -4 150.5 -12t154.5 -8h22l-34 317l-4 1q-5 1 -7 1t-8 -1l-6 -1q-4 -4 -14.5 -13t-21.5 -20.5t-21.5 -21.5t-12.5 -14h-233l-10 311l-238 94v-12q0 -117 6 -214t12 -198q-6 -2 -10 -3t-12 -1q-12 0 -44 6.5 t-106 22.5q0 -72 -1 -113t-1 -67z" />
<glyph unicode="&#xa4;" horiz-adv-x="937" d="M-90 -102h18q14 4 67.5 9t113 13t108.5 18.5t57 26.5l129 197q12 -4 25.5 -7t28.5 -8q23 8 47 23q16 -23 30.5 -44.5t26.5 -35.5q6 -10 19.5 -23.5t17.5 -13.5l18 2q19 2 40.5 5t39.5 6l19 4q6 2 35.5 8t63.5 12t64.5 11t36.5 5q-16 6 -42.5 31t-59.5 59.5t-66.5 76.5 t-60.5 83q20 51 21 103q0 6 -8.5 28.5t-17.5 46t-17.5 42t-8.5 20.5l-2 2q0 2 -2 4q8 14 25 39q6 8 31.5 54t55.5 99.5t55.5 98.5t31.5 53q-16 -2 -44 -3t-60.5 -2t-67.5 -2t-66 -1h-39t-28 2q12 -10 10 -22.5t-2 -24.5q0 -14 1 -28.5t-9 -28.5q-18 -29 -38 -67t-36 -73h-6 q-39 0 -84 -16l-76 172l-285 -164q29 -4 43.5 -9t30.5 -24q14 -18 40 -51t54 -67q-23 -35 -22 -72q0 -43 17.5 -90t52.5 -90q-23 -37 -53.5 -81t-64.5 -87t-64.5 -82t-53.5 -68q-18 -23 -46 -33t-44 -36zM332 446q0 16 11 34t28.5 31t38 21.5t39.5 8.5h16q12 -4 31.5 -17.5 t23.5 -23.5q0 -2 10.5 -25.5t10.5 -32.5q0 -61 -34 -87.5t-74 -23.5t-72.5 32.5t-28.5 82.5z" />
<glyph unicode="&#xa5;" horiz-adv-x="1128" d="M12 -213q18 -8 44 -5t51.5 11t49 15.5t36.5 9.5q41 8 77 8q39 0 72 4t57.5 17.5t40.5 43.5l90 134q29 -2 56.5 2t46.5 18l356 -2h15q14 0 30 -1l15 -1q2 0 6 1l4 1l31 195h-23q-90 0 -153.5 -2.5t-108.5 -5.5t-78 -5t-61 -4l82 123l241 -2h15q14 0 30 -1l15 -1q2 0 6 1 l4 1l31 195h-23q-59 0 -104 -1t-82 -1q66 100 127 212.5t108 223.5q-106 -25 -188 -37t-148 -33q-18 -4 -14 -19.5t-6 -31.5q-20 -31 -48 -79t-54.5 -96t-49 -89t-30.5 -58h-21q-8 0 -18 2l-181 283l-344 -55q41 -33 89.5 -98.5t95.5 -138t87 -139.5t64 -99v-62l-18 -21 q-19 -20 -45.5 -49.5t-55 -63.5t-49.5 -60q-12 -16 -48 -59.5t-77 -94.5q-12 -12 -17 -21.5t-8 -18.5t-7.5 -20.5t-12.5 -25.5z" />
<glyph unicode="&#xa6;" horiz-adv-x="364" d="M16 977q0 2 1 5t1 5q35 8 64 13.5t54.5 8.5t52 4t57.5 1q8 0 20.5 1t24.5 -1t21.5 -7.5t11.5 -19.5q-2 -8 -6.5 -28.5t-8.5 -43t-7 -44t-3 -29.5q0 -4 1 -19.5t1 -21.5l-16 -443l6 -376q0 -2 -13.5 -10.5t-21.5 -12.5l-188 -94q-20 6 -22.5 17.5t-2.5 27.5q0 59 3 137 t7 158t7 157.5t3 137.5v51v59t1.5 87t1.5 85v60v51q-4 8 -11.5 18.5t-16.5 22.5t-15.5 23.5t-6.5 19.5z" />
<glyph unicode="&#xa7;" horiz-adv-x="882" d="M-90 -102q16 27 44 37t46 32q23 29 53.5 68t64.5 82t64.5 87t53.5 81q-35 43 -52.5 90t-17.5 90q-1 37 22 72l193 143q49 16 84 16h6q16 35 35.5 73t38.5 67q10 14 9 28.5t-1 28.5q0 12 2 24.5t-10 22.5q8 -2 28 -2h39h66t67.5 1t60.5 3t44 4q-6 -8 -31.5 -53 t-55.5 -98.5t-55.5 -99.5t-31.5 -54q-8 -12 -14.5 -21.5t-10.5 -17.5q2 -2 2 -4l2 -2q0 -2 7.5 -21.5t16.5 -43t17.5 -45t10.5 -27.5q23 -61 -3 -114.5t-71 -94.5t-96.5 -67.5t-79.5 -35.5q-14 4 -27.5 7.5t-26.5 7.5l-165 -215q-8 -16 -52.5 -23.5t-96.5 -12.5t-99 -7 t-62 -6h-18zM332 446q-4 -53 28.5 -82.5t72.5 -32.5t74 23.5t34 87.5q0 8 -10.5 32t-10.5 26q-4 10 -23.5 23.5t-31.5 17.5h-16q-18 0 -39 -8.5t-38.5 -21.5t-28.5 -31t-11 -34z" />
<glyph unicode="&#xa8;" horiz-adv-x="569" d="M10 813l3 -10t18.5 -19.5t47.5 -12.5t89 7q8 2 17.5 16.5t16.5 32t12 34t5 24.5q0 47 -37 65.5t-71 18.5q-59 0 -80 -47.5t-21 -108.5zM346 811l3 -10q3 -10 18.5 -19.5t47 -12.5t89.5 7q8 2 17 16.5t16.5 32t12.5 33.5t5 25q0 47 -37 65.5t-72 18.5q-59 0 -79.5 -47.5 t-20.5 -108.5z" />
<glyph unicode="&#xa9;" horiz-adv-x="2416" d="M31 518l168 25l-93 92l17 80l180 -13q0 186 70 187h10l170 -51q113 135 182 155l139 -78l277 119l59 -41l-14 -39l14 -12l308 51l106 -10l-14 -80h366l33 -29q0 -66 -63 -77l307 -68q2 -2 2 -8v-8q0 -66 -109 -78q201 -61 201 -98q0 -2 -4 -7l-29 -55h-137l92 -104 q2 0 2 -13v-12q0 -47 -49 -55l-151 24l-17 -155q-18 -31 -59 -31q-29 0 -68 14.5t-88 40.5l-153 -145l-76 -14l-92 79l-293 -133l-45 15v80l-383 -52l-47 25l14 65l-399 27v53l49 41l-246 39q-45 0 -45 51l94 68l-172 68zM76 489l260 -118l-168 -66l369 -69l-123 -76 l428 -17l-45 -92l383 68l45 -53l-15 -52l308 129l139 -77l151 159l201 -55l14 188l199 -28q4 4 4 12q0 39 -125 162l199 14l-16 25l-246 106l153 41h17l-17 25l-352 67l123 80h-414l31 92l-399 -51l-15 80l-30 10l-279 -119l-121 80l-168 -157q-23 -6 -35 -6q-55 0 -149 59 l-31 -186l-198 14l14 -55l106 -119zM414 365l24 239l51 10l-14 -231zM518 469v14q0 106 197 135l-4 -57q-8 4 -15.5 5t-15.5 1q-33 0 -72 -32q-41 -41 -41 -97q0 -45 58 -45q23 0 53 6l2 -41q-41 -10 -55 -10q-80 0 -105 105q-2 10 -2 16zM735 408q0 147 103 202q8 0 11 1 t1 1h16q86 1 111 -77q-25 -164 -105 -164q-12 -2 -23 -3t-22 -1q-76 0 -92 41zM786 469q0 -57 45 -57q29 0 72 20q25 33 25 68q0 18 -10 28q-18 31 -50 31q-47 0 -80 -74q-2 -2 -2 -16zM1008 600l157 -149l9 163l47 -14v-229q-70 0 -166 114v-114l-41 -6zM1272 377l26 237 l52 9l-15 -230zM1382 389q12 117 111 234q18 6 35 6q53 0 71 -74l5 -174l-35 8q-29 55 -62 55q-37 0 -69 -55h-56zM1464 494h88l-32 79zM1649 610l153 -149l10 162l48 -13v-231q-68 0 -166 115v-113l-39 -4zM1898 356l35 25l41 -16l-43 -37zM1923 444l10 179l66 -13 l-31 -172z" />
<glyph unicode="&#xaa;" horiz-adv-x="567" d="M-12 475l182 305q12 43 42 95.5t46 95.5h117q10 -37 29.5 -104.5t42 -137.5t45 -129t38.5 -80l31 -35q-6 -2 -26.5 -3t-43 -2t-45.5 -1h-26h-8q-10 0 -17.5 11.5t-11.5 19.5l-2 2l-23 53l-12 13h-129q-16 0 -22.5 -16.5t-15.5 -36t-27.5 -38t-59.5 -22.5h-10q-18 0 -48 3 t-46 7zM225 694l47 -2q16 0 30.5 6.5t14.5 22.5v16q0 18 -5 36t-21 22l-53 -78z" />
<glyph unicode="&#xab;" horiz-adv-x="493" d="M14 485v19q31 29 54.5 43t45 29.5t45 40t54.5 73.5h16v-43v-29q0 -12 -1 -26t-3 -39q-39 -20 -63.5 -52t-34.5 -59l-2 -4l106 -86q-2 -27 -5 -47t-7 -38.5t-8 -38t-8 -44.5l-3 -1q-3 -1 -5 -1t-5 1l-2 1q-4 0 -4 13q0 14 -2 18q-12 10 -26.5 34.5t-24.5 33.5 q-23 18 -44 35.5t-37.5 40t-26 53t-9.5 73.5zM250 487v19q31 29 54.5 43t45 29.5t45 40t54.5 73.5h16v-43v-28q0 -12 -1 -26.5t-3 -39.5q-39 -20 -63.5 -52t-35.5 -59l-2 -4l107 -86q-2 -27 -5 -47t-7 -38.5t-8.5 -38t-8.5 -44.5l-3 -1t-5 -1t-4 1l-2 1q-4 0 -4 13 q0 14 -2 18q-12 10 -26.5 34.5t-24.5 33.5q-23 18 -44.5 35.5t-38 40t-25.5 53t-9 73.5z" />
<glyph unicode="&#xac;" horiz-adv-x="729" d="M25 293q0 -12 28 -12q16 0 42 -1t52.5 0t52 7t44.5 20l153 -4q4 -70 9.5 -86t9.5 -14q0 -2 -6.5 -24.5t-22.5 -100.5q72 2 113 1t67 -1q25 2 42.5 1t39.5 -1q12 0 13 28q0 16 2 41t2 52t-4.5 52t-16.5 44h10q2 0 7 1l4 1l28 260h-22q-109 0 -177.5 -4t-115.5 -10 t-80 -10.5t-68 -4.5t-82 5.5t-120 21.5q0 -72 -1 -113t-1 -67q0 -25 -1 -42.5t-1 -39.5z" />
<glyph unicode="&#xad;" horiz-adv-x="411" d="M14 299q0 23 1 40t1 42q0 27 1 67.5t1 112.5q74 -16 99.5 -22.5t29 -8.5t-2 1.5t10 7.5t62.5 7t156 3h22l-28 -260l-5 -1q-4 -1 -6 -1l-15 1q-15 1 -30 1h-14l-61 12q-18 -14 -44 -18t-53.5 -3t-53.5 4t-42 3q-29 0 -29 12z" />
<glyph unicode="&#xae;" horiz-adv-x="2228" d="M37 303l35 397l65 17l-16 -381zM176 500q0 180 264 223l-10 -94q-14 8 -39 8q-51 0 -94 -55q-55 -72 -55 -154q0 -76 77 -76q55 0 70 8l2 -65q-20 -12 -36.5 -14t-35.5 -2q-109 0 -139 170l-3 27t-1 24zM467 375q0 246 135 332q14 8 21 8h16q118 0 149 -133 q-35 -268 -139 -269q-18 -2 -31.5 -4t-27.5 -2q-102 0 -123 68zM537 475q0 -96 57 -96q35 0 98 39q18 27 24.5 54t6.5 54q0 31 -10 47q-29 49 -68 50q-61 0 -108 -121v-27zM827 692l211 -243l11 268l65 -23v-381q-94 0 -221 189v-189l-57 -10zM1182 322l37 395l67 12 l-18 -381zM1329 346q12 195 150 381q20 14 45 14q70 0 92 -123l4 -288l-41 16q-41 86 -86 86t-90 -86h-74zM1440 518h116l-45 127zM1681 707l209 -242l15 264l59 -22v-381q-90 0 -221 192v-188l-53 -8zM2013 293l51 37l54 -27l-60 -57zM2050 432l14 297l86 -22l-45 -283z " />
<glyph unicode="&#xaf;" horiz-adv-x="716" d="M12 1020q0 -12 29 -12q16 0 43 -3.5t54.5 -4.5t54 2.5t45.5 17.5l356 -2h14q14 0 30 -1l15 -1q2 0 7 1l4 1l30 194h-22q-109 0 -178.5 -3t-116.5 -6t-81 -5t-71 -2t-84 5.5t-123 15.5q0 -72 -1 -103t-2 -44t-2 -20.5t-1 -29.5z" />
<glyph unicode="&#xb0;" horiz-adv-x="471" d="M12 717q0 -10 3 -20.5t5 -14.5q6 -29 31 -52.5t56.5 -41t67.5 -27.5t65 -10q45 0 82.5 20.5t66.5 53t45.5 72.5t16.5 79q0 31 -16.5 64.5t-43 62.5t-59.5 47.5t-66 18.5h-22q-20 -2 -43 -5t-21 -8q-78 -33 -122 -72.5t-44 -117.5q0 -4 -1 -18.5t-1 -30.5zM137 772 q0 14 10.5 28.5t25.5 27t32.5 19.5t34.5 7q2 0 8 -1l6 -1q10 -4 27.5 -14.5t21.5 -20.5l9 -21q10 -20 10 -24q0 -39 -25 -65.5t-59 -42.5q-47 10 -74 42.5t-27 65.5z" />
<glyph unicode="&#xb1;" horiz-adv-x="696" d="M16 444q0 -12 29 -12q12 0 36.5 1t56.5 2t66 3t64 4q0 -10 -1 -46t-2 -62.5t-1 -30.5v-10l166 -29v23v84t-2 69l61 -6h15l143 4q2 0 6 1l4 1l29 260h-22q-84 0 -143.5 -3t-100.5 -7q2 16 5 49t13 92q-47 0 -72.5 1.5t-41.5 1.5t-26.5 1t-25.5 1q-8 0 -8 -31 q0 -23 2 -60.5t6 -72.5q-10 0 -36.5 2t-62.5 7t-77 11t-76 15q0 -72 -1 -113t-1 -68q0 -25 -1 -42t-1 -40zM27 211q0 -37 1 -53.5t3 -23.5t3 -12t1 -18q0 -25 -1 -42t-1 -39q0 -12 28 -13q8 0 50.5 1t98.5 3t119.5 5.5t114.5 5.5v-7l62 -6l158 4q2 0 6 1l4 1l18 187h-22 q-84 0 -143.5 -3t-100.5 -7v-11q-49 2 -107.5 4t-116 5.5t-104.5 7.5t-71 10z" />
<glyph unicode="&#xb2;" horiz-adv-x="430" d="M10 694v4q2 6 6 15.5t7 11.5l182 57q-8 4 -31.5 16.5t-49.5 26t-45.5 27.5t-19.5 22q0 4 1 6l1 1l91 90q0 2 14 -6.5t32.5 -20.5t38 -26.5t31.5 -22.5q6 -6 20.5 -19.5t30 -27.5t27.5 -25.5t14 -13.5q0 -2 1 -13.5t1 -17.5q0 -27 -19 -44t-46 -27.5t-56.5 -17.5 t-50.5 -15v-27q0 -2 18.5 -16.5t43 -33.5t48.5 -37.5t34 -31.5q2 -4 24.5 -25.5t38.5 -37.5q12 -10 14.5 -13t8.5 -14l4 -12q0 -4 -12.5 -7t-31 -5t-38.5 -2h-39h-35q-10 0 -32.5 18.5t-51 46t-59.5 61t-56.5 65.5t-42 56.5t-16.5 34.5z" />
<glyph unicode="&#xb3;" horiz-adv-x="395" d="M27 854q27 -14 77 -42t80 -62l-84 -13h-8q-8 0 -16 1l-8 1q-2 0 -4 -1l-3 -1l-8 -112h13q68 0 97.5 2t41.5 6q-20 -47 -69.5 -79t-96.5 -50l72 -78l4 -1t8 -1q33 0 76 28.5t81.5 69.5t66.5 85t28 77q0 49 -34 92t-83 80t-102.5 65.5t-89.5 51.5h-7q-10 0 -16 -12.5 t-10 -30t-5 -33.5t-1 -23v-20z" />
<glyph unicode="&#xb4;" horiz-adv-x="296" d="M29 777q4 -7 25.5 -10t78.5 7q8 2 30.5 18.5t45 37t41 39t18.5 26.5q0 47 -6 62.5t-41 15.5q-31 0 -62.5 -15.5t-59 -39t-45 -54t-17.5 -61.5l-6 -9q-6 -10 -2 -17z" />
<glyph unicode="&#xb5;" horiz-adv-x="952" d="M25 690q2 -33 5 -83t10 -110.5t19.5 -124t30.5 -122.5q-8 -129 -30.5 -251t-22.5 -251q2 0 14 1t15 5l47 23l190 78l16 184q8 -2 27 -2h12q25 -4 40.5 -22.5t37.5 -18.5q135 0 231.5 62.5t157 169t88 245.5t27.5 291v41q0 20 -2 43l-229 6q-6 0 -23.5 -9t-23.5 -14 q0 -78 -2.5 -126t-8.5 -87.5t-17 -84t-30 -113.5q-6 -23 -20.5 -47.5t-35 -46t-47 -34.5t-55.5 -13q-39 2 -65.5 29.5t-44 70.5t-26.5 96t-14 105.5t-6 97.5t-3 72q-86 -12 -136.5 -18.5t-77 -11.5t-35.5 -9.5t-13 -10.5v-10z" />
<glyph unicode="&#xb6;" horiz-adv-x="700" d="M25 741q0 78 36.5 120t131.5 59q6 0 30.5 -4.5t52 -8.5t51 -8t29.5 -4q18 -2 65.5 -6t99.5 -7t99.5 -6.5t65.5 -3.5q-49 -57 -60.5 -112t-11.5 -127q0 -74 7.5 -146.5t16.5 -145.5t17.5 -143.5t8.5 -138.5v-12q-2 -4 -10.5 -12t-14.5 -10h-12h-11q-12 2 -42.5 3t-62.5 5 t-57.5 12t-25.5 25l-12 686q-57 14 -81 -35t-28 -132t2 -183.5t8 -187.5t-8 -146.5t-49 -59.5q-16 0 -34.5 8.5t-35 20.5t-31 27.5t-22.5 29.5q14 31 21.5 77t9.5 96.5t1 99.5t-1 88q0 23 -22.5 51.5t-49 63t-49 76.5t-22.5 91z" />
<glyph unicode="&#xb7;" horiz-adv-x="309" d="M12 455q0 72 41 121t113 49q20 0 43.5 -5.5t43 -16.5t32 -29.5t12.5 -45.5q0 -8 -6 -27.5t-15.5 -39t-19.5 -36.5t-20 -19q-23 -4 -44.5 -6.5t-37.5 -2.5q-43 0 -71 8.5t-43 19.5t-18 15z" />
<glyph unicode="&#xb8;" horiz-adv-x="206" d="M-106 -141q0 -10 12 -26.5t32.5 -29t49 -13.5t63.5 20q8 2 25.5 30.5t37 68.5t40 82t34.5 72l-153 25q4 -29 9 -47t3 -49l-23 -14q-24 -13 -53.5 -32.5t-53 -43t-23.5 -43.5z" />
<glyph unicode="&#xb9;" horiz-adv-x="200" d="M6 952q0 -8 11.5 -23.5t15.5 -21.5v-28q0 -20 1 -43t1 -43v-29q0 -66 -7.5 -129t-7.5 -131q0 -10 1.5 -15.5t11.5 -9.5l104 51l19 13v143l8 170q0 4 -1 11t-1 12q0 10 5 39.5t9 39.5q-4 16 -19.5 15.5t-23.5 -0.5q-35 0 -60.5 -2t-64.5 -13q0 -2 -1 -3t-1 -3z" />
<glyph unicode="&#xba;" horiz-adv-x="471" d="M12 717q0 -10 3 -20.5t5 -14.5q6 -29 31 -52.5t56.5 -41t67.5 -27.5t65 -10q45 0 82.5 20.5t66.5 53t45.5 72.5t16.5 79q0 31 -16.5 64.5t-43 62.5t-59.5 47.5t-66 18.5h-22q-20 -2 -43 -5t-21 -8q-78 -33 -122 -72.5t-44 -117.5q0 -4 -1 -18.5t-1 -30.5zM137 772 q0 14 10.5 28.5t25.5 27t32.5 19.5t34.5 7q2 0 8 -1l6 -1q10 -4 27.5 -14.5t21.5 -20.5l9 -21q10 -20 10 -24q0 -39 -25 -65.5t-59 -42.5q-47 10 -74 42.5t-27 65.5z" />
<glyph unicode="&#xbb;" horiz-adv-x="493" d="M12 354q2 -27 5 -47t7.5 -38.5t8.5 -38t8 -44.5l3 -1t5 -1t4 1l2 1q4 0 4 13q0 14 2 18q12 10 26.5 34.5t25.5 33.5q23 18 44 35.5t37.5 40t25.5 53t9 73.5v19q-31 29 -54 43t-44.5 29.5t-45.5 40t-54 73.5h-17q0 -27 -1 -42t-1 -29q0 -12 1 -26.5t5 -39.5 q39 -20 63.5 -52t35.5 -59l2 -4zM248 352q2 -27 5 -47t7 -38.5t8 -38t8 -44.5l4 -1q3 -1 5 -1t4 1l2 1q4 0 4 13q0 14 2 18q12 10 26.5 34.5t24.5 33.5q23 18 44.5 35.5t37.5 40t25.5 53t9.5 73.5v19q-31 29 -54.5 43t-45 29.5t-45 40t-54.5 73.5h-16q0 -27 -1 -42t-1 -30 q0 -12 1 -26t5 -39q39 -20 63.5 -52t34.5 -59l2 -4z" />
<glyph unicode="&#xbc;" horiz-adv-x="1073" d="M-27 -53l643 940q14 14 19.5 20t8.5 9.5t7 3.5h21h22q14 0 31.5 -1t32.5 -1h20q6 -14 7 -42t-5 -38l-567 -779q-6 -29 -34.5 -50t-66.5 -35.5t-76 -20.5t-63 -6zM104 918q0 2 1 3t1 3q39 10 65 12t60 2q8 0 23.5 1t19.5 -15q-4 -10 -9 -40t-5 -40q0 -4 1 -11.5t1 -11.5 l-8 -170v-143l-18 -12l-105 -52q-10 4 -11 9.5t-1 15.5q0 68 7 131.5t7 128.5v29q0 20 -1 42.5t-1 43.5v28q-4 6 -15.5 21.5t-11.5 24.5zM594 455q0 2 4 7t8 5h144v-166h41q33 0 67.5 9t44.5 40q0 6 1 25.5t1 25.5q0 31 -1 53.5t-13 51.5q16 16 41.5 15t42.5 -1h12 q8 0 17.5 -1t17.5 -1h12q4 -8 8.5 -25.5t4.5 -25.5q0 -106 -8.5 -215t-30.5 -213q-4 -4 -18.5 -11.5t-32 -15.5t-33 -15t-21.5 -9q-2 -2 -12 -4t-14 -2q0 53 14 107t14 110q0 23 -7 20.5t-34 -2.5h-6q-8 -2 -46 -3t-81 -2t-77 -2l-33 -1v92q0 16 -1.5 32.5t-1.5 33.5v22 q0 4 -4 19.5t-8 19.5q-2 4 -7 13.5t-5 13.5z" />
<glyph unicode="&#xbd;" horiz-adv-x="980" d="M-27 -53l643 940q14 14 19.5 20t8.5 9.5t7 3.5h21h22q14 0 31.5 -1t32.5 -1h20q6 -14 7 -42t-5 -38l-567 -779q-6 -29 -34.5 -50t-66.5 -35.5t-76 -20.5t-63 -6zM78 913q0 2 1 3.5t1 3.5q39 10 64.5 12t60.5 2q8 0 23.5 1t19.5 -15q-4 -10 -9.5 -40t-5.5 -40 q0 -4 1.5 -11.5t1.5 -11.5l-9 -170v-143l-18 -12l-105 -52q-10 4 -11 9.5t-1 15.5q0 68 7 131t7 129v29q0 20 -1 42.5t-1 43.5v28q-4 6 -15 21.5t-11 23.5zM537 264v4q2 6 6 15.5t6 11.5l182 57q-8 4 -31.5 16.5t-49 26t-45 27.5t-19.5 22q0 4 1 6l1 1l90 90q0 2 14.5 -6.5 t32.5 -20.5t37.5 -26.5t32.5 -22.5q6 -6 20 -19.5t29.5 -28t28 -25.5t14.5 -13q0 -2 1 -13.5t1 -17.5q0 -27 -19.5 -44t-46 -27.5t-56.5 -17.5t-50 -15v-27q0 -2 18.5 -16.5t43 -34t48 -37.5t33.5 -31q2 -4 24.5 -25.5t39.5 -37.5q12 -10 14 -13.5t8 -13.5l4 -12 q0 -4 -12 -7t-30.5 -5t-39.5 -2h-39h-34q-10 0 -33 18t-51.5 46t-59 61.5t-56.5 65.5t-42 56.5t-16 34.5z" />
<glyph unicode="&#xbe;" horiz-adv-x="1157" d="M45 817q27 -14 77 -41.5t81 -62.5l-84 -13h-8q-8 0 -17 1l-8 1q-2 0 -4 -1l-2 -1l-8 -112h12q68 0 97.5 2t41.5 6q-20 -47 -69.5 -79t-96.5 -50l72 -78l4 -1q4 -1 8 -1q33 0 76 28.5t82 69.5t66.5 85t27.5 77q0 49 -33.5 92t-83 80t-102.5 65.5t-90 51.5h-6 q-10 0 -16.5 -12.5t-10.5 -29.5t-5 -33.5t-1 -22.5v-21zM57 -53q25 0 63 6t75.5 20.5t66.5 36t35 49.5l567 779q6 10 5 37.5t-7 42.5h-20q-14 0 -31.5 1t-32.5 1h-22h-21q-4 0 -7 -3.5t-8.5 -9.5t-19.5 -20zM678 455q0 -4 5 -13.5t7 -13.5q4 -4 8 -19.5t4 -19.5v-22 q0 -16 1.5 -33t1.5 -33v-92l33 1q34 1 77 2t81 2t46 3h6q27 0 34 2t7 -20q0 -55 -14 -109.5t-14 -107.5q4 0 14 2t12 4q6 2 21.5 9t33 15t31.5 15.5t19 11.5q23 104 30.5 212.5t7.5 215.5q0 8 -4 25.5t-8 25.5h-12q-8 0 -17.5 1t-17.5 1h-12q-16 0 -42 1t-42 -15 q12 -29 13 -51.5t1 -53.5q0 -6 -1 -25.5t-1 -25.5q-10 -31 -45 -40t-68 -9h-40v166h-144q-4 0 -8 -5t-4 -7z" />
<glyph unicode="&#xbf;" horiz-adv-x="688" d="M8 352q0 49 35 80t84 50.5t103.5 32.5t91.5 28q0 27 9 33t19 6h10q4 0 5 2q0 6 -4.5 19t-6.5 28.5t-1 28t12 14.5l131 16h8q25 0 50.5 -18.5t47 -46t35.5 -60.5t14 -59v-10q-4 -10 -12 -27.5t-10 -19.5l-332 -105q8 -6 39 -18.5t70.5 -28.5t85 -34.5t83 -36t62.5 -34 t25 -26.5q0 -4 -2 -7l-1 -3l-163 -166h-2q-6 0 -48.5 17.5t-93.5 42t-101 50t-71 41.5q-10 8 -36.5 32t-55.5 50.5t-50.5 48t-23.5 25.5q-2 2 -4 22.5t-2 32.5zM256 874q0 8 5 26t14.5 36t18.5 33.5t19 17.5q63 12 103.5 6t63 -16t26.5 -17l12 -18q0 -66 -38 -111t-103 -45 q-41 0 -81 19.5t-40 68.5z" />
<glyph unicode="&#xc0;" horiz-adv-x="1003" d="M-10 12l332 553q10 39 31.5 84t45 90t46 89t36.5 83h213q12 -45 33 -114.5t46.5 -151.5t54 -168t56 -161.5t52.5 -135t43 -86.5l47 -71q-10 -2 -46 -3.5t-79 -1.5h-78h-47l-596 -26h-16q-18 0 -41 2t-47.5 5t-47 6t-38.5 7zM346 270q4 0 22.5 -1t24.5 -1h37h53t75 4 t65.5 11.5t25.5 23.5l-59 182q-6 33 -13 64t-36 41q-4 -8 -30 -50t-56.5 -91.5t-56 -91.5t-29.5 -50q-4 -4 -12.5 -20.5t-10.5 -20.5zM432 1135q0 47 6 62t41 15q31 0 62.5 -15t59.5 -38.5t45.5 -54.5t17.5 -62l6 -9t2 -16t-25.5 -10t-79.5 7q-8 2 -30.5 18.5t-45 37 t-41 38.5t-18.5 27z" />
<glyph unicode="&#xc1;" horiz-adv-x="1003" d="M-10 12q16 -4 38.5 -7t47 -6t47 -5t41.5 -2h16l596 26h47h78q43 0 79 1t46 4l-47 71q-18 27 -43 86.5t-52.5 135t-56 161.5t-54 168t-46 151.5t-33.5 114.5h-213q-14 -39 -36.5 -83t-46 -89t-45 -90t-31.5 -84zM346 270q2 4 10.5 20.5t12.5 20.5q4 8 29.5 50t56 91.5 t56.5 91.5t30 50q29 -10 36 -41t13 -64l59 -182q2 -16 -25.5 -23.5t-65.5 -11.5t-75 -4h-53h-37q-6 0 -24.5 1t-22.5 1zM446.5 1013q4.5 -7 26 -10.5t78.5 7.5q8 2 30.5 18t45 36.5t41 39t18.5 26.5q0 47 -6 62.5t-41 15.5q-31 0 -62.5 -15t-59.5 -39t-45 -54.5t-17 -61.5 l-7 -9q-6 -9 -1.5 -16z" />
<glyph unicode="&#xc2;" horiz-adv-x="1003" d="M-10 12q16 -4 38.5 -7t47 -6t47 -5t41.5 -2h16l596 26h47h78q43 0 79 1t46 4l-47 71q-18 27 -43 86.5t-52.5 135t-56 161.5t-54 168t-46 151.5t-33.5 114.5h-213q-14 -39 -36.5 -83t-46 -89t-45 -90t-31.5 -84zM313 987q27 0 42.5 -1t27.5 -1q14 0 28.5 1t39.5 5 q20 39 52 63.5t58 35.5l4 2l86 -107q51 2 85 11.5t83 17.5l1 3t1 5t-1 4l-1 2q0 4 -14 4q-12 0 -17 2q-10 12 -34.5 26.5t-32.5 24.5q-18 23 -35.5 44.5t-40 38t-53.5 25.5t-74 9h-18q-29 -31 -43.5 -54.5t-29.5 -45t-40 -45t-74 -53.5v-17zM346 270q2 4 10.5 20.5 t12.5 20.5q4 8 29.5 50t56 91.5t56.5 91.5t30 50q29 -10 36 -41t13 -64l59 -182q2 -16 -25.5 -23.5t-65.5 -11.5t-75 -4h-53h-37q-6 0 -24.5 1t-22.5 1z" />
<glyph unicode="&#xc3;" horiz-adv-x="1003" d="M-10 12q16 -4 38.5 -7t47 -6t47 -5t41.5 -2h16l596 26h47h78q43 0 79 1t46 4l-47 71q-18 27 -43 86.5t-52.5 135t-56 161.5t-54 168t-46 151.5t-33.5 114.5h-213q-14 -39 -36.5 -83t-46 -89t-45 -90t-31.5 -84zM279 993q25 0 40 -1t27 -1t26.5 1t37.5 5q18 39 48.5 62.5 t55.5 34.5q12 -16 23.5 -30.5t27.5 -29.5l35 -43q29 4 49.5 2t48.5 -2h17q12 10 25.5 34t34 52.5t49 57t69.5 51.5v16h-41h-27q-12 0 -26.5 -1t-36.5 -3q-18 -37 -49 -61.5t-56 -34.5q-14 16 -26.5 31.5t-26.5 27.5l-33 43q-31 -6 -57.5 0t-44.5 -8l-33 -29l-157 -157v-17z M346 270q2 4 10.5 20.5t12.5 20.5q4 8 29.5 50t56 91.5t56.5 91.5t30 50q29 -10 36 -41t13 -64l59 -182q2 -16 -25.5 -23.5t-65.5 -11.5t-75 -4h-53h-37q-6 0 -24.5 1t-22.5 1z" />
<glyph unicode="&#xc4;" horiz-adv-x="1003" d="M-10 12q16 -4 38.5 -7t47 -6t47 -5t41.5 -2h16l596 26h47h78q43 0 79 1t46 4l-47 71q-18 27 -43 86.5t-52.5 135t-56 161.5t-54 168t-46 151.5t-33.5 114.5h-213q-14 -39 -36.5 -83t-46 -89t-45 -90t-31.5 -84zM299 1034l3 -10t18.5 -19.5t47 -12.5t89.5 7q8 2 17 16.5 t16.5 32t12.5 34t5 24.5q0 47 -37 65.5t-72 18.5q-59 0 -79.5 -47.5t-20.5 -108.5zM346 270q2 4 10.5 20.5t12.5 20.5q4 8 29.5 50t56 91.5t56.5 91.5t30 50q29 -10 36 -41t13 -64l59 -182q2 -16 -25.5 -23.5t-65.5 -11.5t-75 -4h-53h-37q-6 0 -24.5 1t-22.5 1zM635 1032 l3 -10q3 -10 18.5 -19.5t47 -12.5t89.5 7q8 2 17 16.5t16.5 32t12.5 34t5 24.5q0 47 -37 65.5t-72 18.5q-59 0 -79.5 -47.5t-20.5 -108.5z" />
<glyph unicode="&#xc5;" horiz-adv-x="1003" d="M-10 12q16 -4 38.5 -7t47 -6t47 -5t41.5 -2h16l596 26h47h78q43 0 79 1t46 4l-47 71q-18 27 -43 86.5t-52.5 135t-56 161.5t-54 168t-46 151.5t-33.5 114.5h-213q-14 -39 -36.5 -83t-46 -89t-45 -90t-31.5 -84zM346 270q2 4 10.5 20.5t12.5 20.5q4 8 29.5 50t56 91.5 t56.5 91.5t30 50q29 -10 36 -41t13 -64l59 -182q2 -16 -25.5 -23.5t-65.5 -11.5t-75 -4h-53h-37q-6 0 -24.5 1t-22.5 1zM461 1051l3 -11q3 -10 18.5 -19t47 -12t88.5 7q8 2 17.5 16.5t16.5 31.5t12.5 33.5t5.5 24.5q0 47 -37 65.5t-72 18.5q-59 0 -79.5 -47t-20.5 -108z" />
<glyph unicode="&#xc6;" horiz-adv-x="1413" d="M-6 -4q16 -4 38.5 -7t47 -6t47.5 -5.5t41 -2.5h16l596 27h47h78q43 0 79 1t46 3l-26 39q49 -20 102 -32.5t108 -22.5q45 -6 81 -20.5t79 -14.5q0 2 -1 13.5t-1 13.5l19 211l-193 30q-61 18 -99 33.5t-62.5 34t-40 41t-31.5 57.5l235 -18v18q0 16 3 59.5t22 141.5h-25 q-37 0 -64.5 2t-54 5t-55.5 6t-68 5q4 47 5.5 74t12.5 39t36.5 14t79.5 2l141 -32q6 -2 14 -3q14 0 42 -5t102 -27q0 53 5 87t5 56v88q-57 0 -103.5 4t-90.5 10.5t-90 10.5t-103 4q-94 0 -170 -26.5t-125 -86.5q-6 23 -11.5 42.5t-9.5 35.5h-213q-14 -39 -36.5 -83t-46 -89 t-45 -90t-31.5 -84zM350 254q2 4 10.5 20.5t12.5 20.5q4 8 29.5 50t56 91t56.5 91.5t30 50.5q29 -10 36 -41t13 -64l59 -182q2 -16 -25.5 -23.5t-65.5 -11.5t-75 -4h-53h-37q-6 0 -24.5 1t-22.5 1z" />
<glyph unicode="&#xc7;" horiz-adv-x="671" d="M10 481q0 -53 24.5 -102t64.5 -95t92.5 -88t109.5 -79q4 -29 11 -61.5t5 -63.5l-23 -14q-24 -13 -53.5 -32.5t-53 -43t-23.5 -43.5q0 -10 12 -26.5t32.5 -29t49.5 -13.5t64 20q8 2 22 24.5t32.5 56t36 70.5t31.5 68q35 -20 68 -38t61 -34q2 0 5.5 -1t7.5 -1 q18 0 29.5 23.5t17.5 54t8 60.5t2 42v35q-35 20 -91 54t-109.5 76t-92.5 92t-39 104q0 63 30 112t75 87t99 64.5t106 47.5l-127 141q-2 0 -9.5 2t-13.5 2q-39 0 -89 -24.5t-101.5 -63.5t-99.5 -89t-86 -102t-61.5 -102.5t-23.5 -89.5z" />
<glyph unicode="&#xc8;" horiz-adv-x="782" d="M12 569q0 94 28 163t77 113t116.5 64.5t149.5 20.5q57 0 103 -4t90.5 -10.5t90.5 -10.5t103 -4v-88q0 -23 -5 -56.5t-5 -86.5q-74 23 -104.5 37t-45.5 14q-8 0 -14 2l-135 14q-53 0 -79 -2t-37 -14t-12 -39t-5 -74q39 -2 66.5 -6t54 -7t54 -6t64.5 -3h25 q-18 -98 -20.5 -139t-2.5 -58v-18l-235 18q16 -35 31.5 -57.5t40 -41t62.5 -33.5t99 -34l193 -30l-19 -211q0 -2 1 -13.5t1 -13.5q-43 0 -78.5 14.5t-80.5 20.5q-113 18 -216.5 57t-182.5 107.5t-126 170t-47 244.5zM307 1128q0 47 6 62.5t41 15.5q31 0 63 -15t59.5 -39 t45 -54.5t17.5 -61.5l6 -9t2 -16t-25.5 -10.5t-79.5 7.5q-8 2 -30.5 18t-45 36.5t-41 39t-18.5 26.5z" />
<glyph unicode="&#xc9;" horiz-adv-x="782" d="M12 569q0 -143 47 -244.5t126 -170t182.5 -107.5t216.5 -57q45 -6 80.5 -20.5t78.5 -14.5q0 2 -1 13.5t-1 13.5l19 211l-193 30q-61 18 -99 33.5t-62.5 34t-40 41t-31.5 57.5l235 -18v18q0 16 2 57t21 140h-25q-37 0 -64.5 3t-54 6t-54 7t-66.5 6q4 47 5 74t12 39t37 14 t79 2l135 -14q6 -2 14 -2q14 0 45 -14.5t105 -36.5q0 53 5 87t5 56v88q-57 0 -103 4t-90.5 10.5t-90.5 10.5t-103 4q-82 0 -149.5 -20.5t-116.5 -64.5t-77 -112.5t-28 -163.5zM346 1011q4 -7 25.5 -10.5t79.5 7.5q8 2 30.5 18t45 36.5t41 39t18.5 26.5q0 47 -6.5 62.5 t-40.5 15.5q-31 0 -63 -15t-59.5 -39t-45 -54.5t-17.5 -61.5l-6 -9t-2 -16z" />
<glyph unicode="&#xca;" horiz-adv-x="782" d="M12 569q0 -143 47 -244.5t126 -170t182.5 -107.5t216.5 -57q45 -6 80.5 -20.5t78.5 -14.5q0 2 -1 13.5t-1 13.5l19 211l-193 30q-61 18 -99 33.5t-62.5 34t-40 41t-31.5 57.5l235 -18v18q0 16 2 57t21 140h-25q-37 0 -64.5 3t-54 6t-54 7t-66.5 6q4 47 5 74t12 39t37 14 t79 2l135 -14q6 -2 14 -2q14 0 45 -14.5t105 -36.5q0 53 5 87t5 56v88q-57 0 -103 4t-90.5 10.5t-90.5 10.5t-103 4q-82 0 -149.5 -20.5t-116.5 -64.5t-77 -112.5t-28 -163.5zM162 995q27 0 42 -1t27 -1q14 0 28.5 1t39.5 5q20 39 52 63.5t59 35.5l4 2l86 -107 q51 2 84.5 11.5t83.5 17.5l1 3t1 5t-1 4l-1 2q0 4 -15 4q-12 0 -16 2q-10 12 -34.5 26.5t-33.5 25.5q-18 23 -35.5 44t-40 37.5t-53 25.5t-73.5 9h-19q-29 -31 -43 -54t-29.5 -44.5t-40 -45.5t-73.5 -54v-17z" />
<glyph unicode="&#xcb;" horiz-adv-x="782" d="M12 569q0 -143 47 -244.5t126 -170t182.5 -107.5t216.5 -57q45 -6 80.5 -20.5t78.5 -14.5q0 2 -1 13.5t-1 13.5l19 211l-193 30q-61 18 -99 33.5t-62.5 34t-40 41t-31.5 57.5l235 -18v18q0 16 2 57t21 140h-25q-37 0 -64.5 3t-54 6t-54 7t-66.5 6q4 47 5 74t12 39t37 14 t79 2l135 -14q6 -2 14 -2q14 0 45 -14.5t105 -36.5q0 53 5 87t5 56v88q-57 0 -103 4t-90.5 10.5t-90.5 10.5t-103 4q-82 0 -149.5 -20.5t-116.5 -64.5t-77 -112.5t-28 -163.5zM166 1034l3 -10t18.5 -19.5t47 -12.5t89.5 7q8 2 17 16.5t16.5 32t12.5 34t5 24.5q0 47 -37 65.5 t-72 18.5q-59 0 -79.5 -47.5t-20.5 -108.5zM485 1032l3 -10q4 -10 19 -19.5t47 -12.5t89 7q8 2 17.5 16.5t16.5 32t12 34t5 24.5q0 47 -36.5 65.5t-71.5 18.5q-59 0 -80 -47.5t-21 -108.5z" />
<glyph unicode="&#xcc;" horiz-adv-x="380" d="M33 -59q0 72 8 141.5t19.5 138t19.5 138t8 141.5v39q0 29 -2 60.5t-2 59.5v41q-4 2 -12.5 10.5t-10.5 12.5l-1 5t-1 7q0 20 33 38t75 29t84 17t60 6h13l12 -12t10 -12q-2 -25 -6 -78t-8 -120.5t-9.5 -141.5t-9.5 -141.5t-8 -121t-6 -79.5v-72q-8 -4 -35.5 -15.5 t-59.5 -23.5t-59.5 -23.5t-35.5 -15.5l-48 -22q-2 -4 -14 -5t-14 -1zM68 1057q0 47 6 62.5t41 15.5q31 0 62.5 -15.5t59 -39t45 -54t17.5 -61.5l6 -9q6 -10 2 -17t-25.5 -10t-78.5 7q-8 2 -30.5 18.5t-45.5 37t-41 39t-18 26.5z" />
<glyph unicode="&#xcd;" horiz-adv-x="380" d="M33 -59q2 0 14 1t14 5l48 22q8 4 35.5 15.5t59.5 23.5t59.5 23.5t35.5 15.5v72q2 27 6 80t8 120.5t9.5 141.5t9.5 141.5t8 120.5t6 78q-2 4 -10 12l-12 12h-13q-18 0 -60 -6t-84 -17t-75 -28.5t-33 -38.5q0 -2 1 -7l1 -5q2 -4 10.5 -12.5t12.5 -10.5v-41q0 -29 2 -60.5 t2 -59.5v-39q0 -72 -8 -141.5t-19.5 -138t-19.5 -138.5t-8 -141zM70 939q4 -7 25.5 -10t78.5 7q8 2 30.5 18.5t45 37t41 39t18.5 26.5q0 47 -6 62.5t-41 15.5q-31 0 -62.5 -15.5t-59 -39t-45 -54t-17.5 -61.5l-6 -9q-6 -10 -2 -17z" />
<glyph unicode="&#xce;" horiz-adv-x="380" d="M-33 928q27 0 42.5 -1t27.5 -1q14 0 28.5 1t38.5 5q20 39 52 63.5t59 34.5l4 2l86 -106q51 2 85 11t83 17l1 4q1 3 1 5t-1 4l-1 2q0 4 -14 4q-12 0 -17 2q-10 12 -34.5 26.5t-32.5 24.5q-18 23 -35.5 44.5t-40.5 37.5t-53.5 25.5t-73.5 9.5h-18q-29 -31 -43.5 -54.5 t-29.5 -45t-40 -45t-74 -54.5v-16zM33 -59q2 0 14 1t14 5l48 22q8 4 35.5 15.5t59.5 23.5t59.5 23.5t35.5 15.5v72q2 27 6 80t8 120.5t9.5 141.5t9.5 141.5t8 120.5t6 78q-2 4 -10 12l-12 12h-13q-18 0 -60 -6t-84 -17t-75 -28.5t-33 -38.5q0 -2 1 -7l1 -5q2 -4 10.5 -12.5 t12.5 -10.5v-41q0 -29 2 -60.5t2 -59.5v-39q0 -72 -8 -141.5t-19.5 -138t-19.5 -138.5t-8 -141z" />
<glyph unicode="&#xcf;" horiz-adv-x="380" d="M-23 999l3 -10q4 -10 19 -19t47 -12.5t89 7.5q8 2 17.5 16t16.5 31.5t12 34t5 24.5q0 47 -36.5 65.5t-71.5 18.5q-59 0 -80 -47.5t-21 -108.5zM33 -59q2 0 14 1t14 5l48 22q8 4 35.5 15.5t59.5 23.5t59.5 23.5t35.5 15.5v72q2 27 6 80t8 120.5t9.5 141.5t9.5 141.5 t8 120.5t6 78q-2 4 -10 12l-12 12h-13q-18 0 -60 -6t-84 -17t-75 -28.5t-33 -38.5q0 -2 1 -7l1 -5q2 -4 10.5 -12.5t12.5 -10.5v-41q0 -29 2 -60.5t2 -59.5v-39q0 -72 -8 -141.5t-19.5 -138t-19.5 -138.5t-8 -141zM260 1001l3 -10q3 -10 18.5 -19t47 -12.5t89.5 7.5 q8 2 17 16t16.5 31.5t12.5 34t5 24.5q0 47 -37 65.5t-72 18.5q-59 0 -79.5 -47.5t-20.5 -108.5z" />
<glyph unicode="&#xd0;" horiz-adv-x="1091" d="M20 557q8 -70 13.5 -104.5t8.5 -53t4 -30t5 -33.5q2 -8 31 -8q23 4 55.5 5t65.5 11v-98v-80q0 -8 -3 -37t-8.5 -60.5t-8.5 -59t-3 -34.5q0 -2 -1 -12t-1 -12q47 0 106.5 20.5t106.5 28.5q121 18 244 57t222 106.5t161.5 169t62.5 247.5q0 94 -29.5 162.5t-81.5 112.5 t-126 64.5t-162 20.5q-123 0 -244 -15.5t-243 -15.5v-90q0 -35 1 -107.5t3 -160.5q-23 -4 -62 -2t-117 8zM446 696q0 16 9.5 21.5t38.5 5.5h26h117q53 0 92 -12.5t61.5 -45t22.5 -100.5q0 -164 -91 -231.5t-263 -67.5l-4 121l63 2q2 0 15.5 1t28.5 2l16 1q2 2 6 3l4 1 l-6 224l-23 -5q-33 -4 -59.5 -8t-50.5 -8z" />
<glyph unicode="&#xd1;" horiz-adv-x="946" d="M12 66q16 0 47 -2.5t62 0t56.5 9.5t31.5 25q2 20 2 41v45v99q0 51 2 99t12 89q39 -27 71 -73t59.5 -98t56 -106.5t63.5 -97.5t80 -70.5t107 -27.5q8 0 29.5 1t29.5 1q2 10 8 33.5t13.5 49.5t14.5 49.5t11 33.5q6 29 19.5 87t28.5 133t33.5 157t34 156.5t29 133t19.5 87.5 q0 2 2 5t2 5t-2 7l-2 5q-4 4 -11.5 14.5t-11.5 10.5h-200q0 -12 -2 -43t-4.5 -65t-4.5 -63.5t-2 -41.5q-4 -47 -14 -120t-21.5 -140.5t-21.5 -115.5t-12 -48h-25l-9 10t-19.5 25.5t-22.5 32t-19 26.5l-141 213l-119 235q-4 4 -12 13.5t-10 9.5q-18 0 -47 -9t-59.5 -21.5 t-59.5 -24t-47 -15.5q4 -199 -10.5 -383t-14.5 -376zM178 1006q25 0 40 -1t28 -1q12 0 26.5 1t36.5 5q18 39 49 62.5t56 33.5q12 -16 23.5 -30.5t27.5 -28.5l35 -43q29 4 49 2t49 -2h16q12 10 25.5 33.5t34 52t49.5 57.5t70 51v16h-41h-27q-12 0 -26.5 -1t-36.5 -3 q-18 -37 -49 -61.5t-56 -34.5q-14 16 -26.5 31.5t-26.5 28.5l-33 43q-31 -6 -57.5 0t-44.5 -9l-33 -28l-158 -158v-16z" />
<glyph unicode="&#xd2;" d="M12 360q0 35 1 67t3 40q0 88 22.5 149.5t65.5 108.5t103.5 84t136.5 74q0 4 12.5 8t31 8t41 7t42.5 5h45q63 0 129 -41t118 -104.5t86 -137t34 -141.5q0 -86 -32 -173t-88 -157.5t-133 -114.5t-165 -44q-59 0 -129 21.5t-133.5 60.5t-111.5 90.5t-62 112.5 q-4 10 -10.5 32.5t-6.5 44.5zM225 477q-6 -41 4.5 -84t38 -81t72.5 -66.5t109 -40.5q76 37 133 104.5t57 161.5q0 6 -6 24.5t-13.5 39t-13.5 37t-6 18.5q-4 8 -18.5 21.5t-30.5 25.5t-33.5 22.5t-28.5 14.5q-4 0 -17 1t-17 1q-35 0 -75 -17.5t-75 -46t-57.5 -64.5t-22.5 -71 zM307 1128q0 47 6 62.5t41 15.5q31 0 63 -15t59.5 -39t45 -54.5t17.5 -61.5l6 -9t2 -16t-25.5 -10.5t-79.5 7.5q-8 2 -30.5 18t-45 36.5t-41 39t-18.5 26.5zM336 393q0 61 20.5 108.5t79.5 47.5q35 0 72 -18.5t37 -65.5q0 -8 -5 -24.5t-12.5 -34t-16.5 -32t-17 -16.5 q-57 -10 -89 -7t-47.5 12.5t-17.5 14.5z" />
<glyph unicode="&#xd3;" d="M12 360q0 -23 6.5 -45t10.5 -32q14 -61 62 -112.5t111.5 -90.5t133.5 -60.5t129 -21.5q88 0 165 44t133 114.5t88 157.5t32 173q0 68 -34 141.5t-86 137t-117.5 104.5t-129.5 41h-45q-20 -2 -42.5 -5t-41 -7t-31 -8t-12.5 -8q-76 -37 -136.5 -74t-103.5 -84t-65.5 -108.5 t-22.5 -149.5q-2 -8 -3 -40t-1 -67zM225 477q0 35 22.5 71t57.5 64.5t75 46t75 17.5q4 0 17 -1t17 -1q10 -4 28 -14.5t34 -22.5t30.5 -25.5t18.5 -21.5q0 -2 6 -18.5t13.5 -37t13.5 -39t6 -24.5q0 -94 -57.5 -161.5t-132.5 -104.5q-63 12 -108.5 40.5t-73 66.5t-38 81 t-4.5 84zM336 393l3 -10t18.5 -19.5t47 -12.5t89.5 7q8 2 17 16.5t16.5 32t12.5 34t5 24.5q0 47 -37 65.5t-72 18.5q-59 0 -79.5 -47.5t-20.5 -108.5zM346 1011q4 -7 25.5 -10.5t79.5 7.5q8 2 30.5 18t45 36.5t41 39t18.5 26.5q0 47 -6.5 62.5t-40.5 15.5q-31 0 -63 -15 t-59.5 -39t-45 -54.5t-17.5 -61.5l-6 -9q-6 -9 -2 -16z" />
<glyph unicode="&#xd4;" d="M12 360q0 -23 6.5 -45t10.5 -32q14 -61 62 -112.5t111.5 -90.5t133.5 -60.5t129 -21.5q88 0 165 44t133 114.5t88 157.5t32 173q0 68 -34 141.5t-86 137t-117.5 104.5t-129.5 41h-45q-20 -2 -42.5 -5t-41 -7t-31 -8t-12.5 -8q-76 -37 -136.5 -74t-103.5 -84t-65.5 -108.5 t-22.5 -149.5q-2 -8 -3 -40t-1 -67zM205 995q27 0 42 -1t27 -1q14 0 28.5 1t39.5 5q20 39 52 63.5t59 35.5l4 2l86 -107q51 2 85 11.5t83 17.5l1 3q1 3 1 5t-1 4l-1 2q0 4 -15 4q-12 0 -16 2q-10 12 -34.5 26.5t-33.5 25.5q-18 23 -35.5 44t-40 37.5t-53 25.5t-73.5 9h-19 q-29 -31 -43 -54t-29.5 -44.5t-40 -45.5t-73.5 -54v-17zM225 477q0 35 22.5 71t57.5 64.5t75 46t75 17.5q4 0 17 -1t17 -1q10 -4 28 -14.5t34 -22.5t30.5 -25.5t18.5 -21.5q0 -2 6 -18.5t13.5 -37t13.5 -39t6 -24.5q0 -94 -57.5 -161.5t-132.5 -104.5q-63 12 -108.5 40.5 t-73 66.5t-38 81t-4.5 84zM336 393l3 -10t18.5 -19.5t47 -12.5t89.5 7q8 2 17 16.5t16.5 32t12.5 34t5 24.5q0 47 -37 65.5t-72 18.5q-59 0 -79.5 -47.5t-20.5 -108.5z" />
<glyph unicode="&#xd5;" d="M12 360q0 -23 6.5 -45t10.5 -32q14 -61 62 -112.5t111.5 -90.5t133.5 -60.5t129 -21.5q88 0 165 44t133 114.5t88 157.5t32 173q0 68 -34 141.5t-86 137t-117.5 104.5t-129.5 41h-45q-20 -2 -42.5 -5t-41 -7t-31 -8t-12.5 -8q-76 -37 -136.5 -74t-103.5 -84t-65.5 -108.5 t-22.5 -149.5q-2 -8 -3 -40t-1 -67zM154 999q25 0 40 -1t27 -1t26.5 1t37.5 6q18 39 49 62.5t55 33.5q12 -16 23.5 -30.5t27.5 -29.5l35 -43q29 4 49.5 2t48.5 -2h17q12 10 25.5 34t34 52.5t49 57t69.5 51.5v16h-41h-27q-12 0 -26.5 -1t-36.5 -3q-18 -37 -49 -61.5 t-56 -34.5q-14 16 -26 31.5t-27 27.5l-33 43q-31 -6 -57.5 0.5t-44.5 -8.5l-33 -28l-157 -158v-17zM225 477q0 35 22.5 71t57.5 64.5t75 46t75 17.5q4 0 17 -1t17 -1q10 -4 28 -14.5t34 -22.5t30.5 -25.5t18.5 -21.5q0 -2 6 -18.5t13.5 -37t13.5 -39t6 -24.5 q0 -94 -57.5 -161.5t-132.5 -104.5q-63 12 -108.5 40.5t-73 66.5t-38 81t-4.5 84zM336 393l3 -10t18.5 -19.5t47 -12.5t89.5 7q8 2 17 16.5t16.5 32t12.5 34t5 24.5q0 47 -37 65.5t-72 18.5q-59 0 -79.5 -47.5t-20.5 -108.5z" />
<glyph unicode="&#xd6;" d="M12 360q0 -23 6.5 -45t10.5 -32q14 -61 62 -112.5t111.5 -90.5t133.5 -60.5t129 -21.5q88 0 165 44t133 114.5t88 157.5t32 173q0 68 -34 141.5t-86 137t-117.5 104.5t-129.5 41h-45q-20 -2 -42.5 -5t-41 -7t-31 -8t-12.5 -8q-76 -37 -136.5 -74t-103.5 -84t-65.5 -108.5 t-22.5 -149.5q-2 -8 -3 -40t-1 -67zM201 1032l3 -10q3 -10 18.5 -19.5t47 -12.5t88.5 7q8 2 17.5 16.5t16.5 32t12.5 34t5.5 24.5q0 47 -37 65.5t-72 18.5q-59 0 -79.5 -47.5t-20.5 -108.5zM225 477q0 35 22.5 71t57.5 64.5t75 46t75 17.5q4 0 17 -1t17 -1q10 -4 28 -14.5 t34 -22.5t30.5 -25.5t18.5 -21.5q0 -2 6 -18.5t13.5 -37t13.5 -39t6 -24.5q0 -94 -57.5 -161.5t-132.5 -104.5q-63 12 -108.5 40.5t-73 66.5t-38 81t-4.5 84zM336 393l3 -10t18.5 -19.5t47 -12.5t89.5 7q8 2 17 16.5t16.5 32t12.5 34t5 24.5q0 47 -37 65.5t-72 18.5 q-59 0 -79.5 -47.5t-20.5 -108.5zM537 1030l3 -10q3 -10 18 -19.5t47 -12.5t89 7q8 2 17.5 16.5t16.5 32t12 34t5 24.5q0 47 -36.5 65.5t-71.5 18.5q-59 0 -79.5 -47.5t-20.5 -108.5z" />
<glyph unicode="&#xd7;" horiz-adv-x="937" d="M-45 -45q16 27 44 37t46 33q31 39 70 88t74.5 98t59 93t23.5 75v51q0 2 -22.5 29.5t-51 64.5t-59 75t-45.5 56q-16 18 -30.5 23.5t-43.5 9.5l285 164l127 -283h17l8 31t21.5 74t30.5 88t36 74q6 6 5 -6.5t-4 -29t-7 -28.5t-4 -6q0 12 2 24.5t-11 22.5q25 -2 68 -2t88 1 t86 3t63 4q-6 -8 -28.5 -33.5t-49 -54.5t-49 -55.5t-28.5 -34.5q-31 -41 -42 -79t-11 -75q0 -20 20.5 -59t52 -86t69.5 -96t75 -91t67.5 -71t44.5 -35q-6 0 -36.5 -5t-64.5 -11t-63.5 -12.5t-35.5 -8.5l-18 -3q-19 -3 -40.5 -6t-39 -5t-19.5 -2q-4 0 -17.5 13.5t-19.5 23.5 q-10 12 -29.5 40.5t-39 60.5t-38 60.5t-26.5 43.5l-14 -7l-132 -208q-8 -16 -57 -27.5t-108.5 -19t-112.5 -12.5t-68 -9h-10h-8z" />
<glyph unicode="&#xd8;" d="M12 360q0 -23 6.5 -45t10.5 -32q14 -59 59 -110.5t107 -88.5l-89 -215q18 0 55.5 7t75 21.5t67.5 37t34 53.5l12 26q66 -16 115 -16q88 0 165 44t133 114.5t88 157.5t32 173q0 41 -13.5 86t-38 90.5t-56.5 86.5t-68 73l34 76q4 10 3 39t-5 45h-14q-10 0 -22.5 1t-22.5 1 h-16h-54q-33 0 -53 -29l-20 -47q-6 2 -21 2h-45q-20 -2 -42.5 -5t-41 -7t-31 -8t-12.5 -8q-76 -37 -136.5 -74t-103.5 -84t-65.5 -108.5t-22.5 -149.5q-2 -8 -3 -40t-1 -67zM225 477q0 33 20.5 67t52.5 61.5t70 46t72 22.5l-151 -365q-64 80 -64 168zM436 209l166 375 q2 -8 8 -24.5t12.5 -35t11.5 -33t5 -20.5q0 -94 -57.5 -161.5t-132.5 -104.5q-4 0 -13 4z" />
<glyph unicode="&#xd9;" horiz-adv-x="952" d="M25 700q8 14 23 16.5t30 2.5q16 0 30.5 2t22.5 20l156 9q2 -27 3 -72t6 -97.5t14 -105.5t26.5 -96t44.5 -70.5t65 -29.5q29 0 55.5 13t48 34.5t36 46t20.5 47.5q16 70 27.5 114t17.5 83.5t8.5 88t2.5 125.5q6 4 23 13.5t24 9.5q8 0 41.5 -1t71.5 -2t72 -2t44 -1 q8 -178 -19.5 -342t-98 -285t-188.5 -182.5t-290 -34.5q-72 -4 -123 36t-85 104.5t-55.5 146.5t-32.5 160.5t-15 145t-6 103.5zM301 1063q0 47 6 62.5t41 15.5q31 0 62.5 -15.5t59.5 -39t45 -54t17 -61.5l6 -9q7 -10 3 -17t-25.5 -10t-79.5 7q-8 2 -30.5 18.5t-45 37t-41 39 t-18.5 26.5z" />
<glyph unicode="&#xda;" horiz-adv-x="952" d="M25 700q2 -37 6 -103.5t15 -145t32.5 -160.5t55.5 -146.5t85 -104.5t123 -36q172 -27 290 34.5t188.5 182.5t98 285t19.5 342q-10 0 -44 1t-72 2t-71.5 2t-41.5 1q-6 0 -23.5 -9t-23.5 -14q0 -78 -2.5 -126t-8.5 -87.5t-17 -84t-28 -113.5q-6 -23 -20.5 -47.5t-36 -46 t-48 -34.5t-55.5 -13q-39 2 -65.5 29.5t-44 70.5t-26.5 96t-14 105.5t-6 97.5t-3 72l-156 -9q-8 -18 -22.5 -20t-30.5 -2q-14 0 -29.5 -2.5t-23.5 -16.5zM338 945q4 -7 25.5 -10t78.5 7q8 2 31 18.5t45.5 37t41 39t18.5 26.5q0 47 -6.5 62.5t-41.5 15.5q-31 0 -62.5 -15.5 t-59 -39t-45 -54t-17.5 -61.5l-6 -9q-6 -10 -2 -17z" />
<glyph unicode="&#xdb;" horiz-adv-x="952" d="M25 700q2 -37 6 -103.5t15 -145t32.5 -160.5t55.5 -146.5t85 -104.5t123 -36q172 -27 290 34.5t188.5 182.5t98 285t19.5 342q-10 0 -44 1t-72 2t-71.5 2t-41.5 1q-6 0 -23.5 -9t-23.5 -14q0 -78 -2.5 -126t-8.5 -87.5t-17 -84t-28 -113.5q-6 -23 -20.5 -47.5t-36 -46 t-48 -34.5t-55.5 -13q-39 2 -65.5 29.5t-44 70.5t-26.5 96t-14 105.5t-6 97.5t-3 72l-156 -9q-8 -18 -22.5 -20t-30.5 -2q-14 0 -29.5 -2.5t-23.5 -16.5zM205 995q27 0 42 -1t27 -1q14 0 28.5 1t39.5 5q20 39 52 63.5t59 35.5l4 2l86 -107q51 2 85 11.5t83 17.5l1 3t1 5 t-1 4l-1 2q0 4 -15 4q-12 0 -16 2q-10 12 -34.5 26.5t-33.5 25.5q-18 23 -35.5 44t-40 37.5t-53 25.5t-73.5 9h-19q-29 -31 -43 -54t-29.5 -44.5t-40 -45.5t-73.5 -54v-17z" />
<glyph unicode="&#xdc;" horiz-adv-x="952" d="M25 700q2 -37 6 -103.5t15 -145t32.5 -160.5t55.5 -146.5t85 -104.5t123 -36q172 -27 290 34.5t188.5 182.5t98 285t19.5 342q-10 0 -44 1t-72 2t-71.5 2t-41.5 1q-6 0 -23.5 -9t-23.5 -14q0 -78 -2.5 -123.5t-7.5 -84.5t-14 -81t-26 -112q-6 -23 -20 -47.5t-35.5 -46 t-48.5 -34.5t-55 -13q-41 2 -69 29.5t-45 69.5t-26.5 93t-14.5 101.5t-7 94.5t-4 73l-156 -9q-8 -18 -22.5 -20t-30.5 -2q-14 0 -29.5 -2.5t-23.5 -16.5zM178 1032l3 -10t18.5 -19.5t47.5 -12.5t89 7q8 2 17 16.5t16.5 32t12.5 34t5 24.5q0 47 -37 65.5t-71 18.5 q-59 0 -80 -47.5t-21 -108.5zM514 1030l3 -10q3 -10 18.5 -19.5t47 -12.5t89.5 7q8 2 17 16.5t16.5 32t12.5 34t5 24.5q0 47 -37 65.5t-72 18.5q-59 0 -79.5 -47.5t-20.5 -108.5z" />
<glyph unicode="&#xdd;" horiz-adv-x="1128" d="M12 -213q18 -8 44 -5t51.5 10t49 15.5t36.5 10.5q20 4 39.5 6t37.5 2q59 0 102.5 10t67.5 55l332 488q92 117 178 257t156 294q-59 -10 -105.5 -15.5t-84 -8.5t-71.5 -7t-67 -14q-18 -4 -14 -19.5t-6 -31.5q-23 -35 -54.5 -89.5t-61.5 -104.5t-52 -88l-21 -38h-20 l-191 299l-344 -55q41 -33 89.5 -98.5t95.5 -138t87 -139.5t64 -99v-62l-18 -21q-19 -20 -45.5 -49.5t-55 -63.5t-49.5 -60q-12 -16 -48 -59.5t-77 -94.5q-12 -12 -17 -21.5t-8 -18.5t-7.5 -20.5t-12.5 -25.5zM446.5 978q4.5 -7 26 -10t78.5 7q8 2 30.5 18.5t45 37t41 38.5 t18.5 27q0 47 -6 62.5t-41 15.5q-31 0 -62.5 -15.5t-59.5 -39t-45 -54t-17 -61.5l-7 -10q-6 -9 -1.5 -16z" />
<glyph unicode="&#xde;" horiz-adv-x="663" d="M12 -4h27q6 -8 22 -14l211 24l13 158q37 20 95 33.5t115.5 46t99.5 97.5t46 187q2 111 -45 151t-158 40q-18 0 -36.5 -5t-36 -10.5t-35 -6.5t-33.5 8q2 14 5 36.5l6 45t6 41t5 24.5q-2 14 -11 19.5t-21.5 7.5t-24.5 1t-20 -1q-61 0 -109.5 -5.5t-118.5 -21.5q0 -2 -1 -5 t-1 -5q0 -12 13.5 -31.5t25.5 -36.5l10 -20v-47q0 -35 1 -77t1 -79v-4q-8 -141 -29.5 -276.5t-21.5 -274.5zM285 322v36l6 183q8 10 20.5 20t20.5 14q12 2 29.5 -7t32 -24.5t24.5 -31.5t10 -29q0 -25 -13.5 -52.5t-34 -52t-46 -40.5t-49.5 -16z" />
<glyph unicode="&#xdf;" horiz-adv-x="901" d="M31 -182l20 604v330q0 27 13.5 58.5t34 58t44 44t45.5 15.5q27 -2 61 -9.5t66 -23.5h2q113 -18 216.5 -57t182.5 -107.5t126 -170t47 -245.5q0 -92 -25.5 -159.5t-70.5 -111.5t-108.5 -66.5t-139.5 -22.5h-27l-141 6v88q0 23 8 45.5t8 75.5q55 -16 71.5 -22.5t24.5 -6.5 h11h24q23 0 25 -2l18 4l6 3l2 1q23 8 52.5 10.5t29.5 10.5q0 4 -1 7t-1 7q-2 10 -3 21.5t-1 29.5q0 8 -21.5 20.5t-21.5 22.5q-39 2 -55 5.5t-28.5 5.5t-28 3t-52.5 1h-24q16 92 22.5 127t6.5 53v4v19l124 -11q-16 33 -32.5 58.5t-42 46t-64.5 38t-100 36.5l-39 2l-8 -43 l-8 -418l-23 -338l-205 -105q-16 8 -18 21.5t-2 36.5z" />
<glyph unicode="&#xe0;" horiz-adv-x="1003" d="M-12 8l331 553q10 39 32 84t45.5 90t46 89t36.5 83h213q12 -45 31.5 -115.5t44.5 -152.5t52.5 -169t55 -163t54 -134t47.5 -83l55 -65q-10 -2 -47 -4.5t-80 -3.5t-81 -2t-50 -1h-14q-23 0 -37 24.5t-18 37.5q-14 29 -20.5 46t-20.5 48l-23 23h-235q-29 0 -41.5 -29 t-29 -66t-50 -69.5t-107.5 -40.5h-16q-35 0 -88.5 6t-85.5 14zM422 406q4 0 22.5 -1.5t24.5 -1.5h37q33 0 57.5 9.5t24.5 40.5v32q0 33 -10 64t-39 41q-4 -8 -17.5 -28.5t-30 -43t-29.5 -43t-18 -29.5q-4 -4 -12 -20zM432 1135q0 47 6 62t41 15q31 0 62.5 -15t59.5 -38.5 t45.5 -54.5t17.5 -62l6 -9t2 -16t-25.5 -10t-79.5 7q-8 2 -30.5 18.5t-45 37t-41 38.5t-18.5 27z" />
<glyph unicode="&#xe1;" horiz-adv-x="1003" d="M-12 8q33 -8 86 -14t88 -6h16q74 8 107.5 40.5t50 69.5t29 66t41.5 29h235l23 -23q14 -31 20 -48.5t21 -45.5q4 -12 18 -37t37 -25h14q12 0 50 1t81 2t80 3.5t47 4.5l-55 65q-20 25 -47 83t-54.5 134t-55 163t-52.5 169t-44 153.5t-32 114.5h-213q-14 -39 -36.5 -83 t-46 -89t-45 -90t-32.5 -84zM422 406l10 20t12 20q4 8 17.5 29t30 43.5t30 43t17.5 28.5q29 -10 39 -41t10 -64v-32q0 -31 -24.5 -40.5t-57.5 -9.5h-37q-6 0 -24.5 1.5t-22.5 1.5zM446.5 1013q4.5 -7 26 -10.5t78.5 7.5q8 2 30.5 18t45 36.5t41 39t18.5 26.5q0 47 -6 62.5 t-41 15.5q-31 0 -62.5 -15t-59.5 -39t-45 -54.5t-17 -61.5l-7 -9q-6 -9 -1.5 -16z" />
<glyph unicode="&#xe2;" horiz-adv-x="1003" d="M-12 8q33 -8 86 -14t88 -6h16q74 8 107.5 40.5t50 69.5t29 66t41.5 29h235l23 -23q14 -31 20 -48.5t21 -45.5q4 -12 18 -37t37 -25h14q12 0 50 1t81 2t80 3.5t47 4.5l-55 65q-20 25 -47 83t-54.5 134t-55 163t-52.5 169t-44 153.5t-32 114.5h-213q-14 -39 -36.5 -83 t-46 -89t-45 -90t-32.5 -84zM313 987q27 0 42.5 -1t27.5 -1q14 0 28.5 1t39.5 5q20 39 52 63.5t58 35.5l4 2l86 -107q51 2 85 11.5t83 17.5l1 3t1 5t-1 4l-1 2q0 4 -14 4q-12 0 -17 2q-10 12 -34.5 26.5t-32.5 24.5q-18 23 -35.5 44.5t-40 38t-53.5 25.5t-74 9h-18 q-29 -31 -43.5 -54.5t-29.5 -45t-40 -45t-74 -53.5v-17zM422 406l10 20t12 20q4 8 17.5 29t30 43.5t30 43t17.5 28.5q29 -10 39 -41t10 -64v-32q0 -31 -24.5 -40.5t-57.5 -9.5h-37q-6 0 -24.5 1.5t-22.5 1.5z" />
<glyph unicode="&#xe3;" horiz-adv-x="1003" d="M-12 8q33 -8 86 -14t88 -6h16q74 8 107.5 40.5t50 69.5t29 66t41.5 29h235l23 -23q14 -31 20 -48.5t21 -45.5q4 -12 18 -37t37 -25h14q12 0 50 1t81 2t80 3.5t47 4.5l-55 65q-20 25 -47 83t-54.5 134t-55 163t-52.5 169t-44 153.5t-32 114.5h-213q-14 -39 -36.5 -83 t-46 -89t-45 -90t-32.5 -84zM279 993q25 0 40 -1t27 -1t26.5 1t37.5 5q18 39 48.5 62.5t55.5 34.5q12 -16 23.5 -30.5t27.5 -29.5l35 -43q29 4 49.5 2t48.5 -2h17q12 10 25.5 34t34 52.5t49 57t69.5 51.5v16h-41h-27q-12 0 -26.5 -1t-36.5 -3q-18 -37 -49 -61.5t-56 -34.5 q-14 16 -26.5 31.5t-26.5 27.5l-33 43q-31 -6 -57.5 0t-44.5 -8l-33 -29l-157 -157v-17zM422 406l10 20t12 20q4 8 17.5 29t30 43.5t30 43t17.5 28.5q29 -10 39 -41t10 -64v-32q0 -31 -24.5 -40.5t-57.5 -9.5h-37q-6 0 -24.5 1.5t-22.5 1.5z" />
<glyph unicode="&#xe4;" horiz-adv-x="1003" d="M-12 8q33 -8 86 -14t88 -6h16q74 8 107.5 40.5t50 69.5t29 66t41.5 29h235l23 -23q14 -31 20 -48.5t21 -45.5q4 -12 18 -37t37 -25h14q12 0 50 1t81 2t80 3.5t47 4.5l-55 65q-20 25 -47 83t-54.5 134t-55 163t-52.5 169t-44 153.5t-32 114.5h-213q-14 -39 -36.5 -83 t-46 -89t-45 -90t-32.5 -84zM299 1034l3 -10t18.5 -19.5t47 -12.5t89.5 7q8 2 17 16.5t16.5 32t12.5 34t5 24.5q0 47 -37 65.5t-72 18.5q-59 0 -79.5 -47.5t-20.5 -108.5zM422 406l10 20t12 20q4 8 17.5 29t30 43.5t30 43t17.5 28.5q29 -10 39 -41t10 -64v-32 q0 -31 -24.5 -40.5t-57.5 -9.5h-37q-6 0 -24.5 1.5t-22.5 1.5zM635 1032l3 -10q3 -10 18.5 -19.5t47 -12.5t89.5 7q8 2 17 16.5t16.5 32t12.5 34t5 24.5q0 47 -37 65.5t-72 18.5q-59 0 -79.5 -47.5t-20.5 -108.5z" />
<glyph unicode="&#xe5;" horiz-adv-x="1003" d="M-12 8q33 -8 86 -14t88 -6h16q74 8 107.5 40.5t50 69.5t29 66t41.5 29h235l23 -23q14 -31 20 -48.5t21 -45.5q4 -12 18 -37t37 -25h14q12 0 50 1t81 2t80 3.5t47 4.5l-55 65q-20 25 -47 83t-54.5 134t-55 163t-52.5 169t-44 153.5t-32 114.5h-213q-14 -39 -36.5 -83 t-46 -89t-45 -90t-32.5 -84zM422 406l10 20t12 20q4 8 17.5 29t30 43.5t30 43t17.5 28.5q29 -10 39 -41t10 -64v-32q0 -31 -24.5 -40.5t-57.5 -9.5h-37q-6 0 -24.5 1.5t-22.5 1.5zM461 1051l3 -11q3 -10 18.5 -19t47 -12t88.5 7q8 2 17.5 16.5t16.5 31.5t12.5 33.5t5.5 24.5 q0 47 -37 65.5t-72 18.5q-59 0 -79.5 -47t-20.5 -108z" />
<glyph unicode="&#xe6;" horiz-adv-x="1357" d="M-20 27q33 -8 86 -14.5t88 -6.5h16q74 8 107.5 41t50 70t29 65.5t40.5 28.5h236l22 -23q14 -31 20.5 -48t20.5 -46q4 -12 18.5 -36.5t37.5 -24.5h14q12 0 50 1t81 2t80 3t47 4l-55 66q-14 14 -27 38q82 -57 168 -104t147 -82q2 0 5.5 -1t7.5 -1q18 0 29.5 23.5t17.5 54.5 t8 60.5t2 41.5v35q-23 14 -64.5 33.5t-90 44t-93.5 53.5t-73 60l194 -3h14q14 0 30 -1l16 -1q2 0 6 1l4 1l2 226h-23q-123 0 -177 -5t-75 -10q18 41 53 78t78 67t89.5 53.5t87.5 39.5l-95 141q-2 0 -9 2t-13 2q-47 0 -105.5 -23.5t-119 -63.5t-114.5 -91t-93 -108 q-23 78 -42.5 145.5t-29.5 110.5h-213q-14 -39 -36.5 -83t-46 -89t-45.5 -90t-32 -84zM414 424q2 4 10 20.5t12 20.5q4 8 17.5 28.5t30 43t29.5 43t17 28.5q29 -10 39.5 -40.5t10.5 -63.5v-33q0 -31 -25 -40t-57 -9h-37q-6 0 -24.5 1t-22.5 1z" />
<glyph unicode="&#xe7;" horiz-adv-x="671" d="M10 481q0 -53 24.5 -102t64.5 -95t92.5 -88t109.5 -79q4 -29 11 -61.5t5 -63.5l-23 -14q-24 -13 -53.5 -32.5t-53 -43t-23.5 -43.5q0 -10 12 -26.5t32.5 -29t49.5 -13.5t64 20q8 2 22 24.5t32.5 56t36 70.5t31.5 68q35 -20 68 -38t61 -34q2 0 5.5 -1t7.5 -1 q18 0 29.5 23.5t17.5 54t8 60.5t2 42v35q-35 20 -91 54t-109.5 76t-92.5 92t-39 104q0 63 30 112t75 87t99 64.5t106 47.5l-127 141q-2 0 -9.5 2t-13.5 2q-39 0 -89 -24.5t-101.5 -63.5t-99.5 -89t-86 -102t-61.5 -102.5t-23.5 -89.5z" />
<glyph unicode="&#xe8;" horiz-adv-x="675" d="M12 485q-6 76 45.5 159t129 152.5t165.5 114.5t154 45q6 0 13 -2t9 -2l95 -141q-41 -16 -87.5 -39.5t-89.5 -53.5t-77.5 -67t-53.5 -78q20 4 74.5 9.5t177.5 5.5h23l-2 -226l-4 -1t-6 -1l-16 1q-15 1 -30 1h-14l-170 9q29 -31 71 -60.5t84 -55.5t81 -46.5t61 -34.5v-35 q0 -12 -2 -41.5t-8 -60.5t-17.5 -54.5t-29.5 -23.5q-4 0 -7 1t-6 1q-68 39 -165 93.5t-185 121t-150.5 144t-62.5 165.5zM186 1137q0 47 6.5 62t40.5 15q31 0 63 -15t59.5 -38.5t45 -54.5t17.5 -62l6 -9q6 -9 2 -16t-25.5 -10t-78.5 7q-8 2 -31 18.5t-45.5 37t-41 38.5 t-18.5 27z" />
<glyph unicode="&#xe9;" horiz-adv-x="675" d="M12 485q0 -88 62.5 -165.5t150.5 -144t185.5 -121t164.5 -93.5q2 0 5.5 -1t7.5 -1q18 0 29.5 23.5t17.5 54.5t8 60.5t2 41.5v35q-23 14 -61.5 34.5t-80.5 46.5t-84 55.5t-71 60.5l170 -9h14q14 0 30 -1l16 -1q2 0 6 1l4 1l2 226h-23q-123 0 -177 -5t-75 -10q18 41 53 78 t78 67t89.5 53.5t87.5 39.5l-95 141q-2 0 -9 2t-13 2q-66 0 -154 -45t-165.5 -114.5t-129 -152.5t-45.5 -159zM262 1027q4 -7 25.5 -10t79.5 7q8 2 30.5 18.5t45 37t41 39t18.5 26.5q0 47 -6.5 62.5t-40.5 15.5q-31 0 -63 -15.5t-59.5 -39t-45 -54t-17.5 -61.5l-6 -9 q-6 -10 -2 -17z" />
<glyph unicode="&#xea;" horiz-adv-x="675" d="M12 485q0 -88 62.5 -165.5t150.5 -144t185.5 -121t164.5 -93.5q2 0 5.5 -1t7.5 -1q18 0 29.5 23.5t17.5 54.5t8 60.5t2 41.5v35q-23 14 -61.5 34.5t-80.5 46.5t-84 55.5t-71 60.5l170 -9h14q14 0 30 -1l16 -1q2 0 6 1l4 1l2 226h-23q-123 0 -177 -5t-75 -10q18 41 53 78 t78 67t89.5 53.5t87.5 39.5l-95 141q-2 0 -9 2t-13 2q-66 0 -154 -45t-165.5 -114.5t-129 -152.5t-45.5 -159zM109 993q27 0 42 -1t27 -1q14 0 28.5 1t39.5 5q20 39 52 63.5t58 35.5l4 2l86 -107q51 2 85 11.5t83 17.5l1 3t1 5t-1 4l-1 2q0 4 -14 4q-12 0 -16 2 q-10 12 -35 26.5t-33 25.5q-18 23 -35.5 44t-40 37.5t-53.5 25.5t-74 9h-18q-29 -31 -43 -54.5t-29.5 -45t-40 -45t-73.5 -53.5v-17z" />
<glyph unicode="&#xeb;" horiz-adv-x="675" d="M12 485q0 -88 62.5 -165.5t150.5 -144t185.5 -121t164.5 -93.5q2 0 5.5 -1t7.5 -1q18 0 29.5 23.5t17.5 54.5t8 60.5t2 41.5v35q-23 14 -61.5 34.5t-80.5 46.5t-84 55.5t-71 60.5l170 -9h14q14 0 30 -1l16 -1q2 0 6 1l4 1l2 226h-23q-123 0 -177 -5t-75 -10q18 41 53 78 t78 67t89.5 53.5t87.5 39.5l-95 141q-2 0 -9 2t-13 2q-66 0 -154 -45t-165.5 -114.5t-129 -152.5t-45.5 -159zM109 1059l3 -11q3 -10 18 -19t47 -12t89 7q8 2 17.5 16.5t16.5 32t12 33.5t5 24q0 47 -36.5 65.5t-71.5 18.5q-59 0 -79.5 -47t-20.5 -108zM428 1057l3 -11 q3 -10 18.5 -19t47 -12t89.5 7q8 2 17 16.5t16.5 31.5t12.5 33.5t5 24.5q0 47 -37 65.5t-72 18.5q-59 0 -79.5 -47t-20.5 -108z" />
<glyph unicode="&#xec;" horiz-adv-x="380" d="M33 -59q0 72 8 141.5t19.5 138t19.5 138t8 141.5v39q0 29 -2 60.5t-2 59.5v41q-4 2 -12.5 10.5t-10.5 12.5l-1 5t-1 7q0 20 33 38t75 29t84 17t60 6h13l12 -12t10 -12q-2 -25 -6 -78t-8 -120.5t-9.5 -141.5t-9.5 -141.5t-8 -121t-6 -79.5v-72q-8 -4 -35.5 -15.5 t-59.5 -23.5t-59.5 -23.5t-35.5 -15.5l-48 -22q-2 -4 -14 -5t-14 -1zM68 1057q0 47 6 62.5t41 15.5q31 0 62.5 -15.5t59 -39t45 -54t17.5 -61.5l6 -9q6 -10 2 -17t-25.5 -10t-78.5 7q-8 2 -30.5 18.5t-45.5 37t-41 39t-18 26.5z" />
<glyph unicode="&#xed;" horiz-adv-x="380" d="M33 -59q2 0 14 1t14 5l48 22q8 4 35.5 15.5t59.5 23.5t59.5 23.5t35.5 15.5v72q2 27 6 80t8 120.5t9.5 141.5t9.5 141.5t8 120.5t6 78q-2 4 -10 12l-12 12h-13q-18 0 -60 -6t-84 -17t-75 -28.5t-33 -38.5q0 -2 1 -7l1 -5q2 -4 10.5 -12.5t12.5 -10.5v-41q0 -29 2 -60.5 t2 -59.5v-39q0 -72 -8 -141.5t-19.5 -138t-19.5 -138.5t-8 -141zM70 939q4 -7 25.5 -10t78.5 7q8 2 30.5 18.5t45 37t41 39t18.5 26.5q0 47 -6 62.5t-41 15.5q-31 0 -62.5 -15.5t-59 -39t-45 -54t-17.5 -61.5l-6 -9q-6 -10 -2 -17z" />
<glyph unicode="&#xee;" horiz-adv-x="380" d="M-33 928q27 0 42.5 -1t27.5 -1q14 0 28.5 1t38.5 5q20 39 52 63.5t59 34.5l4 2l86 -106q51 2 85 11t83 17l1 4q1 3 1 5t-1 4l-1 2q0 4 -14 4q-12 0 -17 2q-10 12 -34.5 26.5t-32.5 24.5q-18 23 -35.5 44.5t-40.5 37.5t-53.5 25.5t-73.5 9.5h-18q-29 -31 -43.5 -54.5 t-29.5 -45t-40 -45t-74 -54.5v-16zM33 -59q2 0 14 1t14 5l48 22q8 4 35.5 15.5t59.5 23.5t59.5 23.5t35.5 15.5v72q2 27 6 80t8 120.5t9.5 141.5t9.5 141.5t8 120.5t6 78q-2 4 -10 12l-12 12h-13q-18 0 -60 -6t-84 -17t-75 -28.5t-33 -38.5q0 -2 1 -7l1 -5q2 -4 10.5 -12.5 t12.5 -10.5v-41q0 -29 2 -60.5t2 -59.5v-39q0 -72 -8 -141.5t-19.5 -138t-19.5 -138.5t-8 -141z" />
<glyph unicode="&#xef;" horiz-adv-x="380" d="M-23 999l3 -10q4 -10 19 -19t47 -12.5t89 7.5q8 2 17.5 16t16.5 31.5t12 34t5 24.5q0 47 -36.5 65.5t-71.5 18.5q-59 0 -80 -47.5t-21 -108.5zM33 -59q2 0 14 1t14 5l48 22q8 4 35.5 15.5t59.5 23.5t59.5 23.5t35.5 15.5v72q2 27 6 80t8 120.5t9.5 141.5t9.5 141.5 t8 120.5t6 78q-2 4 -10 12l-12 12h-13q-18 0 -60 -6t-84 -17t-75 -28.5t-33 -38.5q0 -2 1 -7l1 -5q2 -4 10.5 -12.5t12.5 -10.5v-41q0 -29 2 -60.5t2 -59.5v-39q0 -72 -8 -141.5t-19.5 -138t-19.5 -138.5t-8 -141zM260 1001l3 -10q3 -10 18.5 -19t47 -12.5t89.5 7.5 q8 2 17 16t16.5 31.5t12.5 34t5 24.5q0 47 -37 65.5t-72 18.5q-59 0 -79.5 -47.5t-20.5 -108.5z" />
<glyph unicode="&#xf0;" horiz-adv-x="905" d="M12 473q12 -25 28.5 -69t36 -97t42 -107.5t47 -99.5t51.5 -73.5t53 -28.5q45 0 108.5 10t131.5 30.5t133.5 50.5t117.5 71t84 91t32 109q0 135 -69 240t-171 182l115 39l10 2q14 4 28 7l15 4q2 0 4 2l2 2l-18 155l-23 -8q-117 -37 -180.5 -60.5t-104.5 -39.5 q-29 16 -56.5 29.5t-53.5 27.5q-6 6 -34 13.5t-36 11.5h-12q-12 0 -38 -29t-51.5 -65.5t-46 -71.5t-20.5 -47q0 -2 26.5 -10.5t67.5 -22.5q4 -16 6.5 -24.5t3.5 -13.5l2 -10t5 -18q2 -8 26 -2q14 4 37 9.5t45 11.5q23 -10 46.5 -21.5t46.5 -21.5q-41 -4 -88.5 -11.5 t-102.5 -17.5q-16 -2 -46 -8t-60.5 -15.5t-53 -22.5t-22.5 -32zM291.5 386q15.5 28 86.5 44t212 8q-8 -29 -29.5 -56.5t-48.5 -50t-56.5 -36.5t-52.5 -14q-63 18 -95 47.5t-16.5 57.5z" />
<glyph unicode="&#xf1;" horiz-adv-x="946" d="M12 66q16 0 47 -2.5t62 0t56.5 9.5t31.5 25q2 20 2 41v45v99q0 51 2 99t12 89q39 -27 71 -73t59.5 -98t56 -106.5t63.5 -97.5t80 -70.5t107 -27.5q8 0 29.5 1t29.5 1q2 10 8 33.5t13.5 49.5t14.5 49.5t11 33.5q6 29 19.5 87t28.5 133t33.5 157t34 156.5t29 133t19.5 87.5 q0 2 2 5t2 5t-2 7l-2 5q-4 4 -11.5 14.5t-11.5 10.5h-200q0 -12 -2 -43t-4.5 -65t-4.5 -63.5t-2 -41.5q-4 -47 -14 -120t-21.5 -140.5t-21.5 -115.5t-12 -48h-25l-9 10t-19.5 25.5t-22.5 32t-19 26.5l-141 213l-119 235q-4 4 -12 13.5t-10 9.5q-18 0 -47 -9t-59.5 -21.5 t-59.5 -24t-47 -15.5q4 -199 -10.5 -383t-14.5 -376zM178 1006q25 0 40 -1t28 -1q12 0 26.5 1t36.5 5q18 39 49 62.5t56 33.5q12 -16 23.5 -30.5t27.5 -28.5l35 -43q29 4 49 2t49 -2h16q12 10 25.5 33.5t34 52t49.5 57.5t70 51v16h-41h-27q-12 0 -26.5 -1t-36.5 -3 q-18 -37 -49 -61.5t-56 -34.5q-14 16 -26.5 31.5t-26.5 28.5l-33 43q-31 -6 -57.5 0t-44.5 -9l-33 -28l-158 -158v-16z" />
<glyph unicode="&#xf2;" d="M12 360q0 35 1 67t3 40q0 88 22.5 149.5t65.5 108.5t103.5 84t136.5 74q0 4 12.5 8t31 8t41 7t42.5 5h45q63 0 129 -41t118 -104.5t86 -137t34 -141.5q0 -86 -32 -173t-88 -157.5t-133 -114.5t-165 -44q-59 0 -129 21.5t-133.5 60.5t-111.5 90.5t-62 112.5 q-4 10 -10.5 32.5t-6.5 44.5zM225 477q0 -39 15.5 -82t44 -81t69.5 -67.5t95 -41.5q76 37 133 104.5t57 161.5q0 6 -6 24.5t-13.5 39t-13.5 37t-6 18.5q-4 8 -18.5 21.5t-30.5 25.5t-33.5 22.5t-28.5 14.5q-4 0 -17 1t-17 1q-35 0 -75 -17.5t-75 -46t-57.5 -64.5t-22.5 -71z M307 1128q0 47 6 62.5t41 15.5q31 0 63 -15t59.5 -39t45 -54.5t17.5 -61.5l6 -9t2 -16t-25.5 -10.5t-79.5 7.5q-8 2 -30.5 18t-45 36.5t-41 39t-18.5 26.5z" />
<glyph unicode="&#xf3;" d="M12 360q0 -23 6.5 -45t10.5 -32q14 -61 62 -112.5t111.5 -90.5t133.5 -60.5t129 -21.5q88 0 165 44t133 114.5t88 157.5t32 173q0 68 -34 141.5t-86 137t-117.5 104.5t-129.5 41h-45q-20 -2 -42.5 -5t-41 -7t-31 -8t-12.5 -8q-76 -37 -136.5 -74t-103.5 -84t-65.5 -108.5 t-22.5 -149.5q-2 -8 -3 -40t-1 -67zM225 477q0 35 22.5 71t57.5 64.5t75 46t75 17.5q4 0 17 -1t17 -1q10 -4 28 -14.5t34 -22.5t30.5 -25.5t18.5 -21.5q0 -2 6 -18.5t13.5 -37t13.5 -39t6 -24.5q0 -94 -57.5 -161.5t-132.5 -104.5q-53 12 -94.5 41.5t-70 67.5t-44 81 t-15.5 82zM346 1011q4 -7 25.5 -10.5t79.5 7.5q8 2 30.5 18t45 36.5t41 39t18.5 26.5q0 47 -6.5 62.5t-40.5 15.5q-31 0 -63 -15t-59.5 -39t-45 -54.5t-17.5 -61.5l-6 -9t-2 -16z" />
<glyph unicode="&#xf4;" d="M12 360q0 -23 6.5 -45t10.5 -32q14 -61 62 -112.5t111.5 -90.5t133.5 -60.5t129 -21.5q88 0 165 44t133 114.5t88 157.5t32 173q0 68 -34 141.5t-86 137t-117.5 104.5t-129.5 41h-45q-20 -2 -42.5 -5t-41 -7t-31 -8t-12.5 -8q-76 -37 -136.5 -74t-103.5 -84t-65.5 -108.5 t-22.5 -149.5q-2 -8 -3 -40t-1 -67zM205 995q27 0 42 -1t27 -1q14 0 28.5 1t39.5 5q20 39 52 63.5t59 35.5l4 2l86 -107q51 2 85 11.5t83 17.5l1 3t1 5t-1 4l-1 2q0 4 -15 4q-12 0 -16 2q-10 12 -34.5 26.5t-33.5 25.5q-18 23 -35.5 44t-40 37.5t-53 25.5t-73.5 9h-19 q-29 -31 -43 -54t-29.5 -44.5t-40 -45.5t-73.5 -54v-17zM225 477q0 35 22.5 71t57.5 64.5t75 46t75 17.5q4 0 17 -1t17 -1q10 -4 28 -14.5t34 -22.5t30.5 -25.5t18.5 -21.5q0 -2 6 -18.5t13.5 -37t13.5 -39t6 -24.5q0 -94 -57.5 -161.5t-132.5 -104.5q-53 12 -94.5 41.5 t-70 67.5t-44 81t-15.5 82z" />
<glyph unicode="&#xf5;" d="M12 360q0 -23 6.5 -45t10.5 -32q14 -61 62 -112.5t111.5 -90.5t133.5 -60.5t129 -21.5q88 0 165 44t133 114.5t88 157.5t32 173q0 68 -34 141.5t-86 137t-117.5 104.5t-129.5 41h-45q-20 -2 -42.5 -5t-41 -7t-31 -8t-12.5 -8q-76 -37 -136.5 -74t-103.5 -84t-65.5 -108.5 t-22.5 -149.5q-2 -8 -3 -40t-1 -67zM154 999q25 0 40 -1t27 -1t26.5 1t37.5 6q18 39 49 62.5t55 33.5q12 -16 23.5 -30.5t27.5 -29.5l35 -43q29 4 49.5 2t48.5 -2h17q12 10 25.5 34t34 52.5t49 57t69.5 51.5v16h-41h-27q-12 0 -26.5 -1t-36.5 -3q-18 -37 -49 -61.5 t-56 -34.5q-14 16 -26 31.5t-27 27.5l-33 43q-31 -6 -57.5 0.5t-44.5 -8.5l-33 -28l-157 -158v-17zM225 477q0 35 22.5 71t57.5 64.5t75 46t75 17.5q4 0 17 -1t17 -1q10 -4 28 -14.5t34 -22.5t30.5 -25.5t18.5 -21.5q0 -2 6 -18.5t13.5 -37t13.5 -39t6 -24.5 q0 -94 -57.5 -161.5t-132.5 -104.5q-53 12 -94.5 41.5t-70 67.5t-44 81t-15.5 82z" />
<glyph unicode="&#xf6;" d="M12 360q0 -23 6.5 -45t10.5 -32q14 -61 62 -112.5t111.5 -90.5t133.5 -60.5t129 -21.5q88 0 165 44t133 114.5t88 157.5t32 173q0 68 -34 141.5t-86 137t-117.5 104.5t-129.5 41h-45q-20 -2 -42.5 -5t-41 -7t-31 -8t-12.5 -8q-76 -37 -136.5 -74t-103.5 -84t-65.5 -108.5 t-22.5 -149.5q-2 -8 -3 -40t-1 -67zM201 1032l3 -10t18.5 -19.5t47 -12.5t88.5 7q8 2 17.5 16.5t16.5 32t12.5 34t5.5 24.5q0 47 -37 65.5t-72 18.5q-59 0 -79.5 -47.5t-20.5 -108.5zM225 477q0 35 22.5 71t57.5 64.5t75 46t75 17.5q4 0 17 -1t17 -1q10 -4 28 -14.5 t34 -22.5t30.5 -25.5t18.5 -21.5q0 -2 6 -18.5t13.5 -37t13.5 -39t6 -24.5q0 -94 -57.5 -161.5t-132.5 -104.5q-53 12 -94.5 41.5t-70 67.5t-44 81t-15.5 82zM537 1030l3 -10q3 -10 18 -19.5t47 -12.5t89 7q8 2 17.5 16.5t16.5 32t12 34t5 24.5q0 47 -36.5 65.5t-71.5 18.5 q-59 0 -79.5 -47.5t-20.5 -108.5z" />
<glyph unicode="&#xf7;" horiz-adv-x="729" d="M14 326q0 -12 29 -13q16 0 42 -1t52.5 0t52 7.5t43.5 20.5l353 -10h14q14 0 30 -1l15 -1q2 0 6 1l4 1l29 260h-22q-109 0 -177.5 -4t-115.5 -10.5t-80 -10.5t-68 -4t-82 5.5t-121 21.5q0 -72 -1 -113t-1 -67q0 -25 -1 -42.5t-1 -39.5zM217 78q2 -2 17.5 -19.5t66.5 -32 t139 2.5q8 2 19.5 18t20.5 36.5t15.5 40t6.5 28.5q0 27 -12.5 45t-32 29.5t-43 16.5t-43.5 5q-72 0 -113 -49t-41 -121zM219 717q2 -2 17.5 -19.5t66.5 -32t139 2.5q8 2 19.5 18t21 36.5t15.5 40t6 28.5q0 27 -12.5 45t-32 29.5t-43 16.5t-43.5 5q-72 0 -113 -49t-41 -121z " />
<glyph unicode="&#xf8;" d="M12 360q0 -23 6.5 -45t10.5 -32q14 -59 59 -110.5t107 -88.5l-89 -215q18 0 55.5 7t75 21.5t67.5 37t34 53.5l12 26q66 -16 115 -16q88 0 165 44t133 114.5t88 157.5t32 173q0 41 -13.5 86t-38 90.5t-56.5 86.5t-68 73l34 76q4 10 3 39t-5 45h-14q-10 0 -22.5 1t-22.5 1 h-16h-54q-33 0 -53 -29l-20 -47q-6 2 -21 2h-45q-20 -2 -42.5 -5t-41 -7t-31 -8t-12.5 -8q-76 -37 -136.5 -74t-103.5 -84t-65.5 -108.5t-22.5 -149.5q-2 -8 -3 -40t-1 -67zM225 477q0 33 20.5 67t52.5 61.5t70 46t72 22.5l-151 -365q-64 80 -64 168zM436 209l166 375 q2 -8 8 -24.5t12.5 -35t11.5 -33t5 -20.5q0 -94 -57.5 -161.5t-132.5 -104.5q-4 0 -13 4z" />
<glyph unicode="&#xf9;" horiz-adv-x="952" d="M25 700q8 14 23 16.5t30 2.5q16 0 30.5 2t22.5 20l156 9q2 -27 3 -72t6 -97.5t14 -105.5t26.5 -96t44.5 -70.5t65 -29.5q29 0 55.5 13t48 34.5t36 46t20.5 47.5q16 70 27.5 114t17.5 83.5t8.5 88t2.5 125.5q6 4 23 13.5t24 9.5q8 0 41.5 -1t71.5 -2t72 -2t44 -1 q8 -178 -19.5 -342t-98 -285t-188.5 -182.5t-290 -34.5q-72 -4 -123 36t-85 104.5t-55.5 146.5t-32.5 160.5t-15 145t-6 103.5zM301 1063q0 47 6 62.5t41 15.5q31 0 62.5 -15.5t59.5 -39t45 -54t17 -61.5l6 -9q7 -10 3 -17t-25.5 -10t-79.5 7q-8 2 -30.5 18.5t-45 37t-41 39 t-18.5 26.5z" />
<glyph unicode="&#xfa;" horiz-adv-x="952" d="M25 700q2 -37 6 -103.5t15 -145t32.5 -160.5t55.5 -146.5t85 -104.5t123 -36q172 -27 290 34.5t188.5 182.5t98 285t19.5 342q-10 0 -44 1t-72 2t-71.5 2t-41.5 1q-6 0 -23.5 -9t-23.5 -14q0 -78 -2.5 -126t-8.5 -87.5t-17 -84t-28 -113.5q-6 -23 -20.5 -47.5t-36 -46 t-48 -34.5t-55.5 -13q-39 2 -65.5 29.5t-44 70.5t-26.5 96t-14 105.5t-6 97.5t-3 72l-156 -9q-8 -18 -22.5 -20t-30.5 -2q-14 0 -29.5 -2.5t-23.5 -16.5zM338 945q4 -7 25.5 -10t78.5 7q8 2 31 18.5t45.5 37t41 39t18.5 26.5q0 47 -6.5 62.5t-41.5 15.5q-31 0 -62.5 -15.5 t-59 -39t-45 -54t-17.5 -61.5l-6 -9q-6 -10 -2 -17z" />
<glyph unicode="&#xfb;" horiz-adv-x="952" d="M25 700q2 -37 6 -103.5t15 -145t32.5 -160.5t55.5 -146.5t85 -104.5t123 -36q172 -27 290 34.5t188.5 182.5t98 285t19.5 342q-10 0 -44 1t-72 2t-71.5 2t-41.5 1q-6 0 -23.5 -9t-23.5 -14q0 -78 -2.5 -126t-8.5 -87.5t-17 -84t-28 -113.5q-6 -23 -20.5 -47.5t-36 -46 t-48 -34.5t-55.5 -13q-39 2 -65.5 29.5t-44 70.5t-26.5 96t-14 105.5t-6 97.5t-3 72l-156 -9q-8 -18 -22.5 -20t-30.5 -2q-14 0 -29.5 -2.5t-23.5 -16.5zM205 995q27 0 42 -1t27 -1q14 0 28.5 1t39.5 5q20 39 52 63.5t59 35.5l4 2l86 -107q51 2 85 11.5t83 17.5l1 3t1 5 t-1 4l-1 2q0 4 -15 4q-12 0 -16 2q-10 12 -34.5 26.5t-33.5 25.5q-18 23 -35.5 44t-40 37.5t-53 25.5t-73.5 9h-19q-29 -31 -43 -54t-29.5 -44.5t-40 -45.5t-73.5 -54v-17z" />
<glyph unicode="&#xfc;" horiz-adv-x="952" d="M25 700q2 -37 6 -103.5t15 -145t32.5 -160.5t55.5 -146.5t85 -104.5t123 -36q172 -27 290 34.5t188.5 182.5t98 285t19.5 342q-10 0 -44 1t-72 2t-71.5 2t-41.5 1q-6 0 -23.5 -9t-23.5 -14q0 -78 -2.5 -123.5t-7.5 -84.5t-14 -81t-26 -112q-6 -23 -20 -47.5t-35.5 -46 t-48.5 -34.5t-55 -13q-41 2 -69 29.5t-45 69.5t-26.5 93t-14.5 101.5t-7 94.5t-4 73l-156 -9q-8 -18 -22.5 -20t-30.5 -2q-14 0 -29.5 -2.5t-23.5 -16.5zM178 1032l3 -10t18.5 -19.5t47.5 -12.5t89 7q8 2 17 16.5t16.5 32t12.5 34t5 24.5q0 47 -37 65.5t-71 18.5 q-59 0 -80 -47.5t-21 -108.5zM514 1030l3 -10q3 -10 18.5 -19.5t47 -12.5t89.5 7q8 2 17 16.5t16.5 32t12.5 34t5 24.5q0 47 -37 65.5t-72 18.5q-59 0 -79.5 -47.5t-20.5 -108.5z" />
<glyph unicode="&#xfd;" horiz-adv-x="1128" d="M12 -213q18 -8 44 -5t51.5 10t49 15.5t36.5 10.5q20 4 39.5 6t37.5 2q59 0 102.5 10t67.5 55l332 488q92 117 178 257t156 294q-59 -10 -105.5 -15.5t-84 -8.5t-71.5 -7t-67 -14q-18 -4 -14 -19.5t-6 -31.5q-23 -35 -54.5 -89.5t-61.5 -104.5t-52 -88l-21 -38h-20 l-191 299l-344 -55q41 -33 89.5 -98.5t95.5 -138t87 -139.5t64 -99v-62l-18 -21q-19 -20 -45.5 -49.5t-55 -63.5t-49.5 -60q-12 -16 -48 -59.5t-77 -94.5q-12 -12 -17 -21.5t-8 -18.5t-7.5 -20.5t-12.5 -25.5zM446.5 978q4.5 -7 26 -10t78.5 7q8 2 30.5 18.5t45 37t41 38.5 t18.5 27q0 47 -6 62.5t-41 15.5q-31 0 -62.5 -15.5t-59.5 -39t-45 -54t-17 -61.5l-7 -10q-6 -9 -1.5 -16z" />
<glyph unicode="&#xfe;" horiz-adv-x="663" d="M12 -4h27q6 -8 22 -14l211 24l13 158q37 20 95 33.5t115.5 46t99.5 97.5t46 187q2 111 -45 151t-158 40q-18 0 -36.5 -5t-36 -10.5t-35 -6.5t-33.5 8q2 14 5 36.5l6 45t6 41t5 24.5q-2 14 -11 19.5t-21.5 7.5t-24.5 1t-20 -1q-61 0 -109.5 -5.5t-118.5 -21.5q0 -2 -1 -5 t-1 -5q0 -12 13.5 -31.5t25.5 -36.5l10 -20v-47q0 -35 1 -77t1 -79v-4q-8 -141 -29.5 -276.5t-21.5 -274.5zM285 322v36l6 183q8 10 20.5 20t20.5 14q12 2 29.5 -7t32 -24.5t24.5 -31.5t10 -29q0 -25 -13.5 -52.5t-34 -52t-46 -40.5t-49.5 -16z" />
<glyph unicode="&#xff;" horiz-adv-x="1128" d="M12 -213q18 -8 44 -5t51.5 10t49 15.5t36.5 10.5q20 4 39.5 6t37.5 2q59 0 102.5 10t67.5 55l332 488q92 117 178 257t156 294q-59 -10 -105.5 -15.5t-84 -8.5t-71.5 -7t-67 -14q-18 -4 -14 -19.5t-6 -31.5q-23 -35 -54.5 -89.5t-61.5 -104.5t-52 -88l-21 -38h-20 l-191 299l-344 -55q41 -33 89.5 -98.5t95.5 -138t87 -139.5t64 -99v-62l-18 -21q-19 -20 -45.5 -49.5t-55 -63.5t-49.5 -60q-12 -16 -48 -59.5t-77 -94.5q-12 -12 -17 -21.5t-8 -18.5t-7.5 -20.5t-12.5 -25.5zM283 1034l3 -10q3 -10 18 -19.5t47 -12.5t89 7q8 2 17.5 16.5 t16.5 32t12.5 34t5.5 24.5q0 47 -37 65.5t-72 18.5q-59 0 -79.5 -47.5t-20.5 -108.5zM618 1032l4 -10q3 -10 18 -19.5t47 -12.5t89 7q8 2 17.5 16.5t16.5 32t12 34t5 24.5q0 47 -36.5 65.5t-71.5 18.5q-59 0 -80 -47.5t-21 -108.5z" />
<glyph unicode="&#x152;" horiz-adv-x="1318" d="M12 504q0 -88 69 -166t166 -144.5t202.5 -121t181.5 -92.5q2 0 5 -1.5t7 -1.5q20 0 32.5 24t19.5 54.5t9.5 60t2.5 42.5v10q80 -76 187 -118t226 -60q45 -6 81 -20.5t79 -14.5q0 2 -1 13.5t-1 13.5l18 211l-192 30q-61 18 -99 33.5t-62.5 34t-40 41t-32.5 57.5l236 -18 v18q0 16 3 59.5t21 141.5h-24q-37 0 -64.5 2t-54 5t-55.5 6t-68 5q4 47 5 74t12.5 39t37 14t78.5 2l142 -32q6 -2 14 -3q14 0 42 -5t101 -27q0 53 5.5 87t5.5 56v88q-57 0 -103.5 4t-90.5 10.5t-90 10.5t-103 4q-84 0 -153 -21.5t-118 -66.5l-106 129q-2 0 -10.5 2t-14.5 2 q-43 0 -97 -24.5t-110.5 -63.5t-110 -89t-95.5 -102.5t-67.5 -102.5t-25.5 -89zM342 518q0 51 21.5 89t56.5 66.5t79 50t91 40.5q-41 -78 -41 -195q0 -115 29.5 -201.5t83.5 -152.5q-43 25 -98.5 56.5t-104.5 70.5t-83 84t-34 92z" />
<glyph unicode="&#x153;" horiz-adv-x="1095" d="M10 494q0 -88 62.5 -166t150.5 -144.5t185.5 -121t164.5 -93.5q2 0 5.5 -1t7.5 -1l110 170q78 -53 159 -97t140 -79q2 0 5.5 -1t7.5 -1q18 0 29.5 23.5t17.5 54.5t8 60.5t2 41.5v35q-23 14 -61.5 34.5t-80.5 46.5t-84 55.5t-71 60.5l170 -9h14q14 0 30 -1l15 -1q2 0 7 1 l4 1l2 226h-23q-123 0 -177 -5t-75 -10q18 41 53 78t78 67t89 53.5t87 39.5l-94 141q-2 0 -9 2t-13 2q-59 0 -138 -38.5t-153 -98.5l-141 142q-2 0 -9.5 2t-13.5 2q-39 0 -89 -25t-101.5 -63.5t-99.5 -89t-86 -102.5t-61.5 -102t-23.5 -89zM311 508q0 49 22.5 88t58.5 67.5 t81 51t92 41.5q-63 -66 -82.5 -134.5t-13.5 -134.5q0 -78 38 -138t89 -132q-41 23 -90 53.5t-92 67.5t-73 79t-30 91z" />
<glyph unicode="&#x178;" horiz-adv-x="1128" d="M12 -213q18 -8 44 -5t51.5 10t49 15.5t36.5 10.5q20 4 39.5 6t37.5 2q59 0 102.5 10t67.5 55l332 488q92 117 178 257t156 294q-59 -10 -105.5 -15.5t-84 -8.5t-71.5 -7t-67 -14q-18 -4 -14 -19.5t-6 -31.5q-23 -35 -54.5 -89.5t-61.5 -104.5t-52 -88l-21 -38h-20 l-191 299l-344 -55q41 -33 89.5 -98.5t95.5 -138t87 -139.5t64 -99v-62l-18 -21q-19 -20 -45.5 -49.5t-55 -63.5t-49.5 -60q-12 -16 -48 -59.5t-77 -94.5q-12 -12 -17 -21.5t-8 -18.5t-7.5 -20.5t-12.5 -25.5zM283 1034l3 -10q3 -10 18 -19.5t47 -12.5t89 7q8 2 17.5 16.5 t16.5 32t12.5 34t5.5 24.5q0 47 -37 65.5t-72 18.5q-59 0 -79.5 -47.5t-20.5 -108.5zM618 1032l4 -10q3 -10 18 -19.5t47 -12.5t89 7q8 2 17.5 16.5t16.5 32t12 34t5 24.5q0 47 -36.5 65.5t-71.5 18.5q-59 0 -80 -47.5t-21 -108.5z" />
<glyph unicode="&#x2c6;" horiz-adv-x="514" d="M6 756q27 0 42 -1t28 -1q14 0 28.5 1t38.5 5q20 39 52 63.5t59 34.5l4 2l86 -106q51 2 85 11t83 17l1 4q1 3 1 5t-1 4l-1 2q0 4 -14 4q-12 0 -17 2q-10 12 -34.5 26.5t-32.5 24.5q-18 23 -36 44.5t-40.5 37.5t-53 25.5t-73.5 9.5h-18q-29 -31 -43.5 -54.5t-30 -45 t-40 -45t-73.5 -54.5v-16z" />
<glyph unicode="&#x2dc;" horiz-adv-x="634" d="M10 758q25 0 40.5 -1t27.5 -1t26.5 1t36.5 5q18 39 49 62.5t56 33.5q12 -16 23.5 -30.5t27.5 -28.5l35 -43q29 4 49 2t49 -2h16q12 10 25.5 33.5t34 52t49.5 57.5t70 51v17h-41h-27q-12 0 -26.5 -1t-36.5 -3q-18 -37 -49 -61.5t-56 -35.5q-14 16 -26.5 31.5t-26.5 28.5 l-33 43q-31 -6 -57.5 0t-44.5 -8l-33 -29l-158 -158v-16z" />
<glyph unicode="&#x2000;" horiz-adv-x="682" />
<glyph unicode="&#x2001;" horiz-adv-x="1365" />
<glyph unicode="&#x2002;" horiz-adv-x="682" />
<glyph unicode="&#x2003;" horiz-adv-x="1365" />
<glyph unicode="&#x2004;" horiz-adv-x="455" />
<glyph unicode="&#x2005;" horiz-adv-x="341" />
<glyph unicode="&#x2006;" horiz-adv-x="227" />
<glyph unicode="&#x2007;" horiz-adv-x="227" />
<glyph unicode="&#x2008;" horiz-adv-x="170" />
<glyph unicode="&#x2009;" horiz-adv-x="273" />
<glyph unicode="&#x200a;" horiz-adv-x="75" />
<glyph unicode="&#x2010;" horiz-adv-x="505" d="M25 293q0 -12 28 -12q35 0 93.5 9t97.5 17l147 -18h15q14 0 30 -1l15 -1q2 0 6 1l4 1l28 260h-22q-109 0 -162 -3t-77.5 -8.5t-31 -8.5t-18.5 -3t-43.5 6.5t-105.5 22.5q0 -72 -1 -113t-1 -67q0 -25 -1 -42.5t-1 -39.5z" />
<glyph unicode="&#x2011;" horiz-adv-x="505" d="M25 293q0 -12 28 -12q35 0 93.5 9t97.5 17l147 -18h15q14 0 30 -1l15 -1q2 0 6 1l4 1l28 260h-22q-109 0 -162 -3t-77.5 -8.5t-31 -8.5t-18.5 -3t-43.5 6.5t-105.5 22.5q0 -72 -1 -113t-1 -67q0 -25 -1 -42.5t-1 -39.5z" />
<glyph unicode="&#x2012;" horiz-adv-x="505" d="M25 293q0 -12 28 -12q35 0 93.5 9t97.5 17l147 -18h15q14 0 30 -1l15 -1q2 0 6 1l4 1l28 260h-22q-109 0 -162 -3t-77.5 -8.5t-31 -8.5t-18.5 -3t-43.5 6.5t-105.5 22.5q0 -72 -1 -113t-1 -67q0 -25 -1 -42.5t-1 -39.5z" />
<glyph unicode="&#x2013;" horiz-adv-x="505" d="M25 293q0 23 1 40t1 42q0 27 1 67.5t1 112.5q74 -16 105.5 -22.5t43.5 -6.5t18.5 3t31 7.5t77.5 8.5t162 4h22l-28 -260l-4 -1t-6 -1l-15 1q-16 1 -30 1h-15l-147 18q-18 -14 -44 -20t-52.5 -7t-52 0t-42.5 1q-29 0 -28 12z" />
<glyph unicode="&#x2014;" horiz-adv-x="729" d="M25 293q0 23 1 40t1 42q0 27 1 67.5t1 112.5q74 -16 121 -21.5t81 -5.5q35 0 68 4.5t80 10.5t115.5 10t177.5 4h22l-28 -260l-4 -1q-5 -1 -7 -1l-15 1q-15 1 -30 1h-14l-352 10q-18 -14 -44 -20t-52.5 -7t-52 0t-42.5 1q-29 0 -28 12z" />
<glyph unicode="&#x2018;" horiz-adv-x="282" d="M16 662q0 8 5.5 53t12.5 95t17 92t21 46q-2 20 19.5 38t50 27t55 8t32.5 -15l27 -64q0 -39 -1 -95t-10 -109.5t-27.5 -91.5t-51.5 -38q-23 0 -48.5 -2t-48 1t-38 14.5t-15.5 40.5z" />
<glyph unicode="&#x2019;" horiz-adv-x="282" d="M18 684q0 39 1 95.5t10.5 109.5t27 91t52.5 38q20 0 46.5 2t49 -1t38 -15.5t15.5 -38.5q0 -8 -5 -53.5t-12.5 -96.5t-17.5 -93t-20 -44q2 -23 -19.5 -39t-50.5 -25.5t-55.5 -8.5t-32.5 16z" />
<glyph unicode="&#x201a;" horiz-adv-x="323" d="M-3 -126q5 40 15.5 78t15.5 52l17 43q4 72 30.5 121t96.5 45q45 -4 86 -28.5t37 -78.5q0 -8 -18.5 -52t-43 -95t-49 -92t-34.5 -43q-68 -41 -102 -40t-45 25.5t-6 64.5z" />
<glyph unicode="&#x201c;" horiz-adv-x="544" d="M16 662q0 8 5.5 53t12.5 95t17 92t21 46q-2 20 19.5 38t50 27t55 8t32.5 -15l27 -64q0 -39 -1 -95t-10 -109.5t-27.5 -91.5t-51.5 -38q-23 0 -48.5 -2t-48 1t-38 14.5t-15.5 40.5zM279 662q0 8 5 53t12 95t17.5 92t20.5 46q-2 20 19.5 38t50 27t55 8t33.5 -15l26 -64 q0 -39 -1 -95t-10 -109.5t-27.5 -91.5t-51.5 -38q-23 0 -48.5 -2t-48 1t-37.5 14.5t-15 40.5z" />
<glyph unicode="&#x201d;" horiz-adv-x="544" d="M18 684q0 39 1 95.5t10.5 109.5t27 91t52.5 38q20 0 46.5 2t49 -1t38 -15.5t15.5 -38.5q0 -8 -5 -53.5t-12.5 -96.5t-17.5 -93t-20 -44q2 -23 -19.5 -39t-50.5 -25.5t-55.5 -8.5t-32.5 16zM281 684q0 39 1 95.5t10 109.5t26.5 91t52.5 38q20 0 46.5 2t49 -1t38 -15.5 t15.5 -38.5q0 -8 -5 -53.5t-12 -96.5t-17.5 -93t-20.5 -44q2 -23 -19.5 -39t-50 -25.5t-55.5 -8.5t-33 16z" />
<glyph unicode="&#x201e;" horiz-adv-x="585" d="M-17.5 -124q5.5 40 15.5 78t16 52l17 43q4 72 30.5 121t96.5 45q45 -4 86 -28.5t37 -77.5q0 -8 -18.5 -52.5t-43 -95.5t-49.5 -92t-35 -43q-68 -41 -101.5 -40t-45 25.5t-6 64.5zM259 -126q5 40 15.5 78t15.5 52l17 43q4 72 31 121t96 45q45 -4 86 -28.5t37 -78.5 q0 -8 -18.5 -52t-43 -95t-49 -92t-34.5 -43q-68 -41 -102 -40t-45 25.5t-6 64.5z" />
<glyph unicode="&#x2022;" horiz-adv-x="452" d="M14 477q0 35 22.5 71t57.5 64.5t75 46t75 17.5q4 0 17 -1t18 -1q10 -4 27.5 -14.5t33.5 -22.5t30.5 -25.5t18.5 -21.5q0 -2 6 -18.5t13.5 -37t13.5 -39t6 -24.5q0 -94 -57.5 -161.5t-132.5 -104.5q-53 12 -94.5 41.5t-70 67.5t-44 81t-15.5 82z" />
<glyph unicode="&#x2026;" horiz-adv-x="980" d="M16 49q2 -2 17.5 -19.5t67 -31.5t139.5 2q8 2 19 18.5t20.5 37t15.5 40t6 27.5q0 27 -12.5 45t-31.5 29.5t-43 16.5t-44 5q-72 0 -113 -49t-41 -121zM340 49q2 -2 17.5 -19.5t66.5 -31.5t139 2q8 2 19.5 18.5t20.5 37t15.5 40t6.5 27.5q0 27 -12.5 45t-32 29.5t-43 16.5 t-43.5 5q-72 0 -113 -49t-41 -121zM657 47q2 -2 17.5 -19.5t67 -31.5t139.5 2q8 2 19 18.5t20.5 37t15.5 40t6 27.5q0 27 -12 45t-31.5 29.5t-43.5 16.5t-44 5q-72 0 -113 -49t-41 -121z" />
<glyph unicode="&#x202f;" horiz-adv-x="273" />
<glyph unicode="&#x2039;" horiz-adv-x="270" d="M27 487v19q31 29 54 43t44.5 29.5t45.5 40t54 73.5h17v-43v-28q0 -12 -1 -26.5t-3 -39.5q-39 -20 -63.5 -52t-35.5 -59l-2 -4l107 -86q-2 -27 -5 -47t-7.5 -38.5t-8.5 -38t-8 -44.5l-3 -1t-5 -1t-4 1l-2 1q-4 0 -4 13q0 14 -2 18q-12 10 -26.5 34.5t-25.5 33.5 q-23 18 -44 35.5t-37.5 40t-25.5 53t-9 73.5z" />
<glyph unicode="&#x203a;" horiz-adv-x="270" d="M27 354q2 -27 5 -47t7 -38.5t8 -38t8 -44.5l3 -1t5 -1t5 1l2 1q4 0 4 13q0 14 2 18q12 10 26.5 34.5t24.5 33.5q23 18 44.5 35.5t37.5 40t25.5 53t9.5 73.5v19q-31 29 -54.5 43t-45 29.5t-45 40t-54.5 73.5h-16q0 -27 -1 -42t-1 -29q0 -12 1 -26.5t5 -39.5 q39 -20 63.5 -52t34.5 -59l2 -4z" />
<glyph unicode="&#x205f;" horiz-adv-x="341" />
<glyph unicode="&#x20ac;" horiz-adv-x="903" d="M10 319q0 -12 29 -12q16 0 30.5 -2t26.5 -2q14 0 28.5 5t33.5 20h147q43 -57 107.5 -108.5t133 -96.5t136.5 -82t119 -66q2 0 5 -1t7 -1q18 0 29.5 23.5t17.5 54.5t8 60.5t2 42.5v34q-37 23 -97 58t-116 82h64h14q14 0 29 -1l16 -1q2 0 6 1l5 1l47 155h-23 q-86 0 -151.5 -2t-118.5 -6q-6 18 -6 39v27l209 12h14q14 0 30 -1l15 -1q2 0 6 1l4 1l8 162h-22h-86t-74 -2q45 39 99.5 65.5t105.5 46.5l-127 142q-2 0 -9 2t-14 2q-39 0 -87 -23.5t-98 -61.5t-98 -87t-87 -101q-68 -4 -137.5 -2t-170.5 13q0 -72 1.5 -99.5t1.5 -38.5 q0 -8 1 -12t1 -27q0 -12 28 -12q16 0 29.5 -2t26 -1t25.5 6t32 20h78q-6 -25 -6 -43q0 -10 1 -20.5t3 -20.5q-45 2 -104.5 0t-125.5 8v-94q0 -23 -1 -27l-1 -4v-23z" />
<glyph unicode="&#x2122;" horiz-adv-x="1052" d="M18 844h105l1 -14q1 -13 2 -32.5t2 -40t-1 -34.5q0 -8 -3 -41t-8 -70t-9.5 -69.5t-6.5 -40.5v-8v-27v-8q4 0 13.5 1t13.5 3q10 2 27.5 9t34 13.5t27.5 11.5l11 5l39 350h121q4 0 8 4t4 8q2 4 4.5 17.5t4.5 28t3 26.5t1 18q-10 12 -17.5 13.5t-19.5 1.5h-15q-4 0 -17 -2 t-28.5 -5.5t-29 -5.5t-15.5 -2h-116h-117q-4 -2 -9 -11t-5 -13q0 -10 -1.5 -24.5t-1.5 -28.5t-1 -23zM315 485q45 -4 71 -14t44.5 2t34.5 64.5t43 175.5q12 -8 14 -12.5t6 -14.5q4 -12 13.5 -43t19.5 -65.5t19.5 -66.5t13.5 -44t10 -12h14q55 0 85 18.5t48.5 49t31.5 71.5 t38 86q25 -29 29 -48.5t14 -51.5q8 -27 9 -52.5t9.5 -45t32 -32t78.5 -12.5q2 0 10.5 -1t17.5 0t16 5t10 13q-35 39 -55.5 86t-32 98t-15.5 105.5t-4 105.5q0 35 -1 68.5t-1 66.5h-113l-4 -10q-4 -10 -8 -17q-10 -29 -27.5 -79t-36 -101t-36 -88t-29.5 -37q-2 0 -4 1l-2 1 q-4 0 -8 4.5t-6 8.5l-89 266l-112 -14q-2 0 -14.5 -31t-29 -78t-34.5 -101.5t-33.5 -103.5t-26 -83t-10.5 -38z" />
<glyph unicode="&#x25fc;" horiz-adv-x="942" d="M0 0v942h942v-942h-942z" />
</font>
</defs>
</svg>
